Bodoni-06-Fatface.ufo
<glyph name="exclam" format="2">
	<advance width="878"/>
	<unicode hex="0021"/>
	<outline>
		<contour>
			<point x="400" y="616" type="curve"/>
			<point x="476" y="616" type="line"/>
			<point x="476" y="816"/>
			<point x="656" y="1006"/>
			<point x="676" y="1238" type="curve" smooth="yes"/>
			<point x="678" y="1252"/>
			<point x="678" y="1264"/>
			<point x="678" y="1276" type="curve" smooth="yes"/>
			<point x="678" y="1408"/>
			<point x="592" y="1516"/>
			<point x="438" y="1516" type="curve" smooth="yes"/>
			<point x="284" y="1516"/>
			<point x="200" y="1408"/>
			<point x="200" y="1276" type="curve" smooth="yes"/>
			<point x="200" y="1264"/>
			<point x="198" y="1252"/>
			<point x="200" y="1238" type="curve" smooth="yes"/>
			<point x="220" y="1006"/>
			<point x="400" y="816"/>
		</contour>
		<component base="period" xOffset="120"/>
	</outline>
</glyph>
<glyph name="dollar" format="2">
  <advance width="1268"/>
  <unicode hex="0024"/>
  <outline>
    <contour>
      <point x="616" y="1660" type="line"/>
      <point x="690" y="1660" type="line"/>
      <point x="690" y="-160" type="line"/>
      <point x="616" y="-160" type="line"/>
    </contour>
    <contour>
      <point x="478" y="1660" type="line"/>
      <point x="552" y="1660" type="line"/>
      <point x="552" y="-160" type="line"/>
      <point x="478" y="-160" type="line"/>
    </contour>
    <contour>
      <point x="1033" y="1210" type="line"/>
      <point x="1033" y="1370"/>
      <point x="828" y="1451"/>
      <point x="620" y="1451" type="curve" smooth="yes"/>
      <point x="458" y="1451"/>
      <point x="380" y="1398"/>
      <point x="380" y="1290" type="curve" smooth="yes"/>
      <point x="380" y="970"/>
      <point x="1189" y="1060"/>
      <point x="1189" y="460" type="curve" smooth="yes"/>
      <point x="1189" y="161"/>
      <point x="942" y="-29"/>
      <point x="630" y="-29" type="curve" smooth="yes"/>
      <point x="248" y="-29"/>
      <point x="51" y="160"/>
      <point x="51" y="330" type="curve" smooth="yes"/>
      <point x="51" y="452"/>
      <point x="132" y="554"/>
      <point x="250" y="554" type="curve" smooth="yes"/>
      <point x="341" y="554"/>
      <point x="448" y="480"/>
      <point x="448" y="362" type="curve" smooth="yes"/>
      <point x="448" y="252"/>
      <point x="361" y="171"/>
      <point x="263" y="171" type="curve" smooth="yes"/>
      <point x="168" y="171"/>
      <point x="53" y="240"/>
      <point x="53" y="330" type="curve"/>
      <point x="136" y="290" type="line"/>
      <point x="136" y="182"/>
      <point x="311" y="33"/>
      <point x="620" y="33" type="curve" smooth="yes"/>
      <point x="802" y="33"/>
      <point x="911" y="112"/>
      <point x="911" y="250" type="curve" smooth="yes"/>
      <point x="911" y="610"/>
      <point x="100" y="450"/>
      <point x="100" y="1090" type="curve" smooth="yes"/>
      <point x="100" y="1350"/>
      <point x="362" y="1520"/>
      <point x="614" y="1520" type="curve" smooth="yes"/>
      <point x="870" y="1520"/>
      <point x="1108" y="1402"/>
      <point x="1108" y="1210" type="curve" smooth="yes"/>
      <point x="1108" y="1098"/>
      <point x="1038" y="1006"/>
      <point x="920" y="1006" type="curve" smooth="yes"/>
      <point x="829" y="1006"/>
      <point x="723" y="1080"/>
      <point x="723" y="1188" type="curve" smooth="yes"/>
      <point x="723" y="1288"/>
      <point x="787" y="1369"/>
      <point x="885" y="1369" type="curve" smooth="yes"/>
      <point x="979" y="1369"/>
      <point x="1106" y="1310"/>
      <point x="1106" y="1210" type="curve"/>
    </contour>
  </outline>
</glyph>
<glyph name="percent" format="2">
	<advance width="2078"/>
	<unicode hex="0025"/>
	<outline>
		<contour>
			<point x="492" y="0" type="line"/>
			<point x="576" y="0" type="line"/>
			<point x="1586" y="1500" type="line"/>
			<point x="1504" y="1500" type="line"/>
		</contour>
		<contour>
			<point x="550" y="640" type="curve" smooth="yes"/>
			<point x="736" y="640"/>
			<point x="1028" y="794"/>
			<point x="1028" y="1080" type="curve" smooth="yes"/>
			<point x="1028" y="1366"/>
			<point x="778" y="1520"/>
			<point x="550" y="1520" type="curve" smooth="yes"/>
			<point x="322" y="1520"/>
			<point x="70" y="1366"/>
			<point x="70" y="1080" type="curve" smooth="yes"/>
			<point x="70" y="794"/>
			<point x="322" y="640"/>
		</contour>
		<contour>
			<point x="550" y="712" type="curve" smooth="yes"/>
			<point x="502" y="712"/>
			<point x="472" y="776"/>
			<point x="472" y="1080" type="curve" smooth="yes"/>
			<point x="472" y="1384"/>
			<point x="502" y="1448"/>
			<point x="550" y="1448" type="curve" smooth="yes"/>
			<point x="598" y="1448"/>
			<point x="630" y="1384"/>
			<point x="630" y="1080" type="curve" smooth="yes"/>
			<point x="630" y="776"/>
			<point x="598" y="712"/>
		</contour>
		<contour>
			<point x="1528" y="-20" type="curve" smooth="yes"/>
			<point x="1714" y="-20"/>
			<point x="2010" y="134"/>
			<point x="2010" y="420" type="curve" smooth="yes"/>
			<point x="2010" y="706"/>
			<point x="1756" y="860"/>
			<point x="1528" y="860" type="curve" smooth="yes"/>
			<point x="1300" y="860"/>
			<point x="1050" y="706"/>
			<point x="1050" y="420" type="curve" smooth="yes"/>
			<point x="1050" y="134"/>
			<point x="1300" y="-20"/>
		</contour>
		<contour>
			<point x="1528" y="52" type="curve" smooth="yes"/>
			<point x="1480" y="52"/>
			<point x="1450" y="116"/>
			<point x="1450" y="420" type="curve" smooth="yes"/>
			<point x="1450" y="724"/>
			<point x="1480" y="788"/>
			<point x="1528" y="788" type="curve" smooth="yes"/>
			<point x="1576" y="788"/>
			<point x="1608" y="724"/>
			<point x="1608" y="420" type="curve" smooth="yes"/>
			<point x="1608" y="116"/>
			<point x="1576" y="52"/>
		</contour>
	</outline>
</glyph>
<glyph name="ampersand" format="2">
	<advance width="1836"/>
	<unicode hex="0026"/>
	<outline>
		<contour>
			<point x="1090" y="0" type="line"/>
			<point x="1798" y="0" type="line"/>
			<point x="1798" y="72" type="line"/>
			<point x="1536" y="72" type="line"/>
			<point x="928" y="980" type="line" smooth="yes"/>
			<point x="842" y="1108"/>
			<point x="772" y="1250"/>
			<point x="772" y="1340" type="curve" smooth="yes"/>
			<point x="772" y="1402"/>
			<point x="804" y="1456"/>
			<point x="868" y="1456" type="curve" smooth="yes"/>
			<point x="942" y="1456"/>
			<point x="962" y="1398"/>
			<point x="962" y="1290" type="curve" smooth="yes"/>
			<point x="962" y="1040"/>
			<point x="924" y="1026"/>
			<point x="906" y="1008" type="curve"/>
			<point x="946" y="948" type="line"/>
			<point x="1188" y="1004"/>
			<point x="1370" y="1140"/>
			<point x="1370" y="1294" type="curve" smooth="yes"/>
			<point x="1370" y="1434"/>
			<point x="1192" y="1520"/>
			<point x="878" y="1520" type="curve" smooth="yes"/>
			<point x="546" y="1520"/>
			<point x="336" y="1406"/>
			<point x="336" y="1226" type="curve" smooth="yes"/>
			<point x="336" y="1156"/>
			<point x="376" y="1056"/>
			<point x="428" y="980" type="curve" smooth="yes"/>
		</contour>
		<contour>
			<point x="598" y="-20" type="curve" smooth="yes"/>
			<point x="1204" y="-20"/>
			<point x="1504" y="468"/>
			<point x="1552" y="900" type="curve"/>
			<point x="1480" y="900" type="line"/>
			<point x="1428" y="452"/>
			<point x="1152" y="124"/>
			<point x="858" y="124" type="curve" smooth="yes"/>
			<point x="606" y="124"/>
			<point x="516" y="448"/>
			<point x="516" y="644" type="curve" smooth="yes"/>
			<point x="516" y="748"/>
			<point x="544" y="774"/>
			<point x="564" y="788" type="curve"/>
			<point x="524" y="846" type="line"/>
			<point x="428" y="802"/>
			<point x="76" y="698"/>
			<point x="76" y="360" type="curve" smooth="yes"/>
			<point x="76" y="154"/>
			<point x="232" y="-20"/>
		</contour>
		<contour>
			<point x="1248" y="848" type="line"/>
			<point x="1728" y="848" type="line"/>
			<point x="1728" y="920" type="line"/>
			<point x="1248" y="920" type="line"/>
		</contour>
	</outline>
</glyph>
<glyph name="quotesingle" format="2">
	<advance width="638"/>
	<unicode hex="0027"/>
	<outline>
		<contour>
			<point x="284" y="836" type="curve"/>
			<point x="356" y="836" type="line"/>
			<point x="356" y="1056"/>
			<point x="518" y="1132"/>
			<point x="538" y="1282" type="curve" smooth="yes"/>
			<point x="540" y="1296"/>
			<point x="540" y="1306"/>
			<point x="540" y="1318" type="curve" smooth="yes"/>
			<point x="540" y="1436"/>
			<point x="438" y="1520"/>
			<point x="320" y="1520" type="curve" smooth="yes"/>
			<point x="202" y="1520"/>
			<point x="100" y="1436"/>
			<point x="100" y="1318" type="curve" smooth="yes"/>
			<point x="100" y="1306"/>
			<point x="100" y="1296"/>
			<point x="102" y="1282" type="curve" smooth="yes"/>
			<point x="122" y="1132"/>
			<point x="284" y="1056"/>
		</contour>
	</outline>
</glyph>
<glyph name="parenleft" format="2">
  <advance width="780"/>
  <unicode hex="0028"/>
  <outline>
    <contour>
      <point x="760" y="-288" type="curve"/>
      <point x="728" y="-340" type="line"/>
      <point x="402" y="-200"/>
      <point x="130" y="184"/>
      <point x="130" y="650" type="curve" smooth="yes"/>
      <point x="130" y="1116"/>
      <point x="402" y="1460"/>
      <point x="728" y="1600" type="curve"/>
      <point x="760" y="1548" type="line"/>
      <point x="612" y="1448"/>
      <point x="560" y="1034"/>
      <point x="560" y="650" type="curve" smooth="yes"/>
      <point x="560" y="266"/>
      <point x="612" y="-188"/>
    </contour>
  </outline>
</glyph>
<glyph name="plus" format="2">
	<advance width="1058"/>
	<unicode hex="002B"/>
	<outline>
		<contour>
			<point x="492" y="220" type="line"/>
			<point x="566" y="220" type="line"/>
			<point x="566" y="1040" type="line"/>
			<point x="492" y="1040" type="line"/>
		</contour>
		<contour>
			<point x="120" y="596" type="line"/>
			<point x="940" y="596" type="line"/>
			<point x="940" y="668" type="line"/>
			<point x="120" y="668" type="line"/>
		</contour>
	</outline>
</glyph>
<glyph name="comma" format="2">
	<advance width="677"/>
	<unicode hex="002C"/>
	<outline>
		<contour>
			<point x="76" y="-312" type="line"/>
			<point x="386" y="-312"/>
			<point x="594" y="-123"/>
			<point x="594" y="148" type="curve" smooth="yes"/>
			<point x="594" y="334"/>
			<point x="472" y="456"/>
			<point x="334" y="456" type="curve" smooth="yes"/>
			<point x="198" y="456"/>
			<point x="80" y="344"/>
			<point x="80" y="218" type="curve" smooth="yes"/>
			<point x="80" y="92"/>
			<point x="170" y="-20"/>
			<point x="316" y="-20" type="curve" smooth="yes"/>
			<point x="434" y="-20"/>
			<point x="542" y="78"/>
			<point x="542" y="148" type="curve"/>
			<point x="519" y="148" type="line"/>
			<point x="519" y="-122"/>
			<point x="310" y="-238"/>
			<point x="76" y="-238" type="curve"/>
		</contour>
	</outline>
</glyph>
<glyph name="period" format="2">
  <advance width="638"/>
  <unicode hex="002E"/>
  <outline>
    <contour>
      <point x="80" y="220" type="curve" smooth="yes"/>
      <point x="80" y="352"/>
      <point x="188" y="460"/>
      <point x="320" y="460" type="curve" smooth="yes"/>
      <point x="452" y="460"/>
      <point x="560" y="352"/>
      <point x="560" y="220" type="curve" smooth="yes"/>
      <point x="560" y="88"/>
      <point x="452" y="-20"/>
      <point x="320" y="-20" type="curve" smooth="yes"/>
      <point x="188" y="-20"/>
      <point x="80" y="88"/>
    </contour>
  </outline>
</glyph>
<glyph name="slash" format="2">
	<advance width="1072"/>
	<unicode hex="002F"/>
	<outline>
		<contour>
			<point x="80" y="-300" type="line"/>
			<point x="153" y="-300" type="line"/>
			<point x="993" y="1561" type="line"/>
			<point x="920" y="1561" type="line"/>
		</contour>
	</outline>
</glyph>
<glyph name="one" format="2">
	<advance width="1108"/>
	<unicode hex="0031"/>
	<outline>
		<contour>
			<point x="360" y="20" type="line"/>
			<point x="790" y="20" type="line"/>
			<point x="790" y="1500" type="line"/>
			<point x="134" y="1500" type="line"/>
			<point x="134" y="1428" type="line"/>
			<point x="360" y="1428" type="line"/>
		</contour>
		<contour>
			<point x="100" y="0" type="line"/>
			<point x="1010" y="0" type="line"/>
			<point x="1010" y="72" type="line"/>
			<point x="100" y="72" type="line"/>
		</contour>
	</outline>
</glyph>
<glyph name="two" format="2">
  <advance width="1298"/>
  <unicode hex="0032"/>
  <outline>
    <contour>
      <point x="1229" y="0" type="line"/>
      <point x="80" y="0" type="line"/>
      <point x="80" y="270" type="line"/>
      <point x="482" y="528" type="line" smooth="yes"/>
      <point x="660.97" y="642.861"/>
      <point x="748" y="772"/>
      <point x="748" y="1020" type="curve" smooth="yes"/>
      <point x="748" y="1263"/>
      <point x="637" y="1399"/>
      <point x="465" y="1399" type="curve" smooth="yes"/>
      <point x="337" y="1399"/>
      <point x="167" y="1314"/>
      <point x="167" y="1084" type="curve"/>
      <point x="99" y="1084" type="line"/>
      <point x="99" y="1184"/>
      <point x="232" y="1284"/>
      <point x="358" y="1284" type="curve" smooth="yes"/>
      <point x="477" y="1284"/>
      <point x="595" y="1182"/>
      <point x="595" y="1052" type="curve" smooth="yes"/>
      <point x="595" y="912"/>
      <point x="480" y="814"/>
      <point x="350" y="814" type="curve" smooth="yes"/>
      <point x="220" y="814"/>
      <point x="97" y="920"/>
      <point x="97" y="1084" type="curve" smooth="yes"/>
      <point x="97" y="1338"/>
      <point x="321" y="1520"/>
      <point x="650" y="1520" type="curve" smooth="yes"/>
      <point x="982" y="1520"/>
      <point x="1188" y="1361"/>
      <point x="1188" y="1141" type="curve" smooth="yes"/>
      <point x="1188" y="901"/>
      <point x="1008.73" y="768.562"/>
      <point x="818" y="650" type="curve" smooth="yes"/>
      <point x="448" y="420" type="line"/>
      <point x="1157" y="420" type="line"/>
      <point x="1157" y="570" type="line"/>
      <point x="1229" y="570" type="line"/>
    </contour>
  </outline>
</glyph>
<glyph name="three" format="2">
  <advance width="1240"/>
  <unicode hex="0033"/>
  <outline>
    <contour>
      <point x="1162" y="400" type="curve" smooth="yes"/>
      <point x="1162" y="140"/>
      <point x="844" y="-20"/>
      <point x="562" y="-20" type="curve" smooth="yes"/>
      <point x="228" y="-20"/>
      <point x="50" y="183"/>
      <point x="50" y="368" type="curve" smooth="yes"/>
      <point x="50" y="500"/>
      <point x="150" y="596"/>
      <point x="270" y="596" type="curve" smooth="yes"/>
      <point x="381" y="596"/>
      <point x="477" y="507"/>
      <point x="477" y="385" type="curve" smooth="yes"/>
      <point x="477" y="271"/>
      <point x="373" y="180"/>
      <point x="264" y="180" type="curve" smooth="yes"/>
      <point x="156" y="180"/>
      <point x="52" y="268"/>
      <point x="52" y="368" type="curve"/>
      <point x="125" y="368" type="line"/>
      <point x="125" y="208"/>
      <point x="306" y="59"/>
      <point x="482" y="59" type="curve" smooth="yes"/>
      <point x="650" y="59"/>
      <point x="720" y="172"/>
      <point x="720" y="420" type="curve" smooth="yes"/>
      <point x="720" y="568"/>
      <point x="664" y="775"/>
      <point x="426" y="775" type="curve"/>
      <point x="426" y="820" type="line"/>
      <point x="908" y="820"/>
      <point x="1162" y="621"/>
    </contour>
    <contour>
      <point x="426" y="802" type="curve"/>
      <point x="426" y="847" type="line"/>
      <point x="644" y="847"/>
      <point x="660" y="1054"/>
      <point x="660" y="1182" type="curve" smooth="yes"/>
      <point x="660" y="1330"/>
      <point x="620" y="1438"/>
      <point x="492" y="1438" type="curve" smooth="yes"/>
      <point x="379" y="1438"/>
      <point x="184" y="1345"/>
      <point x="184" y="1195" type="curve"/>
      <point x="111" y="1195" type="line"/>
      <point x="111" y="1305"/>
      <point x="224" y="1388"/>
      <point x="325" y="1388" type="curve" smooth="yes"/>
      <point x="434" y="1388"/>
      <point x="538" y="1302"/>
      <point x="538" y="1182" type="curve" smooth="yes"/>
      <point x="538" y="1052"/>
      <point x="425" y="971"/>
      <point x="325" y="971" type="curve" smooth="yes"/>
      <point x="214" y="971"/>
      <point x="109" y="1063"/>
      <point x="109" y="1195" type="curve" smooth="yes"/>
      <point x="109" y="1380"/>
      <point x="378" y="1518"/>
      <point x="582" y="1518" type="curve" smooth="yes"/>
      <point x="805" y="1518"/>
      <point x="1102" y="1403"/>
      <point x="1102" y="1182" type="curve" smooth="yes"/>
      <point x="1102" y="982"/>
      <point x="888" y="802"/>
    </contour>
  </outline>
</glyph>
<glyph name="four" format="2">
	<advance width="1368"/>
	<unicode hex="0034"/>
	<outline>
		<contour>
			<point x="510" y="0" type="line"/>
			<point x="1280" y="0" type="line"/>
			<point x="1280" y="72" type="line"/>
			<point x="1130" y="72" type="line"/>
			<point x="1130" y="1500" type="line"/>
			<point x="830" y="1500" type="line"/>
			<point x="70" y="394" type="line"/>
			<point x="1350" y="394" type="line"/>
			<point x="1350" y="468" type="line"/>
			<point x="200" y="468" type="line"/>
			<point x="700" y="1188" type="line"/>
			<point x="700" y="72" type="line"/>
			<point x="510" y="72" type="line"/>
		</contour>
	</outline>
</glyph>
<glyph name="six" format="2">
	<advance width="1318"/>
	<unicode hex="0036"/>
	<outline>
		<contour>
			<point x="688" y="-20" type="curve" smooth="yes"/>
			<point x="1030" y="-20"/>
			<point x="1260" y="200"/>
			<point x="1260" y="500" type="curve" smooth="yes"/>
			<point x="1260" y="840"/>
			<point x="1004" y="990"/>
			<point x="762" y="990" type="curve" smooth="yes"/>
			<point x="538" y="990"/>
			<point x="508" y="814"/>
			<point x="508" y="560" type="curve"/>
			<point x="560" y="560" type="line"/>
			<point x="560" y="826"/>
			<point x="612" y="888"/>
			<point x="678" y="888" type="curve" smooth="yes"/>
			<point x="756" y="888"/>
			<point x="800" y="834"/>
			<point x="800" y="500" type="curve" smooth="yes"/>
			<point x="800" y="206"/>
			<point x="790" y="52"/>
			<point x="692" y="52" type="curve" smooth="yes"/>
			<point x="594" y="52"/>
			<point x="560" y="226"/>
			<point x="560" y="560" type="curve"/>
			<point x="550" y="740" type="line"/>
			<point x="550" y="1084"/>
			<point x="740" y="1452"/>
			<point x="1108" y="1452" type="curve"/>
			<point x="1108" y="1520" type="line"/>
			<point x="504" y="1520"/>
			<point x="100" y="1106"/>
			<point x="100" y="620" type="curve" smooth="yes"/>
			<point x="100" y="200"/>
			<point x="346" y="-20"/>
		</contour>
	</outline>
</glyph>
<glyph name="eight" format="2">
	<advance width="1298"/>
	<unicode hex="0038"/>
	<outline>
		<contour>
			<point x="650" y="-20" type="curve" smooth="yes"/>
			<point x="1032" y="-20"/>
			<point x="1220" y="140"/>
			<point x="1220" y="380" type="curve" smooth="yes"/>
			<point x="1220" y="620"/>
			<point x="1032" y="780"/>
			<point x="650" y="780" type="curve" smooth="yes"/>
			<point x="268" y="780"/>
			<point x="80" y="620"/>
			<point x="80" y="380" type="curve" smooth="yes"/>
			<point x="80" y="140"/>
			<point x="268" y="-20"/>
		</contour>
		<contour>
			<point x="650" y="52" type="curve" smooth="yes"/>
			<point x="552" y="52"/>
			<point x="520" y="152"/>
			<point x="520" y="380" type="curve" smooth="yes"/>
			<point x="520" y="608"/>
			<point x="552" y="716"/>
			<point x="650" y="716" type="curve" smooth="yes"/>
			<point x="748" y="716"/>
			<point x="780" y="608"/>
			<point x="780" y="380" type="curve" smooth="yes"/>
			<point x="780" y="152"/>
			<point x="748" y="52"/>
		</contour>
		<contour>
			<point x="650" y="824" type="curve" smooth="yes"/>
			<point x="590" y="824"/>
			<point x="560" y="852"/>
			<point x="560" y="1120" type="curve" smooth="yes"/>
			<point x="560" y="1368"/>
			<point x="590" y="1448"/>
			<point x="650" y="1448" type="curve" smooth="yes"/>
			<point x="710" y="1448"/>
			<point x="740" y="1368"/>
			<point x="740" y="1120" type="curve" smooth="yes"/>
			<point x="740" y="852"/>
			<point x="710" y="824"/>
		</contour>
		<contour>
			<point x="650" y="760" type="curve" smooth="yes"/>
			<point x="992" y="760"/>
			<point x="1180" y="900"/>
			<point x="1180" y="1120" type="curve" smooth="yes"/>
			<point x="1180" y="1340"/>
			<point x="992" y="1520"/>
			<point x="650" y="1520" type="curve" smooth="yes"/>
			<point x="308" y="1520"/>
			<point x="120" y="1340"/>
			<point x="120" y="1120" type="curve" smooth="yes"/>
			<point x="120" y="900"/>
			<point x="308" y="760"/>
		</contour>
	</outline>
</glyph>
<glyph name="less" format="2">
	<advance width="1118"/>
	<unicode hex="003C"/>
	<outline>
		<contour>
			<point x="1000" y="334" type="line"/>
			<point x="1000" y="406" type="line"/>
			<point x="120" y="808" type="line"/>
			<point x="120" y="732" type="line"/>
		</contour>
		<contour>
			<point x="120" y="744" type="line"/>
			<point x="1000" y="1144" type="line"/>
			<point x="1000" y="1216" type="line"/>
			<point x="120" y="816" type="line"/>
		</contour>
	</outline>
</glyph>
<glyph name="question" format="2">
	<advance width="1238"/>
	<unicode hex="003F"/>
	<outline>
		<contour>
			<point x="492" y="558" type="line"/>
			<point x="566" y="558" type="line"/>
			<point x="566" y="712" type="line"/>
			<point x="928" y="730"/>
			<point x="1140" y="890"/>
			<point x="1140" y="1120" type="curve" smooth="yes"/>
			<point x="1140" y="1360"/>
			<point x="944" y="1520"/>
			<point x="612" y="1520" type="curve" smooth="yes"/>
			<point x="287" y="1520"/>
			<point x="120" y="1296"/>
			<point x="120" y="1132" type="curve" smooth="yes"/>
			<point x="120" y="1000"/>
			<point x="223" y="909"/>
			<point x="334" y="909" type="curve" smooth="yes"/>
			<point x="434" y="909"/>
			<point x="548" y="990"/>
			<point x="548" y="1120" type="curve" smooth="yes"/>
			<point x="548" y="1240"/>
			<point x="443" y="1329"/>
			<point x="334" y="1329" type="curve" smooth="yes"/>
			<point x="227" y="1329"/>
			<point x="122" y="1242"/>
			<point x="122" y="1132" type="curve"/>
			<point x="195" y="1132" type="line"/>
			<point x="195" y="1282"/>
			<point x="314" y="1429"/>
			<point x="492" y="1429" type="curve" smooth="yes"/>
			<point x="670" y="1429"/>
			<point x="698" y="1308"/>
			<point x="698" y="1120" type="curve" smooth="yes"/>
			<point x="698" y="934"/>
			<point x="646" y="800"/>
			<point x="492" y="738" type="curve"/>
		</contour>
		<component base="period" xOffset="258"/>
	</outline>
</glyph>
<glyph name="A" format="2">
  <advance width="1658"/>
  <unicode hex="0041"/>
  <anchor x="1236" y="0" name="cedilla"/>
  <anchor x="746" y="0" name="bottom"/>
  <anchor x="842" y="1500" name="top"/>
  <outline>
    <contour>
      <point x="28" y="72" type="line"/>
      <point x="472" y="72" type="line"/>
      <point x="472" y="0" type="line"/>
      <point x="28" y="0" type="line"/>
    </contour>
    <contour>
      <point x="816" y="72" type="line"/>
      <point x="1630" y="72" type="line"/>
      <point x="1630" y="0" type="line"/>
      <point x="816" y="0" type="line"/>
    </contour>
    <contour>
      <point x="370" y="510" type="line"/>
      <point x="1028" y="510" type="line"/>
      <point x="1028" y="438" type="line"/>
      <point x="370" y="438" type="line"/>
    </contour>
    <contour>
      <point x="640" y="1076" type="line"/>
      <point x="262" y="0" type="line"/>
      <point x="178" y="0" type="line"/>
      <point x="720" y="1528" type="line"/>
      <point x="960" y="1528" type="line"/>
      <point x="1490" y="0" type="line"/>
      <point x="990" y="0" type="line"/>
    </contour>
  </outline>
</glyph>
<glyph name="B" format="2">
	<advance width="1528"/>
	<unicode hex="0042"/>
	<anchor x="784" y="1500" name="top"/>
	<anchor x="746" y="0" name="bottom"/>
	<outline>
		<contour>
			<point x="28" y="0" type="line"/>
			<point x="850" y="0" type="line" smooth="yes"/>
			<point x="1232" y="0"/>
			<point x="1450" y="100"/>
			<point x="1450" y="380" type="curve" smooth="yes"/>
			<point x="1450" y="680"/>
			<point x="1192" y="780"/>
			<point x="850" y="780" type="curve" smooth="yes"/>
			<point x="550" y="780" type="line"/>
			<point x="550" y="732" type="line"/>
			<point x="750" y="732" type="line" smooth="yes"/>
			<point x="902" y="732"/>
			<point x="990" y="658"/>
			<point x="990" y="420" type="curve" smooth="yes"/>
			<point x="990" y="182"/>
			<point x="902" y="72"/>
			<point x="750" y="72" type="curve" smooth="yes"/>
			<point x="28" y="72" type="line"/>
		</contour>
		<contour>
			<point x="210" y="0" type="line"/>
			<point x="640" y="0" type="line"/>
			<point x="640" y="1500" type="line"/>
			<point x="210" y="1500" type="line"/>
		</contour>
		<contour>
			<point x="550" y="760" type="line"/>
			<point x="812" y="760" type="line" smooth="yes"/>
			<point x="1194" y="760"/>
			<point x="1392" y="890"/>
			<point x="1392" y="1130" type="curve" smooth="yes"/>
			<point x="1392" y="1390"/>
			<point x="1172" y="1500"/>
			<point x="812" y="1500" type="curve" smooth="yes"/>
			<point x="28" y="1500" type="line"/>
			<point x="28" y="1428" type="line"/>
			<point x="730" y="1428" type="line" smooth="yes"/>
			<point x="862" y="1428"/>
			<point x="950" y="1346"/>
			<point x="950" y="1108" type="curve" smooth="yes"/>
			<point x="950" y="870"/>
			<point x="862" y="808"/>
			<point x="730" y="808" type="curve" smooth="yes"/>
			<point x="550" y="808" type="line"/>
		</contour>
	</outline>
</glyph>
<glyph name="C" format="2">
	<advance width="1468"/>
	<unicode hex="0043"/>
	<anchor x="866" y="0" name="cedilla"/>
	<anchor x="866" y="0" name="bottom"/>
	<anchor x="840" y="1500" name="top"/>
	<outline>
		<contour>
			<point x="840" y="-20" type="curve" smooth="yes"/>
			<point x="1126" y="-20"/>
			<point x="1282" y="186"/>
			<point x="1392" y="472" type="curve"/>
			<point x="1316" y="472" type="line"/>
			<point x="1170" y="244"/>
			<point x="1114" y="72"/>
			<point x="860" y="72" type="curve" smooth="yes"/>
			<point x="612" y="72"/>
			<point x="550" y="386"/>
			<point x="550" y="750" type="curve" smooth="yes"/>
			<point x="550" y="1114"/>
			<point x="612" y="1428"/>
			<point x="860" y="1428" type="curve" smooth="yes"/>
			<point x="1052" y="1428"/>
			<point x="1150" y="1278"/>
			<point x="1296" y="1028" type="curve"/>
			<point x="1370" y="1028" type="line"/>
			<point x="1238" y="1314"/>
			<point x="1096" y="1520"/>
			<point x="840" y="1520" type="curve" smooth="yes"/>
			<point x="354" y="1520"/>
			<point x="80" y="1194"/>
			<point x="80" y="750" type="curve" smooth="yes"/>
			<point x="80" y="306"/>
			<point x="354" y="-20"/>
		</contour>
		<contour>
			<point x="1326" y="0" type="line"/>
			<point x="1392" y="0" type="line"/>
			<point x="1392" y="472" type="line"/>
			<point x="1302" y="348"/>
			<point x="1212" y="224"/>
			<point x="1120" y="100" type="curve"/>
		</contour>
		<contour>
			<point x="1370" y="1028" type="curve"/>
			<point x="1370" y="1500" type="line"/>
			<point x="1308" y="1500" type="line"/>
			<point x="1100" y="1400" type="line"/>
			<point x="1200" y="1274"/>
			<point x="1282" y="1152"/>
		</contour>
	</outline>
</glyph>
<glyph name="D" format="2">
	<advance width="1628"/>
	<unicode hex="0044"/>
	<anchor x="726" y="0" name="cedilla"/>
	<anchor x="726" y="0" name="bottom"/>
	<anchor x="744" y="1500" name="top"/>
	<outline>
		<contour>
			<point x="28" y="0" type="line"/>
			<point x="750" y="0" type="line" smooth="yes"/>
			<point x="1236" y="0"/>
			<point x="1550" y="284"/>
			<point x="1550" y="750" type="curve" smooth="yes"/>
			<point x="1550" y="1216"/>
			<point x="1256" y="1500"/>
			<point x="750" y="1500" type="curve" smooth="yes"/>
			<point x="28" y="1500" type="line"/>
			<point x="28" y="1428" type="line"/>
			<point x="750" y="1428" type="line" smooth="yes"/>
			<point x="978" y="1428"/>
			<point x="1080" y="1174"/>
			<point x="1080" y="750" type="curve" smooth="yes"/>
			<point x="1080" y="326"/>
			<point x="998" y="72"/>
			<point x="750" y="72" type="curve" smooth="yes"/>
			<point x="28" y="72" type="line"/>
		</contour>
		<contour>
			<point x="210" y="0" type="line"/>
			<point x="640" y="0" type="line"/>
			<point x="640" y="1500" type="line"/>
			<point x="210" y="1500" type="line"/>
		</contour>
	</outline>
</glyph>
<glyph name="E" format="2">
	<advance width="1338"/>
	<unicode hex="0045"/>
	<anchor x="1076" y="0" name="cedilla"/>
	<anchor x="706" y="0" name="bottom"/>
	<anchor x="704" y="1500" name="top"/>
	<outline>
		<contour>
			<point x="210" y="0" type="line"/>
			<point x="640" y="0" type="line"/>
			<point x="640" y="1500" type="line"/>
			<point x="210" y="1500" type="line"/>
		</contour>
		<contour>
			<point x="28" y="0" type="line"/>
			<point x="1280" y="0" type="line"/>
			<point x="1280" y="450" type="line"/>
			<point x="1208" y="450" type="line"/>
			<point x="1148" y="196"/>
			<point x="980" y="72"/>
			<point x="708" y="72" type="curve" smooth="yes"/>
			<point x="28" y="72" type="line"/>
		</contour>
		<contour>
			<point x="906" y="496" type="curve"/>
			<point x="980" y="496" type="line"/>
			<point x="980" y="1046" type="line"/>
			<point x="906" y="1046" type="line"/>
			<point x="846" y="912"/>
			<point x="740" y="812"/>
			<point x="628" y="812" type="curve" smooth="yes"/>
			<point x="508" y="812" type="line"/>
			<point x="508" y="740" type="line"/>
			<point x="628" y="740" type="line" smooth="yes"/>
			<point x="740" y="740"/>
			<point x="846" y="630"/>
		</contour>
		<contour>
			<point x="1188" y="1090" type="curve"/>
			<point x="1260" y="1090" type="line"/>
			<point x="1260" y="1500" type="line"/>
			<point x="28" y="1500" type="line"/>
			<point x="28" y="1428" type="line"/>
			<point x="728" y="1428" type="line" smooth="yes"/>
			<point x="962" y="1428"/>
			<point x="1128" y="1304"/>
		</contour>
	</outline>
</glyph>
<glyph name="H" format="2">
  <advance width="1698"/>
  <unicode hex="0048"/>
  <anchor x="411" y="0" name="cedilla"/>
  <anchor x="851" y="0" name="bottom"/>
  <anchor x="850" y="1500" name="top"/>
  <outline>
    <contour>
      <point x="600" y="776" type="line"/>
      <point x="1100" y="776" type="line"/>
      <point x="1100" y="704" type="line"/>
      <point x="600" y="704" type="line"/>
    </contour>
    <contour>
      <point x="900" y="72" type="line"/>
      <point x="1670" y="72" type="line"/>
      <point x="1670" y="0" type="line"/>
      <point x="900" y="0" type="line"/>
    </contour>
    <contour>
      <point x="28" y="72" type="line"/>
      <point x="800" y="72" type="line"/>
      <point x="800" y="0" type="line"/>
      <point x="28" y="0" type="line"/>
    </contour>
    <contour>
      <point x="900" y="1500" type="line"/>
      <point x="1670" y="1500" type="line"/>
      <point x="1670" y="1428" type="line"/>
      <point x="900" y="1428" type="line"/>
    </contour>
    <contour>
      <point x="28" y="1500" type="line"/>
      <point x="800" y="1500" type="line"/>
      <point x="800" y="1428" type="line"/>
      <point x="28" y="1428" type="line"/>
    </contour>
    <contour>
      <point x="1060" y="1500" type="line"/>
      <point x="1490" y="1500" type="line"/>
      <point x="1490" y="0" type="line"/>
      <point x="1060" y="0" type="line"/>
    </contour>
    <contour>
      <point x="210" y="1500" type="line"/>
      <point x="640" y="1500" type="line"/>
      <point x="640" y="0" type="line"/>
      <point x="210" y="0" type="line"/>
    </contour>
  </outline>
</glyph>
<glyph name="I" format="2">
	<advance width="948"/>
	<unicode hex="0049"/>
	<anchor x="466" y="0" name="cedilla"/>
	<anchor x="466" y="0" name="bottom"/>
	<anchor x="462" y="1500" name="top"/>
	<outline>
		<contour>
			<point x="250" y="0" type="line"/>
			<point x="680" y="0" type="line"/>
			<point x="680" y="1500" type="line"/>
			<point x="250" y="1500" type="line"/>
		</contour>
		<contour>
			<point x="28" y="0" type="line"/>
			<point x="920" y="0" type="line"/>
			<point x="920" y="72" type="line"/>
			<point x="28" y="72" type="line"/>
		</contour>
		<contour>
			<point x="28" y="1428" type="line"/>
			<point x="920" y="1428" type="line"/>
			<point x="920" y="1500" type="line"/>
			<point x="28" y="1500" type="line"/>
		</contour>
	</outline>
</glyph>
<glyph name="J" format="2">
	<advance width="1280"/>
	<unicode hex="004A"/>
	<anchor x="806" y="1500" name="top"/>
	<anchor x="438" y="0" name="bottom"/>
	<outline>
		<contour>
			<point x="468" y="-61" type="curve" smooth="yes"/>
			<point x="766" y="-61"/>
			<point x="938" y="99"/>
			<point x="1048" y="340" type="curve"/>
			<point x="1048" y="1500" type="line"/>
			<point x="619" y="1500" type="line"/>
			<point x="619" y="380" type="line" smooth="yes"/>
			<point x="619" y="101"/>
			<point x="582" y="14"/>
			<point x="409" y="14" type="curve" smooth="yes"/>
			<point x="280" y="14"/>
			<point x="93" y="89"/>
			<point x="91" y="250" type="curve"/>
			<point x="18" y="250" type="line"/>
			<point x="18" y="140"/>
			<point x="139" y="38"/>
			<point x="260" y="38" type="curve" smooth="yes"/>
			<point x="389" y="38"/>
			<point x="503" y="127"/>
			<point x="503" y="263" type="curve" smooth="yes"/>
			<point x="503" y="405"/>
			<point x="380" y="495"/>
			<point x="260" y="495" type="curve" smooth="yes"/>
			<point x="129" y="495"/>
			<point x="16" y="394"/>
			<point x="16" y="250" type="curve" smooth="yes"/>
			<point x="16" y="50"/>
			<point x="214" y="-61"/>
		</contour>
		<contour>
			<point x="359" y="1427" type="line"/>
			<point x="1248" y="1427" type="line"/>
			<point x="1248" y="1500" type="line"/>
			<point x="359" y="1500" type="line"/>
		</contour>
	</outline>
</glyph>
<glyph name="K" format="2">
  <advance width="1708"/>
  <unicode hex="004B"/>
  <anchor x="866" y="0" name="cedilla"/>
  <anchor x="866" y="0" name="bottom"/>
  <anchor x="884" y="1500" name="top"/>
  <outline>
    <contour>
      <point x="28" y="72" type="line"/>
      <point x="800" y="72" type="line"/>
      <point x="800" y="0" type="line"/>
      <point x="28" y="0" type="line"/>
    </contour>
    <contour>
      <point x="28" y="1500" type="line"/>
      <point x="840" y="1500" type="line"/>
      <point x="840" y="1428" type="line"/>
      <point x="28" y="1428" type="line"/>
    </contour>
    <contour>
      <point x="210" y="1500" type="line"/>
      <point x="640" y="1500" type="line"/>
      <point x="640" y="0" type="line"/>
      <point x="210" y="0" type="line"/>
    </contour>
    <contour>
      <point x="444" y="434" type="line"/>
      <point x="344" y="434" type="line"/>
      <point x="1372" y="1496" type="line"/>
      <point x="1472" y="1496" type="line"/>
    </contour>
    <contour>
      <point x="880" y="72" type="line"/>
      <point x="1700" y="72" type="line"/>
      <point x="1700" y="0" type="line"/>
      <point x="880" y="0" type="line"/>
    </contour>
    <contour>
      <point x="1608" y="1428" type="line"/>
      <point x="1130" y="1428" type="line"/>
      <point x="1130" y="1500" type="line"/>
      <point x="1608" y="1500" type="line"/>
    </contour>
    <contour>
      <point x="1544" y="0" type="line"/>
      <point x="1064" y="0" type="line"/>
      <point x="648" y="720" type="line"/>
      <point x="936" y="1024" type="line"/>
    </contour>
  </outline>
</glyph>
<glyph name="L" format="2">
	<advance width="1318"/>
	<unicode hex="004C"/>
	<anchor x="716" y="0" name="cedilla"/>
	<anchor x="716" y="0" name="bottom"/>
	<anchor x="414" y="1500" name="top"/>
	<outline>
		<contour>
			<point x="210" y="0" type="line"/>
			<point x="640" y="0" type="line"/>
			<point x="640" y="1500" type="line"/>
			<point x="210" y="1500" type="line"/>
		</contour>
		<contour>
			<point x="28" y="0" type="line"/>
			<point x="1280" y="0" type="line"/>
			<point x="1280" y="450" type="line"/>
			<point x="1208" y="450" type="line"/>
			<point x="1148" y="196"/>
			<point x="980" y="72"/>
			<point x="708" y="72" type="curve" smooth="yes"/>
			<point x="28" y="72" type="line"/>
		</contour>
		<contour>
			<point x="28" y="1428" type="line"/>
			<point x="820" y="1428" type="line"/>
			<point x="820" y="1500" type="line"/>
			<point x="28" y="1500" type="line"/>
		</contour>
	</outline>
</glyph>
<glyph name="N" format="2">
	<advance width="1634"/>
	<unicode hex="004E"/>
	<anchor x="814" y="1500" name="top"/>
	<anchor x="786" y="0" name="bottom"/>
	<outline>
		<contour>
			<point x="1292" y="-20" type="line"/>
			<point x="1396" y="-20" type="line"/>
			<point x="1396" y="1500" type="line"/>
			<point x="1320" y="1500" type="line"/>
			<point x="1320" y="714" type="line"/>
			<point x="772" y="1500" type="line"/>
			<point x="264" y="1500" type="line"/>
		</contour>
		<contour>
			<point x="28" y="0" type="line"/>
			<point x="548" y="0" type="line"/>
			<point x="548" y="72" type="line"/>
			<point x="28" y="72" type="line"/>
		</contour>
		<contour>
			<point x="240" y="0" type="line"/>
			<point x="316" y="0" type="line"/>
			<point x="316" y="1500" type="line"/>
			<point x="28" y="1500" type="line"/>
			<point x="28" y="1428" type="line"/>
			<point x="240" y="1428" type="line"/>
		</contour>
		<contour>
			<point x="1100" y="1428" type="line"/>
			<point x="1606" y="1428" type="line"/>
			<point x="1606" y="1500" type="line"/>
			<point x="1100" y="1500" type="line"/>
		</contour>
	</outline>
</glyph>
<glyph name="P" format="2">
  <advance width="1468"/>
  <unicode hex="0050"/>
  <anchor x="436" y="0" name="bottom"/>
  <anchor x="674" y="1500" name="top"/>
  <outline>
    <contour>
      <point x="210" y="1500" type="line"/>
      <point x="640" y="1500" type="line"/>
      <point x="640" y="0" type="line"/>
      <point x="210" y="0" type="line"/>
    </contour>
    <contour>
      <point x="28" y="72" type="line"/>
      <point x="820" y="72" type="line"/>
      <point x="820" y="0" type="line"/>
      <point x="28" y="0" type="line"/>
    </contour>
    <contour>
      <point x="820" y="628" type="curve" smooth="yes"/>
      <point x="500" y="628" type="line"/>
      <point x="500" y="700" type="line"/>
      <point x="740" y="700" type="line" smooth="yes"/>
      <point x="892" y="700"/>
      <point x="940" y="886"/>
      <point x="940" y="1064" type="curve" smooth="yes"/>
      <point x="940" y="1242"/>
      <point x="892" y="1428"/>
      <point x="740" y="1428" type="curve" smooth="yes"/>
      <point x="28" y="1428" type="line"/>
      <point x="28" y="1500" type="line"/>
      <point x="820" y="1500" type="line" smooth="yes"/>
      <point x="1222" y="1500"/>
      <point x="1400" y="1324"/>
      <point x="1400" y="1064" type="curve" smooth="yes"/>
      <point x="1400" y="804"/>
      <point x="1222" y="628"/>
    </contour>
  </outline>
</glyph>
<glyph name="P" format="2">
	<advance width="1468"/>
	<unicode hex="0050"/>
	<anchor x="674" y="1500" name="top"/>
	<anchor x="436" y="0" name="bottom"/>
	<outline>
		<contour>
			<point x="500" y="628" type="line"/>
			<point x="820" y="628" type="line" smooth="yes"/>
			<point x="1222" y="628"/>
			<point x="1400" y="804"/>
			<point x="1400" y="1064" type="curve" smooth="yes"/>
			<point x="1400" y="1324"/>
			<point x="1222" y="1500"/>
			<point x="820" y="1500" type="curve" smooth="yes"/>
			<point x="28" y="1500" type="line"/>
			<point x="28" y="1428" type="line"/>
			<point x="740" y="1428" type="line" smooth="yes"/>
			<point x="892" y="1428"/>
			<point x="940" y="1242"/>
			<point x="940" y="1064" type="curve" smooth="yes"/>
			<point x="940" y="886"/>
			<point x="892" y="700"/>
			<point x="740" y="700" type="curve" smooth="yes"/>
			<point x="500" y="700" type="line"/>
		</contour>
		<contour>
			<point x="28" y="0" type="line"/>
			<point x="820" y="0" type="line"/>
			<point x="820" y="72" type="line"/>
			<point x="28" y="72" type="line"/>
		</contour>
		<contour>
			<point x="210" y="0" type="line"/>
			<point x="640" y="0" type="line"/>
			<point x="640" y="1500" type="line"/>
			<point x="210" y="1500" type="line"/>
		</contour>
	</outline>
</glyph>
<glyph name="Q" format="2">
	<advance width="1598"/>
	<unicode hex="0051"/>
	<anchor x="801" y="1500" name="top"/>
	<outline>
		<contour>
			<point x="800" y="-20" type="curve" smooth="yes"/>
			<point x="1244" y="-20"/>
			<point x="1520" y="306"/>
			<point x="1520" y="750" type="curve" smooth="yes"/>
			<point x="1520" y="1194"/>
			<point x="1226" y="1520"/>
			<point x="800" y="1520" type="curve" smooth="yes"/>
			<point x="374" y="1520"/>
			<point x="80" y="1194"/>
			<point x="80" y="750" type="curve" smooth="yes"/>
			<point x="80" y="306"/>
			<point x="356" y="-20"/>
		</contour>
		<contour>
			<point x="1260" y="-500" type="curve"/>
			<point x="1260" y="-428" type="line"/>
			<point x="1032" y="-428"/>
			<point x="1028" y="-344"/>
			<point x="1028" y="20" type="curve"/>
			<point x="872" y="0"/>
			<point x="716" y="0"/>
			<point x="560" y="20" type="curve"/>
			<point x="560" y="-424"/>
			<point x="694" y="-500"/>
		</contour>
		<contour>
			<point x="800" y="48" type="curve" smooth="yes"/>
			<point x="592" y="48"/>
			<point x="550" y="286"/>
			<point x="550" y="750" type="curve" smooth="yes"/>
			<point x="550" y="1214"/>
			<point x="612" y="1452"/>
			<point x="800" y="1452" type="curve" smooth="yes"/>
			<point x="988" y="1452"/>
			<point x="1050" y="1214"/>
			<point x="1050" y="750" type="curve" smooth="yes"/>
			<point x="1050" y="286"/>
			<point x="1008" y="48"/>
		</contour>
	</outline>
</glyph>
<glyph name="R" format="2">
	<advance width="1578"/>
	<unicode hex="0052"/>
	<anchor x="414" y="0" name="cedilla"/>
	<anchor x="826" y="0" name="bottom"/>
	<anchor x="684" y="1500" name="top"/>
	<outline>
		<contour>
			<point x="392" y="764" type="line"/>
			<point x="770" y="764" type="line" smooth="yes"/>
			<point x="1152" y="764"/>
			<point x="1392" y="870"/>
			<point x="1392" y="1130" type="curve" smooth="yes"/>
			<point x="1392" y="1390"/>
			<point x="1130" y="1500"/>
			<point x="770" y="1500" type="curve" smooth="yes"/>
			<point x="28" y="1500" type="line"/>
			<point x="28" y="1428" type="line"/>
			<point x="670" y="1428" type="line" smooth="yes"/>
			<point x="862" y="1428"/>
			<point x="950" y="1388"/>
			<point x="950" y="1130" type="curve" smooth="yes"/>
			<point x="950" y="872"/>
			<point x="862" y="808"/>
			<point x="670" y="808" type="curve" smooth="yes"/>
			<point x="392" y="808" type="line"/>
		</contour>
		<contour>
			<point x="28" y="0" type="line"/>
			<point x="820" y="0" type="line"/>
			<point x="820" y="72" type="line"/>
			<point x="28" y="72" type="line"/>
		</contour>
		<contour>
			<point x="210" y="0" type="line"/>
			<point x="640" y="0" type="line"/>
			<point x="640" y="1500" type="line"/>
			<point x="210" y="1500" type="line"/>
		</contour>
		<contour>
			<point x="1260" y="-20" type="curve" smooth="yes"/>
			<point x="1412" y="-20"/>
			<point x="1528" y="10"/>
			<point x="1560" y="28" type="curve"/>
			<point x="1536" y="100" type="line"/>
			<point x="1508" y="88"/>
			<point x="1480" y="80"/>
			<point x="1438" y="80" type="curve" smooth="yes"/>
			<point x="1192" y="80"/>
			<point x="1586" y="770"/>
			<point x="960" y="770" type="curve" smooth="yes"/>
			<point x="392" y="770" type="line"/>
			<point x="392" y="732" type="line"/>
			<point x="680" y="732" type="line" smooth="yes"/>
			<point x="1172" y="732"/>
			<point x="634" y="-20"/>
		</contour>
	</outline>
</glyph>
<glyph name="S" format="2">
	<advance width="1268"/>
	<unicode hex="0053"/>
	<anchor x="631" y="0" name="cedilla"/>
	<anchor x="631" y="0" name="bottom"/>
	<anchor x="614" y="1500" name="top"/>
	<outline>
		<contour>
			<point x="650" y="-28" type="curve" smooth="yes"/>
			<point x="932" y="-28"/>
			<point x="1188" y="160"/>
			<point x="1188" y="460" type="curve" smooth="yes"/>
			<point x="1188" y="1060"/>
			<point x="380" y="978"/>
			<point x="380" y="1290" type="curve" smooth="yes"/>
			<point x="380" y="1398"/>
			<point x="472" y="1444"/>
			<point x="594" y="1444" type="curve" smooth="yes"/>
			<point x="802" y="1444"/>
			<point x="916" y="1266"/>
			<point x="1036" y="1028" type="curve"/>
			<point x="1108" y="1028" type="line"/>
			<point x="1028" y="1310"/>
			<point x="830" y="1520"/>
			<point x="574" y="1520" type="curve" smooth="yes"/>
			<point x="332" y="1520"/>
			<point x="100" y="1370"/>
			<point x="100" y="1090" type="curve" smooth="yes"/>
			<point x="100" y="450"/>
			<point x="910" y="600"/>
			<point x="910" y="250" type="curve" smooth="yes"/>
			<point x="910" y="122"/>
			<point x="792" y="44"/>
			<point x="630" y="44" type="curve" smooth="yes"/>
			<point x="372" y="44"/>
			<point x="252" y="312"/>
			<point x="152" y="510" type="curve"/>
			<point x="80" y="510" type="line"/>
			<point x="188" y="236"/>
			<point x="338" y="-28"/>
		</contour>
		<contour>
			<point x="80" y="-20" type="line"/>
			<point x="148" y="-20" type="line"/>
			<point x="354" y="88" type="line"/>
			<point x="272" y="220"/>
			<point x="180" y="362"/>
			<point x="80" y="510" type="curve"/>
		</contour>
		<contour>
			<point x="1108" y="1028" type="curve"/>
			<point x="1108" y="1520" type="line"/>
			<point x="1048" y="1520" type="line"/>
			<point x="850" y="1420" type="line"/>
			<point x="946" y="1284"/>
			<point x="1028" y="1156"/>
		</contour>
	</outline>
</glyph>
<glyph name="U" format="2">
	<advance width="1516"/>
	<unicode hex="0055"/>
	<anchor x="836" y="0" name="cedilla"/>
	<anchor x="836" y="0" name="bottom"/>
	<anchor x="864" y="1500" name="top"/>
	<outline>
		<contour>
			<point x="790" y="-28" type="curve" smooth="yes"/>
			<point x="1126" y="-28"/>
			<point x="1308" y="130"/>
			<point x="1308" y="460" type="curve" smooth="yes"/>
			<point x="1308" y="1500" type="line"/>
			<point x="1232" y="1500" type="line"/>
			<point x="1232" y="460" type="line" smooth="yes"/>
			<point x="1232" y="156"/>
			<point x="1078" y="72"/>
			<point x="910" y="72" type="curve" smooth="yes"/>
			<point x="682" y="72"/>
			<point x="640" y="216"/>
			<point x="640" y="480" type="curve" smooth="yes"/>
			<point x="640" y="1500" type="line"/>
			<point x="210" y="1500" type="line"/>
			<point x="210" y="460" type="line" smooth="yes"/>
			<point x="210" y="114"/>
			<point x="384" y="-28"/>
		</contour>
		<contour>
			<point x="28" y="1428" type="line"/>
			<point x="840" y="1428" type="line"/>
			<point x="840" y="1500" type="line"/>
			<point x="28" y="1500" type="line"/>
		</contour>
		<contour>
			<point x="1064" y="1428" type="line"/>
			<point x="1486" y="1428" type="line"/>
			<point x="1486" y="1500" type="line"/>
			<point x="1064" y="1500" type="line"/>
		</contour>
	</outline>
</glyph>
<glyph name="V" format="2">
  <advance width="1672"/>
  <unicode hex="0056"/>
  <anchor x="821" y="0" name="bottom"/>
  <anchor x="924" y="1500" name="top"/>
  <outline>
    <contour>
      <point x="1652" y="1428" type="line"/>
      <point x="1180" y="1428" type="line"/>
      <point x="1180" y="1500" type="line"/>
      <point x="1652" y="1500" type="line"/>
    </contour>
    <contour>
      <point x="880" y="1428" type="line"/>
      <point x="20" y="1428" type="line"/>
      <point x="20" y="1500" type="line"/>
      <point x="880" y="1500" type="line"/>
    </contour>
    <contour>
      <point x="1024" y="372" type="line"/>
      <point x="1422" y="1500" type="line"/>
      <point x="1506" y="1500" type="line"/>
      <point x="964" y="-28" type="line"/>
      <point x="688" y="-28" type="line"/>
      <point x="160" y="1500" type="line"/>
      <point x="660" y="1500" type="line"/>
    </contour>
  </outline>
</glyph>
<glyph name="V" format="2">
	<advance width="1672"/>
	<unicode hex="0056"/>
	<anchor x="924" y="1500" name="top"/>
	<anchor x="821" y="0" name="bottom"/>
	<outline>
		<contour>
			<point x="688" y="-28" type="line"/>
			<point x="964" y="-28" type="line"/>
			<point x="1506" y="1500" type="line"/>
			<point x="1422" y="1500" type="line"/>
			<point x="1024" y="372" type="line"/>
			<point x="660" y="1500" type="line"/>
			<point x="160" y="1500" type="line"/>
		</contour>
		<contour>
			<point x="20" y="1428" type="line"/>
			<point x="880" y="1428" type="line"/>
			<point x="880" y="1500" type="line"/>
			<point x="20" y="1500" type="line"/>
		</contour>
		<contour>
			<point x="1180" y="1428" type="line"/>
			<point x="1652" y="1428" type="line"/>
			<point x="1652" y="1500" type="line"/>
			<point x="1180" y="1500" type="line"/>
		</contour>
	</outline>
</glyph>
<glyph name="X" format="2">
  <advance width="1698"/>
  <unicode hex="0058"/>
  <anchor x="796" y="0" name="bottom"/>
  <anchor x="904" y="1500" name="top"/>
  <outline>
    <contour>
      <point x="914" y="754" type="line"/>
      <point x="824" y="754" type="line"/>
      <point x="1340" y="1496" type="line"/>
      <point x="1418" y="1496" type="line"/>
    </contour>
    <contour>
      <point x="264" y="0" type="line"/>
      <point x="176" y="0" type="line"/>
      <point x="770" y="834" type="line"/>
      <point x="856" y="834" type="line"/>
    </contour>
    <contour>
      <point x="880" y="72" type="line"/>
      <point x="1680" y="72" type="line"/>
      <point x="1680" y="0" type="line"/>
      <point x="880" y="0" type="line"/>
    </contour>
    <contour>
      <point x="20" y="72" type="line"/>
      <point x="500" y="72" type="line"/>
      <point x="500" y="0" type="line"/>
      <point x="20" y="0" type="line"/>
    </contour>
    <contour>
      <point x="892" y="1428" type="line"/>
      <point x="90" y="1428" type="line"/>
      <point x="90" y="1500" type="line"/>
      <point x="892" y="1500" type="line"/>
    </contour>
    <contour>
      <point x="1570" y="1428" type="line"/>
      <point x="1130" y="1428" type="line"/>
      <point x="1130" y="1500" type="line"/>
      <point x="1570" y="1500" type="line"/>
    </contour>
    <contour>
      <point x="1552" y="0" type="line"/>
      <point x="1072" y="0" type="line"/>
      <point x="210" y="1500" type="line"/>
      <point x="682" y="1500" type="line"/>
    </contour>
  </outline>
</glyph>
<glyph name="Y" format="2">
	<advance width="1528"/>
	<unicode hex="0059"/>
	<anchor x="854" y="1500" name="top"/>
	<anchor x="776" y="0" name="bottom"/>
	<outline>
		<contour>
			<point x="570" y="0" type="line"/>
			<point x="1000" y="0" type="line"/>
			<point x="1000" y="734" type="line"/>
			<point x="1398" y="1496" type="line"/>
			<point x="1314" y="1502" type="line"/>
			<point x="980" y="860" type="line"/>
			<point x="640" y="1500" type="line"/>
			<point x="140" y="1500" type="line"/>
			<point x="570" y="720" type="line"/>
		</contour>
		<contour>
			<point x="392" y="0" type="line"/>
			<point x="1200" y="0" type="line"/>
			<point x="1200" y="72" type="line"/>
			<point x="392" y="72" type="line"/>
		</contour>
		<contour>
			<point x="20" y="1428" type="line"/>
			<point x="840" y="1428" type="line"/>
			<point x="840" y="1500" type="line"/>
			<point x="20" y="1500" type="line"/>
		</contour>
		<contour>
			<point x="1090" y="1428" type="line"/>
			<point x="1510" y="1428" type="line"/>
			<point x="1510" y="1500" type="line"/>
			<point x="1090" y="1500" type="line"/>
		</contour>
	</outline>
</glyph>
<glyph name="Z" format="2">
	<advance width="1348"/>
	<unicode hex="005A"/>
	<anchor x="674" y="1500" name="top"/>
	<anchor x="626" y="0" name="bottom"/>
	<outline>
		<contour>
			<point x="20" y="0" type="line"/>
			<point x="1280" y="0" type="line"/>
			<point x="1280" y="440" type="line"/>
			<point x="1208" y="440" type="line"/>
			<point x="1128" y="186"/>
			<point x="1040" y="72"/>
			<point x="768" y="72" type="curve" smooth="yes"/>
			<point x="510" y="72" type="line"/>
			<point x="1260" y="1428" type="line"/>
			<point x="1260" y="1500" type="line"/>
			<point x="60" y="1500" type="line"/>
			<point x="60" y="1100" type="line"/>
			<point x="132" y="1100" type="line"/>
			<point x="212" y="1314"/>
			<point x="300" y="1428"/>
			<point x="572" y="1428" type="curve" smooth="yes"/>
			<point x="770" y="1428" type="line"/>
			<point x="20" y="72" type="line"/>
		</contour>
	</outline>
</glyph>
<glyph name="bracketleft" format="2">
	<advance width="768"/>
	<unicode hex="005B"/>
	<outline>
		<contour>
			<point x="108" y="-300" type="line"/>
			<point x="528" y="-300" type="line"/>
			<point x="528" y="1560" type="line"/>
			<point x="108" y="1560" type="line"/>
		</contour>
		<contour>
			<point x="108" y="-300" type="line"/>
			<point x="710" y="-300" type="line"/>
			<point x="710" y="-228" type="line"/>
			<point x="108" y="-228" type="line"/>
		</contour>
		<contour>
			<point x="108" y="1486" type="line"/>
			<point x="710" y="1486" type="line"/>
			<point x="710" y="1560" type="line"/>
			<point x="108" y="1560" type="line"/>
		</contour>
	</outline>
</glyph>
<glyph name="backslash" format="2">
	<advance width="1038"/>
	<unicode hex="005C"/>
	<outline>
		<contour>
			<point x="876" y="-300" type="line"/>
			<point x="960" y="-300" type="line"/>
			<point x="164" y="1560" type="line"/>
			<point x="80" y="1560" type="line"/>
		</contour>
	</outline>
</glyph>
<glyph name="asciicircum" format="2">
	<advance width="1088"/>
	<unicode hex="005E"/>
	<outline>
		<contour>
			<point x="242" y="1220" type="line"/>
			<point x="544" y="1444" type="line"/>
			<point x="850" y="1220" type="line"/>
			<point x="892" y="1260" type="line"/>
			<point x="608" y="1540" type="line"/>
			<point x="480" y="1540" type="line"/>
			<point x="200" y="1260" type="line"/>
		</contour>
	</outline>
</glyph>
<glyph name="grave" format="2">
	<advance width="848"/>
	<unicode hex="0060"/>
	<outline>
		<contour>
			<point x="300" y="1360" type="curve" smooth="yes"/>
			<point x="728" y="1424" type="line"/>
			<point x="736" y="1496" type="line"/>
			<point x="320" y="1656" type="line" smooth="yes"/>
			<point x="218" y="1696"/>
			<point x="108" y="1608"/>
			<point x="108" y="1510" type="curve" smooth="yes"/>
			<point x="108" y="1412"/>
			<point x="200" y="1344"/>
		</contour>
	</outline>
</glyph>
<glyph name="a" format="2">
	<advance width="1274"/>
	<unicode hex="0061"/>
	<anchor x="918" y="0" name="cedilla"/>
	<anchor x="601" y="0" name="bottom"/>
	<anchor x="511" y="920" name="top"/>
	<outline>
		<contour>
			<point x="943" y="-20" type="curve" smooth="yes"/>
			<point x="1099" y="-20"/>
			<point x="1230" y="31"/>
			<point x="1266" y="128" type="curve"/>
			<point x="1216" y="157" type="line"/>
			<point x="1192" y="114"/>
			<point x="1144" y="97"/>
			<point x="1113" y="97" type="curve" smooth="yes"/>
			<point x="1060" y="97"/>
			<point x="1049" y="136"/>
			<point x="1049" y="186" type="curve" smooth="yes"/>
			<point x="1049" y="609" type="line" smooth="yes"/>
			<point x="1049" y="821"/>
			<point x="868" y="936"/>
			<point x="533" y="936" type="curve" smooth="yes"/>
			<point x="351" y="936"/>
			<point x="137" y="886"/>
			<point x="137" y="712" type="curve" smooth="yes"/>
			<point x="137" y="610"/>
			<point x="225" y="542"/>
			<point x="346" y="542" type="curve" smooth="yes"/>
			<point x="461" y="542"/>
			<point x="560" y="606"/>
			<point x="560" y="716" type="curve" smooth="yes"/>
			<point x="560" y="824"/>
			<point x="463" y="882"/>
			<point x="346" y="882" type="curve" smooth="yes"/>
			<point x="233" y="882"/>
			<point x="139" y="810"/>
			<point x="139" y="712" type="curve"/>
			<point x="229" y="712" type="line"/>
			<point x="229" y="829"/>
			<point x="379" y="870"/>
			<point x="473" y="870" type="curve" smooth="yes"/>
			<point x="633" y="870"/>
			<point x="669" y="753"/>
			<point x="669" y="609" type="curve" smooth="yes"/>
			<point x="669" y="160" type="line" smooth="yes"/>
			<point x="669" y="42"/>
			<point x="779" y="-20"/>
		</contour>
		<contour>
			<point x="352" y="-20" type="curve" smooth="yes"/>
			<point x="555" y="-20"/>
			<point x="719" y="132"/>
			<point x="719" y="361" type="curve"/>
			<point x="669" y="361" type="line"/>
			<point x="669" y="198"/>
			<point x="602" y="155"/>
			<point x="548" y="155" type="curve" smooth="yes"/>
			<point x="503" y="155"/>
			<point x="471" y="196"/>
			<point x="471" y="286" type="curve" smooth="yes"/>
			<point x="471" y="375"/>
			<point x="509" y="461"/>
			<point x="635" y="461" type="curve" smooth="yes"/>
			<point x="762" y="461" type="line"/>
			<point x="762" y="523" type="line"/>
			<point x="515" y="523" type="line" smooth="yes"/>
			<point x="231" y="523"/>
			<point x="67" y="405"/>
			<point x="67" y="227" type="curve" smooth="yes"/>
			<point x="67" y="75"/>
			<point x="179" y="-20"/>
		</contour>
	</outline>
</glyph>
<glyph name="b" format="2">
  <advance width="1344"/>
  <unicode hex="0062"/>
  <anchor x="676" y="0" name="bottom"/>
  <anchor x="886" y="920" name="top"/>
  <outline>
    <contour>
      <point x="486" y="460" type="curve" smooth="yes"/>
      <point x="486" y="764"/>
      <point x="636" y="938"/>
      <point x="860" y="938" type="curve" smooth="yes"/>
      <point x="1078" y="938"/>
      <point x="1286" y="760"/>
      <point x="1286" y="460" type="curve" smooth="yes"/>
      <point x="1286" y="160"/>
      <point x="1078" y="-20"/>
      <point x="860" y="-20" type="curve" smooth="yes"/>
      <point x="636" y="-20"/>
      <point x="486" y="156"/>
    </contour>
    <contour>
      <point x="550" y="460" type="curve" smooth="yes"/>
      <point x="550" y="222"/>
      <point x="672" y="92"/>
      <point x="748" y="92" type="curve" smooth="yes"/>
      <point x="816" y="92"/>
      <point x="856" y="168"/>
      <point x="856" y="460" type="curve" smooth="yes"/>
      <point x="856" y="752"/>
      <point x="816" y="824"/>
      <point x="748" y="824" type="curve" smooth="yes"/>
      <point x="672" y="824"/>
      <point x="550" y="692"/>
    </contour>
    <contour>
      <point x="170" y="1428" type="line"/>
      <point x="28" y="1428" type="line"/>
      <point x="28" y="1500" type="line"/>
      <point x="550" y="1500" type="line"/>
      <point x="550" y="0" type="line"/>
      <point x="28" y="0" type="line"/>
      <point x="28" y="72" type="line"/>
      <point x="170" y="72" type="line"/>
    </contour>
  </outline>
</glyph>
<glyph name="c" format="2">
	<advance width="1100"/>
	<unicode hex="0063"/>
	<anchor x="566" y="0" name="cedilla"/>
	<anchor x="566" y="0" name="bottom"/>
	<anchor x="576" y="920" name="top"/>
	<outline>
		<contour>
			<point x="578" y="-20" type="curve" smooth="yes"/>
			<point x="830" y="-20"/>
			<point x="966" y="98"/>
			<point x="1018" y="287" type="curve"/>
			<point x="941" y="287" type="line"/>
			<point x="906" y="185"/>
			<point x="847" y="84"/>
			<point x="702" y="84" type="curve" smooth="yes"/>
			<point x="549" y="84"/>
			<point x="512" y="231"/>
			<point x="512" y="460" type="curve" smooth="yes"/>
			<point x="512" y="648"/>
			<point x="522" y="865"/>
			<point x="675" y="865" type="curve" smooth="yes"/>
			<point x="774" y="865"/>
			<point x="951" y="776"/>
			<point x="951" y="656" type="curve"/>
			<point x="1024" y="656" type="line"/>
			<point x="1024" y="776"/>
			<point x="925" y="847"/>
			<point x="818" y="847" type="curve" smooth="yes"/>
			<point x="707" y="847"/>
			<point x="604" y="774"/>
			<point x="604" y="654" type="curve" smooth="yes"/>
			<point x="604" y="524"/>
			<point x="718" y="457"/>
			<point x="818" y="457" type="curve" smooth="yes"/>
			<point x="929" y="457"/>
			<point x="1026" y="534"/>
			<point x="1026" y="656" type="curve" smooth="yes"/>
			<point x="1026" y="816"/>
			<point x="838" y="939"/>
			<point x="574" y="939" type="curve" smooth="yes"/>
			<point x="252" y="939"/>
			<point x="61" y="770"/>
			<point x="61" y="460" type="curve" smooth="yes"/>
			<point x="61" y="110"/>
			<point x="296" y="-20"/>
		</contour>
	</outline>
</glyph>
<glyph name="e" format="2">
	<advance width="1094"/>
	<unicode hex="0065"/>
	<anchor x="753" y="31" name="cedilla"/>
	<anchor x="576" y="0" name="bottom"/>
	<anchor x="570" y="920" name="top"/>
	<outline>
		<contour>
			<point x="576" y="-20" type="curve" smooth="yes"/>
			<point x="838" y="-20"/>
			<point x="984" y="112"/>
			<point x="1036" y="286" type="curve"/>
			<point x="964" y="286" type="line"/>
			<point x="914" y="158"/>
			<point x="806" y="64"/>
			<point x="660" y="64" type="curve" smooth="yes"/>
			<point x="502" y="64"/>
			<point x="472" y="212"/>
			<point x="472" y="500" type="curve" smooth="yes"/>
			<point x="472" y="728"/>
			<point x="492" y="868"/>
			<point x="570" y="868" type="curve" smooth="yes"/>
			<point x="648" y="868"/>
			<point x="650" y="752"/>
			<point x="652" y="576" type="curve"/>
			<point x="192" y="576" type="line"/>
			<point x="192" y="502" type="line"/>
			<point x="1034" y="502" type="line"/>
			<point x="1034" y="720"/>
			<point x="868" y="940"/>
			<point x="570" y="940" type="curve" smooth="yes"/>
			<point x="268" y="940"/>
			<point x="60" y="780"/>
			<point x="60" y="460" type="curve" smooth="yes"/>
			<point x="60" y="140"/>
			<point x="274" y="-20"/>
		</contour>
	</outline>
</glyph>
<glyph name="f" format="2">
  <advance width="860"/>
  <unicode hex="0066"/>
  <anchor x="386" y="0" name="bottom"/>
  <anchor x="766" y="1497" name="top"/>
  <outline>
    <contour>
      <point x="22" y="73" type="line"/>
      <point x="802" y="73" type="line"/>
      <point x="802" y="0" type="line"/>
      <point x="22" y="0" type="line"/>
    </contour>
    <contour>
      <point x="22" y="920" type="line"/>
      <point x="842" y="920" type="line"/>
      <point x="842" y="847" type="line"/>
      <point x="22" y="847" type="line"/>
    </contour>
    <contour>
      <point x="1007" y="1262" type="line"/>
      <point x="1007" y="1364"/>
      <point x="926" y="1447"/>
      <point x="806" y="1447" type="curve" smooth="yes"/>
      <point x="636" y="1447"/>
      <point x="562" y="1334"/>
      <point x="562" y="1080" type="curve" smooth="yes"/>
      <point x="562" y="0" type="line"/>
      <point x="202" y="0" type="line"/>
      <point x="202" y="1023" type="line" smooth="yes"/>
      <point x="202" y="1325"/>
      <point x="446" y="1520"/>
      <point x="776" y="1520" type="curve" smooth="yes"/>
      <point x="968" y="1520"/>
      <point x="1082" y="1376"/>
      <point x="1082" y="1262" type="curve" smooth="yes"/>
      <point x="1082" y="1130"/>
      <point x="978" y="1058"/>
      <point x="877" y="1058" type="curve" smooth="yes"/>
      <point x="787" y="1058"/>
      <point x="676" y="1117"/>
      <point x="676" y="1247" type="curve" smooth="yes"/>
      <point x="676" y="1367"/>
      <point x="767" y="1438"/>
      <point x="867" y="1438" type="curve" smooth="yes"/>
      <point x="971" y="1438"/>
      <point x="1080" y="1372"/>
      <point x="1080" y="1262" type="curve"/>
    </contour>
  </outline>
</glyph>
<glyph name="g" format="2">
	<advance width="1400"/>
	<unicode hex="0067"/>
	<anchor x="546" y="-500" name="cedilla"/>
	<anchor x="545" y="-500" name="bottom"/>
	<anchor x="590" y="920" name="top"/>
	<outline>
		<contour>
			<point x="536" y="-520" type="curve" smooth="yes"/>
			<point x="840" y="-520"/>
			<point x="1079" y="-431"/>
			<point x="1079" y="-164" type="curve" smooth="yes"/>
			<point x="1079" y="107"/>
			<point x="866" y="201"/>
			<point x="716" y="201" type="curve" smooth="yes"/>
			<point x="659" y="201"/>
			<point x="586" y="199"/>
			<point x="516" y="199" type="curve" smooth="yes"/>
			<point x="407" y="199"/>
			<point x="347" y="213"/>
			<point x="347" y="252" type="curve" smooth="yes"/>
			<point x="347" y="290"/>
			<point x="465" y="336"/>
			<point x="531" y="336" type="curve"/>
			<point x="535" y="357" type="line"/>
			<point x="346" y="357"/>
			<point x="96" y="316"/>
			<point x="96" y="128" type="curve" smooth="yes"/>
			<point x="96" y="-26"/>
			<point x="243" y="-118"/>
			<point x="473" y="-118" type="curve" smooth="yes"/>
			<point x="517" y="-118"/>
			<point x="648" y="-118"/>
			<point x="690" y="-118" type="curve" smooth="yes"/>
			<point x="820" y="-118"/>
			<point x="886" y="-166"/>
			<point x="886" y="-273" type="curve" smooth="yes"/>
			<point x="886" y="-397"/>
			<point x="760" y="-441"/>
			<point x="612" y="-441" type="curve" smooth="yes"/>
			<point x="421" y="-441"/>
			<point x="322" y="-356"/>
			<point x="322" y="-219" type="curve" smooth="yes"/>
			<point x="322" y="-145"/>
			<point x="346" y="-119"/>
			<point x="376" y="-94" type="curve"/>
			<point x="322" y="-94" type="line" smooth="yes"/>
			<point x="232" y="-94"/>
			<point x="32" y="-108"/>
			<point x="32" y="-260" type="curve" smooth="yes"/>
			<point x="32" y="-449"/>
			<point x="286" y="-520"/>
		</contour>
		<contour>
			<point x="540" y="320" type="curve" smooth="yes"/>
			<point x="752" y="320"/>
			<point x="998" y="409"/>
			<point x="998" y="630" type="curve" smooth="yes"/>
			<point x="998" y="851"/>
			<point x="752" y="939"/>
			<point x="540" y="939" type="curve" smooth="yes"/>
			<point x="328" y="939"/>
			<point x="82" y="851"/>
			<point x="82" y="630" type="curve" smooth="yes"/>
			<point x="82" y="409"/>
			<point x="328" y="320"/>
		</contour>
		<contour>
			<point x="540" y="393" type="curve" smooth="yes"/>
			<point x="482" y="393"/>
			<point x="472" y="472"/>
			<point x="472" y="630" type="curve" smooth="yes"/>
			<point x="472" y="808"/>
			<point x="492" y="867"/>
			<point x="540" y="867" type="curve" smooth="yes"/>
			<point x="588" y="867"/>
			<point x="608" y="808"/>
			<point x="608" y="630" type="curve" smooth="yes"/>
			<point x="608" y="472"/>
			<point x="588" y="393"/>
		</contour>
		<contour>
			<point x="1224" y="569" type="curve" smooth="yes"/>
			<point x="1304" y="569"/>
			<point x="1380" y="614"/>
			<point x="1380" y="729" type="curve" smooth="yes"/>
			<point x="1380" y="825"/>
			<point x="1301" y="930"/>
			<point x="1143" y="930" type="curve" smooth="yes"/>
			<point x="1043" y="930"/>
			<point x="929" y="877"/>
			<point x="889" y="709" type="curve"/>
			<point x="941" y="670" type="line"/>
			<point x="981" y="829"/>
			<point x="1085" y="859"/>
			<point x="1149" y="859" type="curve" smooth="yes"/>
			<point x="1229" y="859"/>
			<point x="1305" y="809"/>
			<point x="1305" y="729" type="curve"/>
			<point x="1378" y="729" type="line"/>
			<point x="1378" y="814"/>
			<point x="1293" y="863"/>
			<point x="1224" y="863" type="curve" smooth="yes"/>
			<point x="1146" y="863"/>
			<point x="1073" y="817"/>
			<point x="1073" y="720" type="curve" smooth="yes"/>
			<point x="1073" y="624"/>
			<point x="1144" y="569"/>
		</contour>
	</outline>
</glyph>
<glyph name="i" format="2">
	<advance width="710"/>
	<unicode hex="0069"/>
	<anchor x="376" y="0" name="cedilla"/>
	<anchor x="376" y="0" name="bottom"/>
	<outline>
		<contour>
			<point x="180" y="0" type="line"/>
			<point x="560" y="0" type="line"/>
			<point x="560" y="920" type="line"/>
			<point x="40" y="920" type="line"/>
			<point x="40" y="848" type="line"/>
			<point x="180" y="848" type="line"/>
		</contour>
		<contour>
			<point x="40" y="0" type="line"/>
			<point x="700" y="0" type="line"/>
			<point x="700" y="72" type="line"/>
			<point x="40" y="72" type="line"/>
		</contour>
		<contour>
			<point x="350" y="1080" type="curve" smooth="yes"/>
			<point x="476" y="1080"/>
			<point x="570" y="1174"/>
			<point x="570" y="1300" type="curve" smooth="yes"/>
			<point x="570" y="1426"/>
			<point x="476" y="1520"/>
			<point x="350" y="1520" type="curve" smooth="yes"/>
			<point x="224" y="1520"/>
			<point x="130" y="1426"/>
			<point x="130" y="1300" type="curve" smooth="yes"/>
			<point x="130" y="1174"/>
			<point x="224" y="1080"/>
		</contour>
	</outline>
</glyph>
<glyph name="j" format="2">
  <advance width="730"/>
  <unicode hex="006A"/>
  <anchor x="26" y="-500" name="bottom"/>
  <outline>
    <contour>
      <point x="165" y="1300" type="curve" smooth="yes"/>
      <point x="165" y="1426"/>
      <point x="259" y="1520"/>
      <point x="385" y="1520" type="curve" smooth="yes"/>
      <point x="511" y="1520"/>
      <point x="605" y="1426"/>
      <point x="605" y="1300" type="curve" smooth="yes"/>
      <point x="605" y="1174"/>
      <point x="511" y="1080"/>
      <point x="385" y="1080" type="curve" smooth="yes"/>
      <point x="259" y="1080"/>
      <point x="165" y="1174"/>
    </contour>
    <contour>
      <point x="591" y="920" type="line"/>
      <point x="591" y="-23" type="line" smooth="yes"/>
      <point x="591" y="-285"/>
      <point x="288" y="-520"/>
      <point x="28" y="-520" type="curve" smooth="yes"/>
      <point x="-164" y="-520"/>
      <point x="-328" y="-415"/>
      <point x="-328" y="-262" type="curve" smooth="yes"/>
      <point x="-328" y="-150"/>
      <point x="-235" y="-58"/>
      <point x="-114" y="-58" type="curve" smooth="yes"/>
      <point x="-4" y="-58"/>
      <point x="97" y="-146"/>
      <point x="97" y="-256" type="curve" smooth="yes"/>
      <point x="97" y="-367"/>
      <point x="17" y="-445"/>
      <point x="-110" y="-445" type="curve" smooth="yes"/>
      <point x="-228" y="-445"/>
      <point x="-326" y="-342"/>
      <point x="-326" y="-262" type="curve"/>
      <point x="-253" y="-262" type="line"/>
      <point x="-253" y="-372"/>
      <point x="-92" y="-451"/>
      <point x="7" y="-451" type="curve" smooth="yes"/>
      <point x="207" y="-451"/>
      <point x="212" y="-214"/>
      <point x="212" y="40" type="curve" smooth="yes"/>
      <point x="212" y="847" type="line"/>
      <point x="32" y="847" type="line"/>
      <point x="32" y="920" type="line"/>
    </contour>
  </outline>
</glyph>
<glyph name="l" format="2">
	<advance width="798"/>
	<unicode hex="006C"/>
	<anchor x="406" y="0" name="cedilla"/>
	<anchor x="406" y="0" name="bottom"/>
	<anchor x="404" y="1500" name="top"/>
	<outline>
		<contour>
			<point x="210" y="0" type="line"/>
			<point x="590" y="0" type="line"/>
			<point x="590" y="1500" type="line"/>
			<point x="28" y="1500" type="line"/>
			<point x="28" y="1428" type="line"/>
			<point x="210" y="1428" type="line"/>
		</contour>
		<contour>
			<point x="28" y="0" type="line"/>
			<point x="770" y="0" type="line"/>
			<point x="770" y="72" type="line"/>
			<point x="28" y="72" type="line"/>
		</contour>
	</outline>
</glyph>
<glyph name="m" format="2">
	<advance width="1858"/>
	<unicode hex="006D"/>
	<anchor x="946" y="920" name="top"/>
	<anchor x="926" y="0" name="bottom"/>
	<outline>
		<contour>
			<point x="740" y="0" type="line"/>
			<point x="1120" y="0" type="line"/>
			<point x="1120" y="640" type="line" smooth="yes"/>
			<point x="1120" y="814"/>
			<point x="1044" y="940"/>
			<point x="852" y="940" type="curve" smooth="yes"/>
			<point x="566" y="940"/>
			<point x="500" y="648"/>
			<point x="500" y="444" type="curve"/>
			<point x="550" y="444" type="line"/>
			<point x="550" y="650"/>
			<point x="632" y="796"/>
			<point x="698" y="796" type="curve" smooth="yes"/>
			<point x="738" y="796"/>
			<point x="740" y="752"/>
			<point x="740" y="584" type="curve" smooth="yes"/>
		</contour>
		<contour>
			<point x="28" y="0" type="line"/>
			<point x="620" y="0" type="line"/>
			<point x="620" y="72" type="line"/>
			<point x="28" y="72" type="line"/>
		</contour>
		<contour>
			<point x="170" y="0" type="line"/>
			<point x="550" y="0" type="line"/>
			<point x="550" y="920" type="line"/>
			<point x="28" y="920" type="line"/>
			<point x="28" y="848" type="line"/>
			<point x="170" y="848" type="line"/>
		</contour>
		<contour>
			<point x="670" y="0" type="line"/>
			<point x="1188" y="0" type="line"/>
			<point x="1188" y="72" type="line"/>
			<point x="670" y="72" type="line"/>
		</contour>
		<contour>
			<point x="1240" y="0" type="line"/>
			<point x="1830" y="0" type="line"/>
			<point x="1830" y="72" type="line"/>
			<point x="1240" y="72" type="line"/>
		</contour>
		<contour>
			<point x="1312" y="0" type="line"/>
			<point x="1688" y="0" type="line"/>
			<point x="1688" y="640" type="line" smooth="yes"/>
			<point x="1688" y="814"/>
			<point x="1612" y="940"/>
			<point x="1420" y="940" type="curve" smooth="yes"/>
			<point x="1122" y="940"/>
			<point x="1074" y="648"/>
			<point x="1074" y="444" type="curve"/>
			<point x="1120" y="444" type="line"/>
			<point x="1120" y="650"/>
			<point x="1202" y="796"/>
			<point x="1268" y="796" type="curve" smooth="yes"/>
			<point x="1310" y="796"/>
			<point x="1312" y="752"/>
			<point x="1312" y="584" type="curve" smooth="yes"/>
		</contour>
	</outline>
</glyph>
<glyph name="n" format="2">
	<advance width="1328"/>
	<unicode hex="006E"/>
	<anchor x="347" y="0" name="cedilla"/>
	<anchor x="666" y="0" name="bottom"/>
	<anchor x="656" y="920" name="top"/>
	<outline>
		<contour>
			<point x="780" y="0" type="line"/>
			<point x="1160" y="0" type="line"/>
			<point x="1160" y="640" type="line" smooth="yes"/>
			<point x="1160" y="814"/>
			<point x="1088" y="940"/>
			<point x="860" y="940" type="curve" smooth="yes"/>
			<point x="574" y="940"/>
			<point x="486" y="648"/>
			<point x="486" y="444" type="curve"/>
			<point x="550" y="444" type="line"/>
			<point x="550" y="650"/>
			<point x="646" y="776"/>
			<point x="708" y="776" type="curve" smooth="yes"/>
			<point x="764" y="776"/>
			<point x="780" y="752"/>
			<point x="780" y="584" type="curve" smooth="yes"/>
		</contour>
		<contour>
			<point x="28" y="0" type="line"/>
			<point x="630" y="0" type="line"/>
			<point x="630" y="72" type="line"/>
			<point x="28" y="72" type="line"/>
		</contour>
		<contour>
			<point x="170" y="0" type="line"/>
			<point x="550" y="0" type="line"/>
			<point x="550" y="920" type="line"/>
			<point x="28" y="920" type="line"/>
			<point x="28" y="848" type="line"/>
			<point x="170" y="848" type="line"/>
		</contour>
		<contour>
			<point x="700" y="0" type="line"/>
			<point x="1300" y="0" type="line"/>
			<point x="1300" y="72" type="line"/>
			<point x="700" y="72" type="line"/>
		</contour>
	</outline>
</glyph>
<glyph name="o" format="2">
	<advance width="1154"/>
	<unicode hex="006F"/>
	<anchor x="578" y="920" name="top"/>
	<anchor x="579" y="0" name="bottom"/>
	<outline>
		<contour>
			<point x="578" y="-20" type="curve" smooth="yes"/>
			<point x="900" y="-20"/>
			<point x="1096" y="200"/>
			<point x="1096" y="460" type="curve" smooth="yes"/>
			<point x="1096" y="720"/>
			<point x="900" y="940"/>
			<point x="578" y="940" type="curve" smooth="yes"/>
			<point x="256" y="940"/>
			<point x="60" y="720"/>
			<point x="60" y="460" type="curve" smooth="yes"/>
			<point x="60" y="200"/>
			<point x="256" y="-20"/>
		</contour>
		<contour>
			<point x="578" y="52" type="curve" smooth="yes"/>
			<point x="500" y="52"/>
			<point x="450" y="172"/>
			<point x="450" y="460" type="curve" smooth="yes"/>
			<point x="450" y="748"/>
			<point x="500" y="868"/>
			<point x="578" y="868" type="curve" smooth="yes"/>
			<point x="656" y="868"/>
			<point x="706" y="748"/>
			<point x="706" y="460" type="curve" smooth="yes"/>
			<point x="706" y="172"/>
			<point x="656" y="52"/>
		</contour>
	</outline>
</glyph>
<glyph name="q" format="2">
	<advance width="1344"/>
	<unicode hex="0071"/>
	<anchor x="516" y="920" name="top"/>
	<anchor x="426" y="0" name="bottom"/>
	<outline>
		<contour>
			<point x="484" y="-18" type="curve" smooth="yes"/>
			<point x="708" y="-18"/>
			<point x="860" y="156"/>
			<point x="860" y="460" type="curve" smooth="yes"/>
			<point x="860" y="764"/>
			<point x="708" y="940"/>
			<point x="484" y="940" type="curve" smooth="yes"/>
			<point x="266" y="940"/>
			<point x="60" y="760"/>
			<point x="60" y="460" type="curve" smooth="yes"/>
			<point x="60" y="160"/>
			<point x="266" y="-18"/>
		</contour>
		<contour>
			<point x="656" y="-500" type="line"/>
			<point x="1316" y="-500" type="line"/>
			<point x="1316" y="-428" type="line"/>
			<point x="656" y="-428" type="line"/>
		</contour>
		<contour>
			<point x="600" y="96" type="curve" smooth="yes"/>
			<point x="532" y="96"/>
			<point x="490" y="168"/>
			<point x="490" y="460" type="curve" smooth="yes"/>
			<point x="490" y="752"/>
			<point x="532" y="828"/>
			<point x="600" y="828" type="curve" smooth="yes"/>
			<point x="676" y="828"/>
			<point x="796" y="698"/>
			<point x="796" y="460" type="curve" smooth="yes"/>
			<point x="796" y="228"/>
			<point x="676" y="96"/>
		</contour>
		<contour>
			<point x="796" y="-500" type="line"/>
			<point x="1176" y="-500" type="line"/>
			<point x="1176" y="848" type="line"/>
			<point x="1316" y="848" type="line"/>
			<point x="1316" y="920" type="line"/>
			<point x="796" y="920" type="line"/>
		</contour>
	</outline>
</glyph>
<glyph name="r" format="2">
	<advance width="1092"/>
	<unicode hex="0072"/>
	<anchor x="368" y="0" name="cedilla"/>
	<anchor x="366" y="0" name="bottom"/>
	<anchor x="596" y="920" name="top"/>
	<outline>
		<contour>
			<point x="170" y="0" type="line"/>
			<point x="550" y="0" type="line"/>
			<point x="550" y="920" type="line"/>
			<point x="28" y="920" type="line"/>
			<point x="28" y="847" type="line"/>
			<point x="170" y="847" type="line"/>
		</contour>
		<contour>
			<point x="28" y="0" type="line"/>
			<point x="714" y="0" type="line"/>
			<point x="714" y="73" type="line"/>
			<point x="28" y="73" type="line"/>
		</contour>
		<contour>
			<point x="509" y="412" type="curve"/>
			<point x="550" y="412" type="line"/>
			<point x="550" y="698"/>
			<point x="692.756" y="864"/>
			<point x="818" y="864" type="curve" smooth="yes"/>
			<point x="941" y="864"/>
			<point x="1007" y="778"/>
			<point x="1007" y="678" type="curve"/>
			<point x="1082" y="678" type="line"/>
			<point x="1082" y="778"/>
			<point x="994" y="879"/>
			<point x="867" y="879" type="curve" smooth="yes"/>
			<point x="726.85" y="879"/>
			<point x="651" y="780"/>
			<point x="651" y="661" type="curve" smooth="yes"/>
			<point x="651" y="551"/>
			<point x="742" y="456"/>
			<point x="868" y="456" type="curve" smooth="yes"/>
			<point x="994" y="456"/>
			<point x="1084" y="560"/>
			<point x="1084" y="678" type="curve" smooth="yes"/>
			<point x="1084" y="806"/>
			<point x="999" y="939"/>
			<point x="828" y="939" type="curve" smooth="yes"/>
			<point x="601" y="939"/>
			<point x="509" y="712"/>
		</contour>
	</outline>
</glyph>
<glyph name="s" format="2">
	<advance width="938"/>
	<unicode hex="0073"/>
	<anchor x="508" y="0" name="cedilla"/>
	<anchor x="506" y="0" name="bottom"/>
	<anchor x="456" y="920" name="top"/>
	<outline>
		<contour>
			<point x="508" y="-20" type="curve" smooth="yes"/>
			<point x="682" y="-20"/>
			<point x="892" y="66"/>
			<point x="892" y="304" type="curve" smooth="yes"/>
			<point x="892" y="700"/>
			<point x="296" y="632"/>
			<point x="296" y="772" type="curve" smooth="yes"/>
			<point x="296" y="828"/>
			<point x="380" y="860"/>
			<point x="436" y="860" type="curve" smooth="yes"/>
			<point x="598" y="860"/>
			<point x="672" y="764"/>
			<point x="752" y="660" type="curve"/>
			<point x="814" y="660" type="line"/>
			<point x="734" y="792"/>
			<point x="630" y="938"/>
			<point x="434" y="938" type="curve" smooth="yes"/>
			<point x="246" y="938"/>
			<point x="94" y="818"/>
			<point x="94" y="630" type="curve" smooth="yes"/>
			<point x="94" y="218"/>
			<point x="680" y="274"/>
			<point x="680" y="140" type="curve" smooth="yes"/>
			<point x="680" y="82"/>
			<point x="588" y="56"/>
			<point x="488" y="56" type="curve" smooth="yes"/>
			<point x="344" y="56"/>
			<point x="244" y="134"/>
			<point x="144" y="320" type="curve"/>
			<point x="80" y="320" type="line"/>
			<point x="170" y="104"/>
			<point x="300" y="-20"/>
		</contour>
		<contour>
			<point x="70" y="-20" type="line"/>
			<point x="132" y="-20" type="line"/>
			<point x="244" y="88" type="line"/>
			<point x="192" y="140"/>
			<point x="152" y="198"/>
			<point x="108" y="254" type="curve"/>
			<point x="118" y="280"/>
			<point x="132" y="300"/>
			<point x="144" y="320" type="curve"/>
			<point x="70" y="320" type="line"/>
		</contour>
		<contour>
			<point x="752" y="660" type="curve"/>
			<point x="824" y="660" type="line"/>
			<point x="824" y="940" type="line"/>
			<point x="760" y="940" type="line"/>
			<point x="650" y="852" type="line"/>
			<point x="690" y="802"/>
			<point x="702" y="772"/>
			<point x="776" y="700" type="curve"/>
			<point x="776" y="684"/>
			<point x="772" y="672"/>
		</contour>
	</outline>
</glyph>
<glyph name="t" format="2">
  <advance width="808"/>
  <unicode hex="0074"/>
  <anchor x="438" y="0" name="cedilla"/>
  <anchor x="440" y="0" name="bottom"/>
  <anchor x="346" y="1120" name="top"/>
  <outline>
    <contour>
      <point x="10" y="920" type="line"/>
      <point x="750" y="920" type="line"/>
      <point x="750" y="848" type="line"/>
      <point x="10" y="848" type="line"/>
    </contour>
    <contour>
      <point x="812" y="204" type="line"/>
      <point x="764" y="76"/>
      <point x="640" y="-14"/>
      <point x="438" y="-14" type="curve" smooth="yes"/>
      <point x="214" y="-14"/>
      <point x="156" y="72"/>
      <point x="156" y="242" type="curve" smooth="yes"/>
      <point x="156" y="1120" type="line"/>
      <point x="276" y="1120"/>
      <point x="436" y="1130"/>
      <point x="536" y="1180" type="curve"/>
      <point x="536" y="264" type="line" smooth="yes"/>
      <point x="536" y="164"/>
      <point x="556" y="118"/>
      <point x="612" y="118" type="curve" smooth="yes"/>
      <point x="664" y="118"/>
      <point x="712" y="154"/>
      <point x="744" y="232" type="curve"/>
    </contour>
  </outline>
</glyph>
<glyph name="u" format="2">
	<advance width="1328"/>
	<unicode hex="0075"/>
	<anchor x="968" y="0" name="cedilla"/>
	<anchor x="656" y="0" name="bottom"/>
	<anchor x="626" y="920" name="top"/>
	<outline>
		<contour>
			<point x="468" y="-20" type="curve" smooth="yes"/>
			<point x="754" y="-20"/>
			<point x="844" y="272"/>
			<point x="844" y="476" type="curve"/>
			<point x="780" y="476" type="line"/>
			<point x="780" y="270"/>
			<point x="684" y="144"/>
			<point x="622" y="144" type="curve" smooth="yes"/>
			<point x="566" y="144"/>
			<point x="550" y="168"/>
			<point x="550" y="336" type="curve" smooth="yes"/>
			<point x="550" y="920" type="line"/>
			<point x="28" y="920" type="line"/>
			<point x="28" y="848" type="line"/>
			<point x="170" y="848" type="line"/>
			<point x="170" y="282" type="line" smooth="yes"/>
			<point x="170" y="108"/>
			<point x="240" y="-20"/>
		</contour>
		<contour>
			<point x="780" y="0" type="line"/>
			<point x="1300" y="0" type="line"/>
			<point x="1300" y="72" type="line"/>
			<point x="1160" y="72" type="line"/>
			<point x="1160" y="920" type="line"/>
			<point x="660" y="920" type="line"/>
			<point x="660" y="848" type="line"/>
			<point x="780" y="848" type="line"/>
		</contour>
	</outline>
</glyph>
<glyph name="v" format="2">
	<advance width="1196"/>
	<unicode hex="0076"/>
	<anchor x="676" y="920" name="top"/>
	<anchor x="616" y="0" name="bottom"/>
	<outline>
		<contour>
			<point x="506" y="-20" type="line"/>
			<point x="724" y="-20" type="line"/>
			<point x="1100" y="920" type="line"/>
			<point x="1016" y="920" type="line"/>
			<point x="760" y="272" type="line"/>
			<point x="540" y="920" type="line"/>
			<point x="120" y="920" type="line"/>
		</contour>
		<contour>
			<point x="-10" y="848" type="line"/>
			<point x="672" y="848" type="line"/>
			<point x="672" y="920" type="line"/>
			<point x="-10" y="920" type="line"/>
		</contour>
		<contour>
			<point x="820" y="848" type="line"/>
			<point x="1208" y="848" type="line"/>
			<point x="1208" y="920" type="line"/>
			<point x="820" y="920" type="line"/>
		</contour>
	</outline>
</glyph>
<glyph name="w" format="2">
	<advance width="1798"/>
	<unicode hex="0077"/>
	<anchor x="946" y="920" name="top"/>
	<anchor x="916" y="0" name="bottom"/>
	<outline>
		<contour>
			<point x="426" y="-20" type="line"/>
			<point x="646" y="-20" type="line"/>
			<point x="912" y="660" type="line"/>
			<point x="1148" y="-20" type="line"/>
			<point x="1368" y="-20" type="line"/>
			<point x="1680" y="920" type="line"/>
			<point x="1602" y="920" type="line"/>
			<point x="1412" y="348" type="line"/>
			<point x="1240" y="940" type="line"/>
			<point x="940" y="940" type="line"/>
			<point x="688" y="296" type="line"/>
			<point x="528" y="920" type="line"/>
			<point x="120" y="920" type="line"/>
		</contour>
		<contour>
			<point x="-10" y="848" type="line"/>
			<point x="712" y="848" type="line"/>
			<point x="712" y="920" type="line"/>
			<point x="-10" y="920" type="line"/>
		</contour>
		<contour>
			<point x="1380" y="848" type="line"/>
			<point x="1808" y="848" type="line"/>
			<point x="1808" y="920" type="line"/>
			<point x="1380" y="920" type="line"/>
		</contour>
	</outline>
</glyph>
<glyph name="x" format="2">
	<advance width="1186"/>
	<unicode hex="0078"/>
	<anchor x="636" y="920" name="top"/>
	<anchor x="536" y="0" name="bottom"/>
	<outline>
		<contour>
			<point x="70" y="0" type="line"/>
			<point x="166" y="0" type="line"/>
			<point x="1076" y="920" type="line"/>
			<point x="982" y="920" type="line"/>
		</contour>
		<contour>
			<point x="10" y="0" type="line"/>
			<point x="388" y="0" type="line"/>
			<point x="388" y="72" type="line"/>
			<point x="10" y="72" type="line"/>
		</contour>
		<contour>
			<point x="496" y="0" type="line"/>
			<point x="1178" y="0" type="line"/>
			<point x="1178" y="72" type="line"/>
			<point x="496" y="72" type="line"/>
		</contour>
		<contour>
			<point x="648" y="0" type="line"/>
			<point x="1088" y="0" type="line"/>
			<point x="540" y="920" type="line"/>
			<point x="120" y="920" type="line"/>
		</contour>
		<contour>
			<point x="10" y="848" type="line"/>
			<point x="682" y="848" type="line"/>
			<point x="682" y="920" type="line"/>
			<point x="10" y="920" type="line"/>
		</contour>
		<contour>
			<point x="812" y="848" type="line"/>
			<point x="1158" y="848" type="line"/>
			<point x="1158" y="920" type="line"/>
			<point x="812" y="920" type="line"/>
		</contour>
	</outline>
</glyph>
<glyph name="y" format="2">
  <advance width="1310"/>
  <unicode hex="0079"/>
  <anchor x="576" y="-500" name="bottom"/>
  <anchor x="736" y="920" name="top"/>
  <outline>
    <contour>
      <point x="815" y="848" type="line"/>
      <point x="-29" y="848" type="line"/>
      <point x="-29" y="920" type="line"/>
      <point x="815" y="920" type="line"/>
    </contour>
    <contour>
      <point x="1340" y="848" type="line"/>
      <point x="917" y="848" type="line"/>
      <point x="917" y="920" type="line"/>
      <point x="1340" y="920" type="line"/>
    </contour>
    <contour>
      <point x="884" y="356" type="line"/>
      <point x="653" y="-54" type="line"/>
      <point x="112" y="920" type="line"/>
      <point x="581" y="920" type="line"/>
    </contour>
    <contour>
      <point x="517" y="-330" type="curve"/>
      <point x="486" y="-336" type="line"/>
      <point x="1143" y="920" type="line"/>
      <point x="1230" y="920" type="line"/>
      <point x="593" y="-296" type="line" smooth="yes"/>
      <point x="524.992" y="-425.824"/>
      <point x="436" y="-527"/>
      <point x="320" y="-527" type="curve" smooth="yes"/>
      <point x="220" y="-527"/>
      <point x="97" y="-456"/>
      <point x="97" y="-330" type="curve" smooth="yes"/>
      <point x="97" y="-214"/>
      <point x="194" y="-119"/>
      <point x="308" y="-119" type="curve" smooth="yes"/>
      <point x="408" y="-119"/>
      <point x="517" y="-210"/>
    </contour>
  </outline>
</glyph>
<glyph name="z" format="2">
	<advance width="1018"/>
	<unicode hex="007A"/>
	<anchor x="516" y="920" name="top"/>
	<anchor x="476" y="0" name="bottom"/>
	<outline>
		<contour>
			<point x="20" y="0" type="line"/>
			<point x="990" y="0" type="line"/>
			<point x="990" y="368" type="line"/>
			<point x="916" y="368" type="line"/>
			<point x="856" y="120"/>
			<point x="748" y="72"/>
			<point x="556" y="72" type="curve" smooth="yes"/>
			<point x="436" y="72" type="line"/>
			<point x="958" y="848" type="line"/>
			<point x="958" y="920" type="line"/>
			<point x="76" y="920" type="line"/>
			<point x="76" y="576" type="line"/>
			<point x="148" y="576" type="line"/>
			<point x="208" y="778"/>
			<point x="316" y="848"/>
			<point x="464" y="848" type="curve" smooth="yes"/>
			<point x="540" y="848" type="line"/>
			<point x="20" y="72" type="line"/>
		</contour>
	</outline>
</glyph>
<glyph name="braceleft" format="2">
  <advance width="782"/>
  <unicode hex="007B"/>
  <outline>
    <contour>
      <point x="724" y="1560" type="curve"/>
      <point x="724" y="1486" type="line"/>
      <point x="600" y="1486"/>
      <point x="536" y="1420"/>
      <point x="536" y="1294" type="curve" smooth="yes"/>
      <point x="536" y="1182"/>
      <point x="604" y="1082"/>
      <point x="604" y="922" type="curve" smooth="yes"/>
      <point x="604" y="756"/>
      <point x="496" y="660"/>
      <point x="108" y="620" type="curve"/>
      <point x="108" y="666" type="line"/>
      <point x="168" y="686"/>
      <point x="230" y="710"/>
      <point x="230" y="792" type="curve" smooth="yes"/>
      <point x="230" y="918"/>
      <point x="108" y="1008"/>
      <point x="108" y="1242" type="curve" smooth="yes"/>
      <point x="108" y="1460"/>
      <point x="252" y="1560"/>
    </contour>
    <contour>
      <point x="724" y="-300" type="line"/>
      <point x="252" y="-300"/>
      <point x="108" y="-198"/>
      <point x="108" y="20" type="curve" smooth="yes"/>
      <point x="108" y="254"/>
      <point x="230" y="346"/>
      <point x="230" y="472" type="curve" smooth="yes"/>
      <point x="230" y="554"/>
      <point x="168" y="574"/>
      <point x="108" y="594" type="curve"/>
      <point x="108" y="640" type="line"/>
      <point x="496" y="600"/>
      <point x="604" y="506"/>
      <point x="604" y="340" type="curve" smooth="yes"/>
      <point x="604" y="180"/>
      <point x="536" y="80"/>
      <point x="536" y="-32" type="curve" smooth="yes"/>
      <point x="536" y="-158"/>
      <point x="600" y="-228"/>
      <point x="724" y="-228" type="curve"/>
    </contour>
  </outline>
</glyph>
<glyph name="asciitilde" format="2">
	<advance width="1374"/>
	<unicode hex="007E"/>
	<outline>
		<contour>
			<point x="878" y="626" type="curve" smooth="yes"/>
			<point x="1076" y="626"/>
			<point x="1176" y="790"/>
			<point x="1176" y="1020" type="curve"/>
			<point x="1104" y="1020" type="line"/>
			<point x="1104" y="936"/>
			<point x="1044" y="892"/>
			<point x="928" y="892" type="curve" smooth="yes"/>
			<point x="736" y="892"/>
			<point x="718" y="1080"/>
			<point x="498" y="1080" type="curve" smooth="yes"/>
			<point x="300" y="1080"/>
			<point x="200" y="916"/>
			<point x="200" y="686" type="curve"/>
			<point x="272" y="686" type="line"/>
			<point x="272" y="770"/>
			<point x="334" y="814"/>
			<point x="430" y="814" type="curve" smooth="yes"/>
			<point x="636" y="814"/>
			<point x="624" y="626"/>
		</contour>
	</outline>
</glyph>
<glyph name="cent" format="2">
  <advance width="1100"/>
  <unicode hex="00A2"/>
  <outline>
    <contour>
      <point x="656" y="1108" type="line"/>
      <point x="656" y="-170" type="line"/>
      <point x="584" y="-170" type="line"/>
      <point x="584" y="1108" type="line"/>
    </contour>
    <component base="c"/>
  </outline>
</glyph>
<glyph name="section" format="2">
	<advance width="1010"/>
	<unicode hex="00A7"/>
	<outline>
		<contour>
			<point x="482" y="-20" type="curve" smooth="yes"/>
			<point x="762" y="-20"/>
			<point x="927" y="116"/>
			<point x="927" y="324" type="curve" smooth="yes"/>
			<point x="927" y="697"/>
			<point x="327" y="652"/>
			<point x="327" y="864" type="curve" smooth="yes"/>
			<point x="327" y="934"/>
			<point x="365" y="957"/>
			<point x="383" y="980" type="curve"/>
			<point x="321" y="980" type="line"/>
			<point x="223" y="928"/>
			<point x="115" y="835"/>
			<point x="115" y="690" type="curve" smooth="yes"/>
			<point x="115" y="374"/>
			<point x="727" y="415"/>
			<point x="727" y="203" type="curve" smooth="yes"/>
			<point x="727" y="109"/>
			<point x="639" y="53"/>
			<point x="482" y="53" type="curve" smooth="yes"/>
			<point x="337" y="53"/>
			<point x="135" y="102"/>
			<point x="135" y="242" type="curve"/>
			<point x="62" y="242" type="line"/>
			<point x="62" y="162"/>
			<point x="149" y="104"/>
			<point x="233" y="104" type="curve" smooth="yes"/>
			<point x="322" y="104"/>
			<point x="407" y="170"/>
			<point x="407" y="264" type="curve" smooth="yes"/>
			<point x="407" y="366"/>
			<point x="330" y="426"/>
			<point x="239" y="426" type="curve" smooth="yes"/>
			<point x="139" y="426"/>
			<point x="60" y="354"/>
			<point x="60" y="242" type="curve" smooth="yes"/>
			<point x="60" y="50"/>
			<point x="306" y="-20"/>
		</contour>
		<contour>
			<point x="709" y="528" type="line"/>
			<point x="816" y="580"/>
			<point x="918" y="636"/>
			<point x="918" y="780" type="curve" smooth="yes"/>
			<point x="918" y="1087"/>
			<point x="348" y="1086"/>
			<point x="348" y="1298" type="curve" smooth="yes"/>
			<point x="348" y="1392"/>
			<point x="437" y="1447"/>
			<point x="543" y="1447" type="curve" smooth="yes"/>
			<point x="707" y="1447"/>
			<point x="856" y="1395"/>
			<point x="856" y="1265" type="curve"/>
			<point x="929" y="1265" type="line"/>
			<point x="929" y="1335"/>
			<point x="840" y="1402"/>
			<point x="757" y="1402" type="curve" smooth="yes"/>
			<point x="668" y="1402"/>
			<point x="583" y="1335"/>
			<point x="583" y="1241" type="curve" smooth="yes"/>
			<point x="583" y="1139"/>
			<point x="660" y="1080"/>
			<point x="751" y="1080" type="curve" smooth="yes"/>
			<point x="851" y="1080"/>
			<point x="931" y="1153"/>
			<point x="931" y="1265" type="curve" smooth="yes"/>
			<point x="931" y="1457"/>
			<point x="719" y="1520"/>
			<point x="543" y="1520" type="curve" smooth="yes"/>
			<point x="323" y="1520"/>
			<point x="143" y="1384"/>
			<point x="143" y="1176" type="curve" smooth="yes"/>
			<point x="143" y="813"/>
			<point x="701" y="868"/>
			<point x="701" y="656" type="curve" smooth="yes"/>
			<point x="701" y="605"/>
			<point x="682" y="574"/>
			<point x="644" y="530" type="curve"/>
		</contour>
	</outline>
</glyph>
<glyph name="copyright" format="2">
	<advance width="1738"/>
	<unicode hex="00A9"/>
	<outline>
		<contour>
			<point x="870" y="-20" type="curve" smooth="yes"/>
			<point x="1296" y="-20"/>
			<point x="1640" y="324"/>
			<point x="1640" y="750" type="curve" smooth="yes"/>
			<point x="1640" y="1176"/>
			<point x="1296" y="1520"/>
			<point x="870" y="1520" type="curve" smooth="yes"/>
			<point x="444" y="1520"/>
			<point x="100" y="1176"/>
			<point x="100" y="750" type="curve" smooth="yes"/>
			<point x="100" y="324"/>
			<point x="444" y="-20"/>
		</contour>
		<contour>
			<point x="870" y="52" type="curve" smooth="yes"/>
			<point x="486" y="52"/>
			<point x="174" y="366"/>
			<point x="174" y="750" type="curve" smooth="yes"/>
			<point x="174" y="1134"/>
			<point x="486" y="1448"/>
			<point x="870" y="1448" type="curve" smooth="yes"/>
			<point x="1254" y="1448"/>
			<point x="1566" y="1134"/>
			<point x="1566" y="750" type="curve" smooth="yes"/>
			<point x="1566" y="366"/>
			<point x="1254" y="52"/>
		</contour>
		<component base="C" xScale="0.6" yScale="0.6" xOffset="384" yOffset="300"/>
	</outline>
</glyph>
<glyph name="guillemotleft" format="2">
	<advance width="1508"/>
	<unicode hex="00AB"/>
	<outline>
		<contour>
			<point x="1392" y="290" type="line"/>
			<point x="1428" y="326" type="line"/>
			<point x="1102" y="776" type="line"/>
			<point x="1428" y="1224" type="line"/>
			<point x="1392" y="1260" type="line"/>
			<point x="608" y="800" type="line"/>
			<point x="608" y="750" type="line"/>
		</contour>
		<contour>
			<point x="830" y="290" type="line"/>
			<point x="868" y="326" type="line"/>
			<point x="502" y="776" type="line"/>
			<point x="868" y="1224" type="line"/>
			<point x="830" y="1260" type="line"/>
			<point x="50" y="800" type="line"/>
			<point x="50" y="750" type="line"/>
		</contour>
	</outline>
</glyph>
<glyph name="registered" format="2">
	<advance width="1738"/>
	<unicode hex="00AE"/>
	<outline>
		<contour>
			<point x="870" y="-20" type="curve" smooth="yes"/>
			<point x="1296" y="-20"/>
			<point x="1640" y="324"/>
			<point x="1640" y="750" type="curve" smooth="yes"/>
			<point x="1640" y="1176"/>
			<point x="1296" y="1520"/>
			<point x="870" y="1520" type="curve" smooth="yes"/>
			<point x="444" y="1520"/>
			<point x="100" y="1176"/>
			<point x="100" y="750" type="curve" smooth="yes"/>
			<point x="100" y="324"/>
			<point x="444" y="-20"/>
		</contour>
		<contour>
			<point x="870" y="52" type="curve" smooth="yes"/>
			<point x="486" y="52"/>
			<point x="174" y="366"/>
			<point x="174" y="750" type="curve" smooth="yes"/>
			<point x="174" y="1134"/>
			<point x="486" y="1448"/>
			<point x="870" y="1448" type="curve" smooth="yes"/>
			<point x="1254" y="1448"/>
			<point x="1566" y="1134"/>
			<point x="1566" y="750" type="curve" smooth="yes"/>
			<point x="1566" y="366"/>
			<point x="1254" y="52"/>
		</contour>
		<component base="R" xScale="0.6" yScale="0.6" xOffset="416" yOffset="296"/>
	</outline>
</glyph>
<glyph name="degree" format="2">
	<advance width="638"/>
	<unicode hex="00B0"/>
	<outline>
		<contour>
			<point x="320" y="1120" type="curve" smooth="yes"/>
			<point x="452" y="1120"/>
			<point x="560" y="1228"/>
			<point x="560" y="1360" type="curve" smooth="yes"/>
			<point x="560" y="1492"/>
			<point x="452" y="1600"/>
			<point x="320" y="1600" type="curve" smooth="yes"/>
			<point x="188" y="1600"/>
			<point x="80" y="1492"/>
			<point x="80" y="1360" type="curve" smooth="yes"/>
			<point x="80" y="1228"/>
			<point x="188" y="1120"/>
		</contour>
		<contour>
			<point x="320" y="1230" type="curve" smooth="yes"/>
			<point x="246" y="1230"/>
			<point x="188" y="1286"/>
			<point x="188" y="1360" type="curve" smooth="yes"/>
			<point x="188" y="1434"/>
			<point x="246" y="1490"/>
			<point x="320" y="1490" type="curve" smooth="yes"/>
			<point x="394" y="1490"/>
			<point x="450" y="1434"/>
			<point x="450" y="1360" type="curve" smooth="yes"/>
			<point x="450" y="1286"/>
			<point x="394" y="1230"/>
		</contour>
	</outline>
</glyph>
<glyph name="acute" format="2">
	<advance width="848"/>
	<unicode hex="00B4"/>
	<outline>
		<contour>
			<point x="550" y="1360" type="line" smooth="yes"/>
			<point x="650" y="1344"/>
			<point x="740" y="1412"/>
			<point x="740" y="1510" type="curve" smooth="yes"/>
			<point x="740" y="1608"/>
			<point x="630" y="1694"/>
			<point x="528" y="1656" type="curve" smooth="yes"/>
			<point x="112" y="1496" type="line"/>
			<point x="124" y="1424" type="line"/>
		</contour>
	</outline>
</glyph>
<glyph name="mu" format="2">
  <advance width="1328"/>
  <unicode hex="00B5"/>
  <outline>
    <contour>
      <point x="544" y="-146" type="curve" smooth="yes"/>
      <point x="650" y="-146"/>
      <point x="727" y="-224"/>
      <point x="727" y="-330" type="curve" smooth="yes"/>
      <point x="727" y="-438"/>
      <point x="646" y="-520"/>
      <point x="500" y="-520" type="curve" smooth="yes"/>
      <point x="329" y="-520"/>
      <point x="170" y="-422"/>
      <point x="170" y="-242" type="curve" smooth="yes"/>
      <point x="170" y="883" type="line"/>
      <point x="242" y="883" type="line"/>
      <point x="242" y="-242" type="line" smooth="yes"/>
      <point x="242" y="-392"/>
      <point x="366" y="-455"/>
      <point x="506" y="-455" type="curve"/>
      <point x="506" y="-517" type="line"/>
      <point x="426" y="-517"/>
      <point x="361" y="-418"/>
      <point x="361" y="-322" type="curve" smooth="yes"/>
      <point x="361" y="-226"/>
      <point x="438" y="-146"/>
    </contour>
    <component base="u"/>
  </outline>
</glyph>
<glyph name="mu" format="2">
	<advance width="1328"/>
	<unicode hex="00B5"/>
	<outline>
		<contour>
			<point x="500" y="-520" type="curve" smooth="yes"/>
			<point x="646" y="-520"/>
			<point x="727" y="-438"/>
			<point x="727" y="-330" type="curve" smooth="yes"/>
			<point x="727" y="-224"/>
			<point x="650" y="-146"/>
			<point x="544" y="-146" type="curve" smooth="yes"/>
			<point x="438" y="-146"/>
			<point x="361" y="-226"/>
			<point x="361" y="-322" type="curve" smooth="yes"/>
			<point x="361" y="-418"/>
			<point x="426" y="-517"/>
			<point x="506" y="-517" type="curve"/>
			<point x="506" y="-455" type="line"/>
			<point x="366" y="-455"/>
			<point x="242" y="-392"/>
			<point x="242" y="-242" type="curve" smooth="yes"/>
			<point x="242" y="883" type="line"/>
			<point x="170" y="883" type="line"/>
			<point x="170" y="-242" type="line" smooth="yes"/>
			<point x="170" y="-422"/>
			<point x="329" y="-520"/>
		</contour>
		<component base="u"/>
	</outline>
</glyph>
<glyph name="paragraph" format="2">
  <advance width="1412"/>
  <unicode hex="00B6"/>
  <outline>
    <contour>
      <point x="1146" y="1500" type="line"/>
      <point x="1073" y="1500" type="line"/>
      <point x="1073" y="-300" type="line"/>
      <point x="1146" y="-300" type="line"/>
    </contour>
    <contour>
      <point x="988" y="1500" type="line"/>
      <point x="915" y="1500" type="line"/>
      <point x="915" y="-300" type="line"/>
      <point x="988" y="-300" type="line"/>
    </contour>
    <contour>
      <point x="1326" y="-227" type="line"/>
      <point x="735" y="-227" type="line"/>
      <point x="735" y="-300" type="line"/>
      <point x="1326" y="-300" type="line"/>
    </contour>
    <contour>
      <point x="796" y="379" type="curve" smooth="yes"/>
      <point x="956" y="379" type="line"/>
      <point x="956" y="1427" type="line"/>
      <point x="1326" y="1427" type="line"/>
      <point x="1326" y="1500" type="line"/>
      <point x="796" y="1500" type="line" smooth="yes"/>
      <point x="415" y="1500"/>
      <point x="126" y="1319"/>
      <point x="126" y="939" type="curve" smooth="yes"/>
      <point x="126" y="559"/>
      <point x="415" y="379"/>
    </contour>
  </outline>
</glyph>
<glyph name="cedilla" format="2">
	<advance width="1098"/>
	<unicode hex="00B8"/>
	<anchor x="563" y="0" name="_cedilla"/>
	<outline>
		<contour>
			<point x="359" y="-510" type="line"/>
			<point x="719" y="-510"/>
			<point x="817" y="-410"/>
			<point x="817" y="-310" type="curve" smooth="yes"/>
			<point x="817" y="-198"/>
			<point x="707" y="-154"/>
			<point x="503" y="-148" type="curve"/>
			<point x="625" y="12" type="line"/>
			<point x="533" y="12" type="line"/>
			<point x="353" y="-228" type="line"/>
			<point x="423" y="-228"/>
			<point x="515" y="-246"/>
			<point x="515" y="-350" type="curve" smooth="yes"/>
			<point x="515" y="-418"/>
			<point x="477" y="-438"/>
			<point x="359" y="-438" type="curve"/>
		</contour>
	</outline>
</glyph>
<glyph name="onequarter" format="2">
	<advance width="1400"/>
	<unicode hex="00BC"/>
	<outline>
		<contour>
			<point x="114" y="-200" type="line"/>
			<point x="188" y="-200" type="line"/>
			<point x="1154" y="1300" type="line"/>
			<point x="1080" y="1300" type="line"/>
		</contour>
		<component base="four" xScale="0.6" yScale="0.6" xOffset="540" yOffset="-206"/>
		<component base="one" xScale="0.6" yScale="0.6" xOffset="-16" yOffset="712"/>
	</outline>
</glyph>
<glyph name="threequarters" format="2">
	<advance width="1520"/>
	<unicode hex="00BE"/>
	<outline>
		<contour>
			<point x="204" y="-200" type="line"/>
			<point x="280" y="-200" type="line"/>
			<point x="1244" y="1300" type="line"/>
			<point x="1172" y="1300" type="line"/>
		</contour>
		<component base="three" xScale="0.6" yScale="0.6" xOffset="10" yOffset="708"/>
		<component base="four" xScale="0.6" yScale="0.6" xOffset="660" yOffset="-206"/>
	</outline>
</glyph>
<glyph name="AE" format="2">
	<advance width="2212"/>
	<unicode hex="00C6"/>
	<outline>
		<contour>
			<point x="136" y="0" type="line"/>
			<point x="228" y="0" type="line"/>
			<point x="1096" y="1500" type="line"/>
			<point x="1016" y="1500" type="line"/>
		</contour>
		<contour>
			<point x="28" y="0" type="line"/>
			<point x="472" y="0" type="line"/>
			<point x="472" y="72" type="line"/>
			<point x="28" y="72" type="line"/>
		</contour>
		<contour>
			<point x="456" y="452" type="line"/>
			<point x="1070" y="452" type="line"/>
			<point x="1070" y="526" type="line"/>
			<point x="490" y="526" type="line"/>
		</contour>
		<contour>
			<point x="870" y="0" type="line"/>
			<point x="2152" y="0" type="line"/>
			<point x="2152" y="450" type="line"/>
			<point x="2080" y="450" type="line"/>
			<point x="2020" y="196"/>
			<point x="1854" y="72"/>
			<point x="1600" y="72" type="curve" smooth="yes"/>
			<point x="870" y="72" type="line"/>
		</contour>
		<contour>
			<point x="1050" y="0" type="line"/>
			<point x="1480" y="0" type="line"/>
			<point x="1480" y="1500" type="line"/>
			<point x="1050" y="1500" type="line"/>
		</contour>
		<contour>
			<point x="1780" y="496" type="curve"/>
			<point x="1854" y="496" type="line"/>
			<point x="1854" y="1046" type="line"/>
			<point x="1780" y="1046" type="line"/>
			<point x="1720" y="912"/>
			<point x="1612" y="812"/>
			<point x="1500" y="812" type="curve" smooth="yes"/>
			<point x="1380" y="812" type="line"/>
			<point x="1380" y="740" type="line"/>
			<point x="1500" y="740" type="line" smooth="yes"/>
			<point x="1612" y="740"/>
			<point x="1720" y="630"/>
		</contour>
		<contour>
			<point x="2060" y="1090" type="curve"/>
			<point x="2132" y="1090" type="line"/>
			<point x="2132" y="1500" type="line"/>
			<point x="1050" y="1500" type="line"/>
			<point x="1050" y="1428" type="line"/>
			<point x="1620" y="1428" type="line" smooth="yes"/>
			<point x="1834" y="1428"/>
			<point x="2000" y="1304"/>
		</contour>
	</outline>
</glyph>
<glyph name="Thorn" format="2">
	<advance width="1468"/>
	<unicode hex="00DE"/>
	<outline>
		<contour>
			<point x="600" y="360" type="line"/>
			<point x="860" y="360" type="line" smooth="yes"/>
			<point x="1220" y="360"/>
			<point x="1400" y="520"/>
			<point x="1400" y="780" type="curve" smooth="yes"/>
			<point x="1400" y="1040"/>
			<point x="1220" y="1200"/>
			<point x="860" y="1200" type="curve" smooth="yes"/>
			<point x="600" y="1200" type="line"/>
			<point x="600" y="1128" type="line"/>
			<point x="720" y="1128" type="line" smooth="yes"/>
			<point x="912" y="1128"/>
			<point x="940" y="958"/>
			<point x="940" y="780" type="curve" smooth="yes"/>
			<point x="940" y="602"/>
			<point x="912" y="434"/>
			<point x="720" y="434" type="curve" smooth="yes"/>
			<point x="600" y="434" type="line"/>
		</contour>
		<contour>
			<point x="28" y="0" type="line"/>
			<point x="820" y="0" type="line"/>
			<point x="820" y="72" type="line"/>
			<point x="28" y="72" type="line"/>
		</contour>
		<contour>
			<point x="210" y="0" type="line"/>
			<point x="640" y="0" type="line"/>
			<point x="640" y="1500" type="line"/>
			<point x="210" y="1500" type="line"/>
		</contour>
		<contour>
			<point x="28" y="1428" type="line"/>
			<point x="820" y="1428" type="line"/>
			<point x="820" y="1500" type="line"/>
			<point x="28" y="1500" type="line"/>
		</contour>
	</outline>
</glyph>
<glyph name="germandbls" format="2">
	<advance width="1721"/>
	<unicode hex="00DF"/>
	<outline>
		<contour>
			<point x="210" y="0" type="line"/>
			<point x="631" y="0" type="line"/>
			<point x="631" y="962" type="line" smooth="yes"/>
			<point x="631" y="1246"/>
			<point x="668" y="1453"/>
			<point x="916" y="1453" type="curve" smooth="yes"/>
			<point x="1094" y="1453"/>
			<point x="1140" y="1288"/>
			<point x="1140" y="1143" type="curve" smooth="yes"/>
			<point x="1140" y="1015"/>
			<point x="1104" y="847"/>
			<point x="926" y="847" type="curve"/>
			<point x="926" y="802" type="line"/>
			<point x="1328" y="802"/>
			<point x="1583" y="922"/>
			<point x="1583" y="1162" type="curve" smooth="yes"/>
			<point x="1583" y="1388"/>
			<point x="1242" y="1520"/>
			<point x="936" y="1520" type="curve" smooth="yes"/>
			<point x="600" y="1520"/>
			<point x="210" y="1368"/>
			<point x="210" y="982" type="curve" smooth="yes"/>
		</contour>
		<contour>
			<point x="29" y="0" type="line"/>
			<point x="750" y="0" type="line"/>
			<point x="750" y="73" type="line"/>
			<point x="29" y="73" type="line"/>
		</contour>
		<contour>
			<point x="1132" y="-20" type="curve" smooth="yes"/>
			<point x="1374" y="-20"/>
			<point x="1642" y="100"/>
			<point x="1642" y="370" type="curve" smooth="yes"/>
			<point x="1642" y="630"/>
			<point x="1408" y="820"/>
			<point x="926" y="820" type="curve"/>
			<point x="926" y="775" type="line"/>
			<point x="1184" y="775"/>
			<point x="1200" y="508"/>
			<point x="1200" y="320" type="curve" smooth="yes"/>
			<point x="1200" y="192"/>
			<point x="1180" y="63"/>
			<point x="1022" y="63" type="curve" smooth="yes"/>
			<point x="908" y="63"/>
			<point x="781" y="181"/>
			<point x="781" y="361" type="curve"/>
			<point x="708" y="361" type="line"/>
			<point x="710" y="271"/>
			<point x="820" y="180"/>
			<point x="914" y="180" type="curve" smooth="yes"/>
			<point x="1023" y="180"/>
			<point x="1128" y="266"/>
			<point x="1128" y="380" type="curve" smooth="yes"/>
			<point x="1128" y="492"/>
			<point x="1031" y="582"/>
			<point x="920" y="582" type="curve" smooth="yes"/>
			<point x="800" y="582"/>
			<point x="706" y="483"/>
			<point x="706" y="361" type="curve" smooth="yes"/>
			<point x="706" y="127"/>
			<point x="849" y="-20"/>
		</contour>
	</outline>
</glyph>
<glyph name="ae" format="2">
	<advance width="1809"/>
	<unicode hex="00E6"/>
	<outline>
		<contour>
			<point x="437" y="-20" type="curve" smooth="yes"/>
			<point x="660" y="-20"/>
			<point x="998" y="83"/>
			<point x="998" y="361" type="curve"/>
			<point x="988" y="609" type="line"/>
			<point x="988" y="771"/>
			<point x="842" y="936"/>
			<point x="532" y="936" type="curve" smooth="yes"/>
			<point x="340" y="936"/>
			<point x="132" y="886"/>
			<point x="132" y="712" type="curve" smooth="yes"/>
			<point x="132" y="610"/>
			<point x="224" y="542"/>
			<point x="335" y="542" type="curve" smooth="yes"/>
			<point x="445" y="542"/>
			<point x="553" y="606"/>
			<point x="553" y="716" type="curve" smooth="yes"/>
			<point x="553" y="808"/>
			<point x="460" y="882"/>
			<point x="345" y="882" type="curve" smooth="yes"/>
			<point x="246" y="882"/>
			<point x="134" y="816"/>
			<point x="134" y="712" type="curve"/>
			<point x="224" y="712" type="line"/>
			<point x="224" y="832"/>
			<point x="379" y="869"/>
			<point x="467" y="869" type="curve" smooth="yes"/>
			<point x="627" y="869"/>
			<point x="668" y="743"/>
			<point x="668" y="609" type="curve" smooth="yes"/>
			<point x="668" y="361" type="line" smooth="yes"/>
			<point x="668" y="159"/>
			<point x="616" y="84"/>
			<point x="556" y="84" type="curve" smooth="yes"/>
			<point x="500" y="84"/>
			<point x="470" y="122"/>
			<point x="470" y="256" type="curve" smooth="yes"/>
			<point x="470" y="365"/>
			<point x="512" y="461"/>
			<point x="634" y="461" type="curve" smooth="yes"/>
			<point x="712" y="461" type="line"/>
			<point x="712" y="524" type="line"/>
			<point x="524" y="524" type="line" smooth="yes"/>
			<point x="240" y="524"/>
			<point x="67" y="395"/>
			<point x="67" y="227" type="curve" smooth="yes"/>
			<point x="67" y="39"/>
			<point x="279" y="-20"/>
		</contour>
		<contour>
			<point x="1291" y="-20" type="curve" smooth="yes"/>
			<point x="1553" y="-20"/>
			<point x="1699" y="112"/>
			<point x="1751" y="286" type="curve"/>
			<point x="1679" y="286" type="line"/>
			<point x="1629" y="158"/>
			<point x="1521" y="64"/>
			<point x="1375" y="64" type="curve" smooth="yes"/>
			<point x="1217" y="64"/>
			<point x="1187" y="212"/>
			<point x="1187" y="500" type="curve" smooth="yes"/>
			<point x="1187" y="728"/>
			<point x="1207" y="868"/>
			<point x="1285" y="868" type="curve" smooth="yes"/>
			<point x="1363" y="868"/>
			<point x="1365" y="752"/>
			<point x="1367" y="576" type="curve"/>
			<point x="907" y="576" type="line"/>
			<point x="907" y="502" type="line"/>
			<point x="1749" y="502" type="line"/>
			<point x="1749" y="720"/>
			<point x="1583" y="940"/>
			<point x="1285" y="940" type="curve" smooth="yes"/>
			<point x="1033" y="940"/>
			<point x="855" y="780"/>
			<point x="855" y="460" type="curve" smooth="yes"/>
			<point x="855" y="140"/>
			<point x="1039" y="-20"/>
		</contour>
	</outline>
</glyph>
<glyph name="eth" format="2">
	<advance width="1318"/>
	<unicode hex="00F0"/>
	<outline>
		<contour>
			<point x="632" y="-20" type="curve" smooth="yes"/>
			<point x="974" y="-20"/>
			<point x="1220" y="200"/>
			<point x="1220" y="620" type="curve" smooth="yes"/>
			<point x="1220" y="1140"/>
			<point x="794" y="1520"/>
			<point x="210" y="1520" type="curve"/>
			<point x="210" y="1452" type="line"/>
			<point x="578" y="1452"/>
			<point x="770" y="1084"/>
			<point x="770" y="740" type="curve"/>
			<point x="760" y="560" type="line"/>
			<point x="760" y="192"/>
			<point x="724" y="52"/>
			<point x="626" y="52" type="curve" smooth="yes"/>
			<point x="528" y="52"/>
			<point x="520" y="172"/>
			<point x="520" y="500" type="curve" smooth="yes"/>
			<point x="520" y="868"/>
			<point x="566" y="888"/>
			<point x="644" y="888" type="curve" smooth="yes"/>
			<point x="710" y="888"/>
			<point x="760" y="860"/>
			<point x="760" y="560" type="curve"/>
			<point x="822" y="560" type="line"/>
			<point x="822" y="814"/>
			<point x="784" y="990"/>
			<point x="560" y="990" type="curve" smooth="yes"/>
			<point x="318" y="990"/>
			<point x="60" y="840"/>
			<point x="60" y="500" type="curve" smooth="yes"/>
			<point x="60" y="200"/>
			<point x="290" y="-20"/>
		</contour>
		<contour>
			<point x="300" y="1188" type="line"/>
			<point x="1240" y="1188" type="line"/>
			<point x="1240" y="1260" type="line"/>
			<point x="300" y="1260" type="line"/>
		</contour>
	</outline>
</glyph>
<glyph name="divide" format="2">
  <advance width="1119"/>
  <unicode hex="00F7"/>
  <outline>
    <contour>
      <point x="100" y="806" type="line"/>
      <point x="1020" y="806" type="line"/>
      <point x="1020" y="734" type="line"/>
      <point x="100" y="734" type="line"/>
    </contour>
    <contour>
      <point x="378.75" y="400.0" type="curve" smooth="yes"/>
      <point x="378.75" y="499.0"/>
      <point x="462.75" y="580.0"/>
      <point x="561.75" y="580.0" type="curve" smooth="yes"/>
      <point x="660.75" y="580.0"/>
      <point x="740.25" y="499.0"/>
      <point x="740.25" y="400.0" type="curve" smooth="yes"/>
      <point x="740.25" y="301.0"/>
      <point x="660.75" y="220.0"/>
      <point x="561.75" y="220.0" type="curve" smooth="yes"/>
      <point x="462.75" y="220.0"/>
      <point x="378.75" y="301.0"/>
    </contour>
    <contour>
      <point x="378.75" y="1110.0" type="curve" smooth="yes"/>
      <point x="378.75" y="1209.0"/>
      <point x="462.75" y="1290.0"/>
      <point x="561.75" y="1290.0" type="curve" smooth="yes"/>
      <point x="660.75" y="1290.0"/>
      <point x="740.25" y="1209.0"/>
      <point x="740.25" y="1110.0" type="curve" smooth="yes"/>
      <point x="740.25" y="1011.0"/>
      <point x="660.75" y="930.0"/>
      <point x="561.75" y="930.0" type="curve" smooth="yes"/>
      <point x="462.75" y="930.0"/>
      <point x="378.75" y="1011.0"/>
    </contour>
  </outline>
</glyph>
<glyph name="divide" format="2">
	<advance width="1318"/>
	<unicode hex="00F7"/>
	<outline>
		<contour>
			<point x="660" y="950" type="curve" smooth="yes"/>
			<point x="792" y="950"/>
			<point x="900" y="1058"/>
			<point x="900" y="1190" type="curve" smooth="yes"/>
			<point x="900" y="1322"/>
			<point x="792" y="1430"/>
			<point x="660" y="1430" type="curve" smooth="yes"/>
			<point x="528" y="1430"/>
			<point x="420" y="1322"/>
			<point x="420" y="1190" type="curve" smooth="yes"/>
			<point x="420" y="1058"/>
			<point x="528" y="950"/>
		</contour>
		<contour>
			<point x="660" y="120" type="curve" smooth="yes"/>
			<point x="792" y="120"/>
			<point x="900" y="228"/>
			<point x="900" y="360" type="curve" smooth="yes"/>
			<point x="900" y="492"/>
			<point x="792" y="600"/>
			<point x="660" y="600" type="curve" smooth="yes"/>
			<point x="528" y="600"/>
			<point x="420" y="492"/>
			<point x="420" y="360" type="curve" smooth="yes"/>
			<point x="420" y="228"/>
			<point x="528" y="120"/>
		</contour>
		<contour>
			<point x="80" y="754" type="line"/>
			<point x="1240" y="754" type="line"/>
			<point x="1240" y="826" type="line"/>
			<point x="80" y="826" type="line"/>
		</contour>
	</outline>
</glyph>
<glyph name="thorn" format="2">
	<advance width="1344"/>
	<unicode hex="00FE"/>
	<outline>
		<contour>
			<point x="170" y="-500" type="line"/>
			<point x="550" y="-500" type="line"/>
			<point x="550" y="1500" type="line"/>
			<point x="28" y="1500" type="line"/>
			<point x="28" y="1428" type="line"/>
			<point x="170" y="1428" type="line"/>
		</contour>
		<contour>
			<point x="28" y="-500" type="line"/>
			<point x="688" y="-500" type="line"/>
			<point x="688" y="-428" type="line"/>
			<point x="28" y="-428" type="line"/>
		</contour>
		<contour>
			<point x="748" y="92" type="curve" smooth="yes"/>
			<point x="672" y="92"/>
			<point x="550" y="222"/>
			<point x="550" y="460" type="curve" smooth="yes"/>
			<point x="550" y="692"/>
			<point x="672" y="824"/>
			<point x="748" y="824" type="curve" smooth="yes"/>
			<point x="816" y="824"/>
			<point x="856" y="752"/>
			<point x="856" y="460" type="curve" smooth="yes"/>
			<point x="856" y="168"/>
			<point x="816" y="92"/>
		</contour>
		<contour>
			<point x="860" y="-20" type="curve" smooth="yes"/>
			<point x="1078" y="-20"/>
			<point x="1286" y="160"/>
			<point x="1286" y="460" type="curve" smooth="yes"/>
			<point x="1286" y="760"/>
			<point x="1078" y="938"/>
			<point x="860" y="938" type="curve" smooth="yes"/>
			<point x="636" y="938"/>
			<point x="486" y="764"/>
			<point x="486" y="460" type="curve" smooth="yes"/>
			<point x="486" y="156"/>
			<point x="636" y="-20"/>
		</contour>
	</outline>
</glyph>
<glyph name="kgreenlandic" format="2">
	<advance width="1390"/>
	<unicode hex="0138"/>
	<outline>
		<contour>
			<point x="840" y="0" type="line"/>
			<point x="1308" y="0" type="line"/>
			<point x="836" y="686" type="line"/>
			<point x="1184" y="920" type="line"/>
			<point x="1078" y="920" type="line"/>
			<point x="494" y="542" type="line"/>
		</contour>
		<contour>
			<point x="28" y="0" type="line"/>
			<point x="670" y="0" type="line"/>
			<point x="670" y="72" type="line"/>
			<point x="28" y="72" type="line"/>
		</contour>
		<contour>
			<point x="210" y="0" type="line"/>
			<point x="590" y="0" type="line"/>
			<point x="590" y="920" type="line"/>
			<point x="28" y="920" type="line"/>
			<point x="28" y="848" type="line"/>
			<point x="210" y="848" type="line"/>
		</contour>
		<contour>
			<point x="728" y="0" type="line"/>
			<point x="1382" y="0" type="line"/>
			<point x="1382" y="72" type="line"/>
			<point x="728" y="72" type="line"/>
		</contour>
		<contour>
			<point x="808" y="848" type="line"/>
			<point x="1254" y="848" type="line"/>
			<point x="1254" y="920" type="line"/>
			<point x="808" y="920" type="line"/>
		</contour>
	</outline>
</glyph>
<glyph name="Lslash" format="2">
	<advance width="1318"/>
	<unicode hex="0141"/>
	<outline>
		<contour>
			<point x="28" y="636" type="line"/>
			<point x="920" y="1076" type="line"/>
			<point x="920" y="1160" type="line"/>
			<point x="28" y="720" type="line"/>
		</contour>
		<component base="L"/>
	</outline>
</glyph>
<glyph name="Lslash" format="2">
	<advance width="1318"/>
	<unicode hex="0141"/>
	<outline>
		<contour>
			<point x="28" y="636" type="line"/>
			<point x="920" y="1076" type="line"/>
			<point x="920" y="1160" type="line"/>
			<point x="28" y="720" type="line"/>
		</contour>
		<component base="L"/>
	</outline>
</glyph>
<glyph name="Eng" format="2">
	<advance width="1587"/>
	<unicode hex="014A"/>
	<outline>
		<contour>
			<point x="898" y="-520" type="curve" smooth="yes"/>
			<point x="1158" y="-520"/>
			<point x="1461" y="-283"/>
			<point x="1461" y="-23" type="curve" smooth="yes"/>
			<point x="1462" y="1069" type="line"/>
			<point x="1082" y="1032" type="line"/>
			<point x="1082" y="40" type="line" smooth="yes"/>
			<point x="1082" y="-214"/>
			<point x="1077" y="-451"/>
			<point x="877" y="-451" type="curve" smooth="yes"/>
			<point x="778" y="-451"/>
			<point x="617" y="-372"/>
			<point x="617" y="-262" type="curve"/>
			<point x="544" y="-262" type="line"/>
			<point x="544" y="-342"/>
			<point x="642" y="-445"/>
			<point x="760" y="-445" type="curve" smooth="yes"/>
			<point x="887" y="-445"/>
			<point x="967" y="-367"/>
			<point x="967" y="-256" type="curve" smooth="yes"/>
			<point x="967" y="-146"/>
			<point x="866" y="-58"/>
			<point x="756" y="-58" type="curve" smooth="yes"/>
			<point x="635" y="-58"/>
			<point x="542" y="-150"/>
			<point x="542" y="-262" type="curve" smooth="yes"/>
			<point x="542" y="-415"/>
			<point x="706" y="-520"/>
		</contour>
		<contour>
			<point x="32" y="0" type="line"/>
			<point x="691" y="0" type="line"/>
			<point x="691" y="73" type="line"/>
			<point x="32" y="73" type="line"/>
		</contour>
		<contour>
			<point x="172" y="0" type="line"/>
			<point x="553" y="0" type="line"/>
			<point x="553" y="1500" type="line"/>
			<point x="32" y="1500" type="line"/>
			<point x="32" y="1427" type="line"/>
			<point x="172" y="1427" type="line"/>
		</contour>
		<contour>
			<point x="498" y="881" type="curve"/>
			<point x="553" y="881" type="line"/>
			<point x="553" y="1148"/>
			<point x="678" y="1362"/>
			<point x="869" y="1362" type="curve" smooth="yes"/>
			<point x="1006" y="1362"/>
			<point x="1082" y="1290"/>
			<point x="1082" y="1032" type="curve"/>
			<point x="1462" y="1069" type="line"/>
			<point x="1462" y="1343"/>
			<point x="1331" y="1519"/>
			<point x="1002" y="1519" type="curve" smooth="yes"/>
			<point x="614" y="1519"/>
			<point x="498" y="1146"/>
		</contour>
	</outline>
</glyph>
<glyph name="eng" format="2">
	<advance width="1287"/>
	<unicode hex="014B"/>
	<outline>
		<contour>
			<point x="598" y="-520" type="curve" smooth="yes"/>
			<point x="858" y="-520"/>
			<point x="1161" y="-283"/>
			<point x="1161" y="-23" type="curve" smooth="yes"/>
			<point x="1162" y="639" type="line"/>
			<point x="782" y="602" type="line"/>
			<point x="782" y="40" type="line" smooth="yes"/>
			<point x="782" y="-214"/>
			<point x="777" y="-451"/>
			<point x="577" y="-451" type="curve" smooth="yes"/>
			<point x="478" y="-451"/>
			<point x="317" y="-372"/>
			<point x="317" y="-262" type="curve"/>
			<point x="244" y="-262" type="line"/>
			<point x="244" y="-342"/>
			<point x="342" y="-445"/>
			<point x="460" y="-445" type="curve" smooth="yes"/>
			<point x="587" y="-445"/>
			<point x="667" y="-367"/>
			<point x="667" y="-256" type="curve" smooth="yes"/>
			<point x="667" y="-146"/>
			<point x="566" y="-58"/>
			<point x="456" y="-58" type="curve" smooth="yes"/>
			<point x="335" y="-58"/>
			<point x="242" y="-150"/>
			<point x="242" y="-262" type="curve" smooth="yes"/>
			<point x="242" y="-415"/>
			<point x="406" y="-520"/>
		</contour>
		<contour>
			<point x="32" y="0" type="line"/>
			<point x="691" y="0" type="line"/>
			<point x="691" y="73" type="line"/>
			<point x="32" y="73" type="line"/>
		</contour>
		<contour>
			<point x="172" y="0" type="line"/>
			<point x="553" y="0" type="line"/>
			<point x="553" y="920" type="line"/>
			<point x="32" y="920" type="line"/>
			<point x="32" y="847" type="line"/>
			<point x="172" y="847" type="line"/>
		</contour>
		<contour>
			<point x="498" y="451" type="curve"/>
			<point x="553" y="451" type="line"/>
			<point x="553" y="618"/>
			<point x="628" y="782"/>
			<point x="719" y="782" type="curve" smooth="yes"/>
			<point x="756" y="782"/>
			<point x="782" y="760"/>
			<point x="782" y="602" type="curve"/>
			<point x="1162" y="639" type="line"/>
			<point x="1162" y="813"/>
			<point x="1081" y="939"/>
			<point x="852" y="939" type="curve" smooth="yes"/>
			<point x="564" y="939"/>
			<point x="498" y="616"/>
		</contour>
	</outline>
</glyph>
<glyph name="longs" format="2">
	<advance width="860"/>
	<unicode hex="017F"/>
	<anchor x="766" y="1497" name="top"/>
	<anchor x="386" y="0" name="bottom"/>
	<outline>
		<contour>
			<point x="202" y="0" type="line"/>
			<point x="562" y="0" type="line"/>
			<point x="562" y="1080" type="line" smooth="yes"/>
			<point x="562" y="1334"/>
			<point x="636" y="1447"/>
			<point x="806" y="1447" type="curve" smooth="yes"/>
			<point x="926" y="1447"/>
			<point x="1007" y="1364"/>
			<point x="1007" y="1262" type="curve"/>
			<point x="1080" y="1262" type="line"/>
			<point x="1080" y="1372"/>
			<point x="971" y="1438"/>
			<point x="867" y="1438" type="curve" smooth="yes"/>
			<point x="767" y="1438"/>
			<point x="676" y="1367"/>
			<point x="676" y="1247" type="curve" smooth="yes"/>
			<point x="676" y="1117"/>
			<point x="787" y="1058"/>
			<point x="877" y="1058" type="curve" smooth="yes"/>
			<point x="978" y="1058"/>
			<point x="1082" y="1130"/>
			<point x="1082" y="1262" type="curve" smooth="yes"/>
			<point x="1082" y="1376"/>
			<point x="968" y="1520"/>
			<point x="776" y="1520" type="curve" smooth="yes"/>
			<point x="446" y="1520"/>
			<point x="202" y="1325"/>
			<point x="202" y="1023" type="curve" smooth="yes"/>
		</contour>
		<contour>
			<point x="22" y="0" type="line"/>
			<point x="802" y="0" type="line"/>
			<point x="802" y="73" type="line"/>
			<point x="22" y="73" type="line"/>
		</contour>
	</outline>
</glyph>
<glyph name="florin" format="2">
	<advance width="891"/>
	<unicode hex="0192"/>
	<outline>
		<contour>
			<point x="-104" y="-520" type="curve" smooth="yes"/>
			<point x="256" y="-520"/>
			<point x="478.771" y="-323.422"/>
			<point x="512" y="-23" type="curve" smooth="yes"/>
			<point x="634" y="1080" type="line" smooth="yes"/>
			<point x="661" y="1325"/>
			<point x="744" y="1447"/>
			<point x="915" y="1447" type="curve" smooth="yes"/>
			<point x="980" y="1447"/>
			<point x="1187" y="1392"/>
			<point x="1187" y="1272" type="curve"/>
			<point x="1260" y="1272" type="line"/>
			<point x="1260" y="1342"/>
			<point x="1127" y="1418"/>
			<point x="1040" y="1418" type="curve" smooth="yes"/>
			<point x="941" y="1418"/>
			<point x="834" y="1377"/>
			<point x="834" y="1257" type="curve" smooth="yes"/>
			<point x="834" y="1127"/>
			<point x="949" y="1048"/>
			<point x="1049" y="1048" type="curve" smooth="yes"/>
			<point x="1160" y="1048"/>
			<point x="1262" y="1140"/>
			<point x="1262" y="1272" type="curve" smooth="yes"/>
			<point x="1262" y="1406"/>
			<point x="1107" y="1520"/>
			<point x="905" y="1520" type="curve" smooth="yes"/>
			<point x="545" y="1520"/>
			<point x="270.989" y="1325.49"/>
			<point x="240" y="1023" type="curve" smooth="yes"/>
			<point x="127" y="-80" type="line" smooth="yes"/>
			<point x="102" y="-325"/>
			<point x="17" y="-447"/>
			<point x="-94" y="-447" type="curve" smooth="yes"/>
			<point x="-209" y="-447"/>
			<point x="-425" y="-402"/>
			<point x="-425" y="-272" type="curve"/>
			<point x="-498" y="-272" type="line"/>
			<point x="-498" y="-342"/>
			<point x="-376" y="-418"/>
			<point x="-282" y="-418" type="curve" smooth="yes"/>
			<point x="-183" y="-418"/>
			<point x="-74" y="-377"/>
			<point x="-74" y="-257" type="curve" smooth="yes"/>
			<point x="-74" y="-127"/>
			<point x="-186" y="-48"/>
			<point x="-286" y="-48" type="curve" smooth="yes"/>
			<point x="-397" y="-48"/>
			<point x="-500" y="-140"/>
			<point x="-500" y="-272" type="curve" smooth="yes"/>
			<point x="-500" y="-406"/>
			<point x="-306" y="-520"/>
		</contour>
		<contour>
			<point x="63" y="847" type="line"/>
			<point x="904" y="847" type="line"/>
			<point x="904" y="920" type="line"/>
			<point x="63" y="920" type="line"/>
		</contour>
	</outline>
</glyph>
<glyph name="uni0237" format="2">
	<advance width="730"/>
	<unicode hex="0237"/>
	<outline>
		<contour>
			<point x="28" y="-520" type="curve" smooth="yes"/>
			<point x="288" y="-520"/>
			<point x="591" y="-285"/>
			<point x="591" y="-23" type="curve" smooth="yes"/>
			<point x="591" y="920" type="line"/>
			<point x="32" y="920" type="line"/>
			<point x="32" y="847" type="line"/>
			<point x="212" y="847" type="line"/>
			<point x="212" y="40" type="line" smooth="yes"/>
			<point x="212" y="-214"/>
			<point x="207" y="-451"/>
			<point x="7" y="-451" type="curve" smooth="yes"/>
			<point x="-92" y="-451"/>
			<point x="-253" y="-372"/>
			<point x="-253" y="-262" type="curve"/>
			<point x="-326" y="-262" type="line"/>
			<point x="-326" y="-342"/>
			<point x="-228" y="-445"/>
			<point x="-110" y="-445" type="curve" smooth="yes"/>
			<point x="17" y="-445"/>
			<point x="97" y="-367"/>
			<point x="97" y="-256" type="curve" smooth="yes"/>
			<point x="97" y="-146"/>
			<point x="-4" y="-58"/>
			<point x="-114" y="-58" type="curve" smooth="yes"/>
			<point x="-235" y="-58"/>
			<point x="-328" y="-150"/>
			<point x="-328" y="-262" type="curve" smooth="yes"/>
			<point x="-328" y="-415"/>
			<point x="-164" y="-520"/>
		</contour>
	</outline>
</glyph>
<glyph name="caron" format="2">
  <advance width="928"/>
  <unicode hex="02C7"/>
  <anchor x="464" y="1500" name="_top"/>
  <outline>
    <contour>
      <point x="466" y="1890" type="line"/>
      <point x="792" y="2056" type="line"/>
      <point x="830" y="2020" type="line"/>
      <point x="570" y="1700" type="line"/>
      <point x="360" y="1700" type="line"/>
      <point x="100" y="2020" type="line"/>
      <point x="136" y="2056" type="line"/>
    </contour>
  </outline>
</glyph>
<glyph name="breve" format="2">
  <advance width="638"/>
  <unicode hex="02D8"/>
  <anchor x="319" y="1500" name="_top"/>
  <outline>
    <contour>
      <point x="131" y="2058" type="line"/>
      <point x="131" y="1970"/>
      <point x="211" y="1950"/>
      <point x="319" y="1950" type="curve" smooth="yes"/>
      <point x="427" y="1950"/>
      <point x="507" y="1970"/>
      <point x="507" y="2058" type="curve"/>
      <point x="579" y="2058" type="line"/>
      <point x="579" y="1796"/>
      <point x="479" y="1680"/>
      <point x="319" y="1680" type="curve" smooth="yes"/>
      <point x="159" y="1680"/>
      <point x="59" y="1796"/>
      <point x="59" y="2058" type="curve"/>
    </contour>
  </outline>
</glyph>
<glyph name="ring" format="2">
	<advance width="638"/>
	<unicode hex="02DA"/>
	<anchor x="320" y="1500" name="_top"/>
	<outline>
		<contour>
			<point x="320" y="1680" type="curve" smooth="yes"/>
			<point x="464" y="1680"/>
			<point x="540" y="1758"/>
			<point x="540" y="1860" type="curve" smooth="yes"/>
			<point x="540" y="1962"/>
			<point x="464" y="2040"/>
			<point x="320" y="2040" type="curve" smooth="yes"/>
			<point x="176" y="2040"/>
			<point x="100" y="1962"/>
			<point x="100" y="1860" type="curve" smooth="yes"/>
			<point x="100" y="1758"/>
			<point x="176" y="1680"/>
		</contour>
		<contour>
			<point x="320" y="1754" type="curve" smooth="yes"/>
			<point x="286" y="1754"/>
			<point x="270" y="1780"/>
			<point x="270" y="1860" type="curve" smooth="yes"/>
			<point x="270" y="1940"/>
			<point x="286" y="1968"/>
			<point x="320" y="1968" type="curve" smooth="yes"/>
			<point x="354" y="1968"/>
			<point x="370" y="1940"/>
			<point x="370" y="1860" type="curve" smooth="yes"/>
			<point x="370" y="1780"/>
			<point x="354" y="1754"/>
		</contour>
	</outline>
</glyph>
<glyph name="ogonek" format="2">
  <advance width="1098"/>
  <unicode hex="02DB"/>
  <anchor x="663" y="37" name="_cedilla"/>
  <outline>
    <contour>
      <point x="826" y="-291" type="line"/>
      <point x="798" y="-347"/>
      <point x="758" y="-437"/>
      <point x="556" y="-437" type="curve" smooth="yes"/>
      <point x="394" y="-437"/>
      <point x="280" y="-385"/>
      <point x="280" y="-265" type="curve" smooth="yes"/>
      <point x="280" y="-105"/>
      <point x="506" y="41"/>
      <point x="688" y="91" type="curve"/>
      <point x="706" y="39" type="line"/>
      <point x="686" y="25"/>
      <point x="626" y="-49"/>
      <point x="626" y="-175" type="curve" smooth="yes"/>
      <point x="626" y="-283"/>
      <point x="654" y="-321"/>
      <point x="702" y="-321" type="curve" smooth="yes"/>
      <point x="734" y="-321"/>
      <point x="746" y="-295"/>
      <point x="764" y="-263" type="curve"/>
    </contour>
  </outline>
</glyph>
<glyph name="tilde" format="2">
	<advance width="894"/>
	<unicode hex="02DC"/>
	<anchor x="454" y="1500" name="_top"/>
	<outline>
		<contour>
			<point x="618" y="1640" type="curve" smooth="yes"/>
			<point x="796" y="1640"/>
			<point x="796" y="1786"/>
			<point x="796" y="1974" type="curve"/>
			<point x="724" y="1974" type="line"/>
			<point x="724" y="1930"/>
			<point x="692" y="1876"/>
			<point x="646" y="1876" type="curve" smooth="yes"/>
			<point x="522" y="1876"/>
			<point x="478" y="2034"/>
			<point x="298" y="2034" type="curve" smooth="yes"/>
			<point x="140" y="2034"/>
			<point x="100" y="1870"/>
			<point x="100" y="1700" type="curve"/>
			<point x="174" y="1700" type="line"/>
			<point x="174" y="1744"/>
			<point x="204" y="1796"/>
			<point x="250" y="1796" type="curve" smooth="yes"/>
			<point x="386" y="1796"/>
			<point x="444" y="1640"/>
		</contour>
	</outline>
</glyph>
<glyph name="gravecomb" format="2">
  <unicode hex="0300"/>
  <anchor x="-118" y="1500" name="_top"/>
  <outline>
    <contour>
      <point x="-290" y="1718" type="line" smooth="yes"/>
      <point x="-447.752" y="1751.64"/>
      <point x="-505.549" y="1905.21"/>
      <point x="-440" y="2001" type="curve" smooth="yes"/>
      <point x="-386.411" y="2079.31"/>
      <point x="-220.793" y="2098.8"/>
      <point x="-135" y="1956" type="curve" smooth="yes"/>
      <point x="14" y="1708" type="line"/>
      <point x="-18" y="1660" type="line"/>
    </contour>
  </outline>
</glyph>
<glyph name="uni0304" format="2">
	<advance width="0"/>
	<unicode hex="0304"/>
	<anchor x="-418" y="1500" name="_top"/>
	<outline>
		<contour>
			<point x="-658" y="1700" type="line"/>
			<point x="-178" y="1700" type="line"/>
			<point x="-178" y="1772" type="line"/>
			<point x="-658" y="1772" type="line"/>
		</contour>
	</outline>
</glyph>
<glyph name="uni0394" format="2">
	<advance width="1427"/>
	<unicode hex="0394"/>
	<outline>
		<contour>
			<point x="60" y="0" type="line"/>
			<point x="144" y="0" type="line"/>
			<point x="520" y="1081" type="line"/>
			<point x="871" y="0" type="line"/>
			<point x="1367" y="0" type="line"/>
			<point x="837" y="1529" type="line"/>
			<point x="602" y="1529" type="line"/>
		</contour>
		<contour>
			<point x="111" y="0" type="line"/>
			<point x="1151" y="0" type="line"/>
			<point x="1151" y="73" type="line"/>
			<point x="111" y="73" type="line"/>
		</contour>
	</outline>
</glyph>
<glyph name="uni03A9" format="2">
	<advance width="1552"/>
	<unicode hex="03A9"/>
	<outline>
		<contour>
			<point x="626" y="400" type="curve"/>
			<point x="626" y="467" type="line"/>
			<point x="508" y="527"/>
			<point x="466" y="687"/>
			<point x="466" y="950" type="curve" smooth="yes"/>
			<point x="466" y="1263"/>
			<point x="518" y="1453"/>
			<point x="776" y="1453" type="curve" smooth="yes"/>
			<point x="1034" y="1453"/>
			<point x="1087" y="1263"/>
			<point x="1087" y="950" type="curve" smooth="yes"/>
			<point x="1087" y="687"/>
			<point x="1045" y="536"/>
			<point x="927" y="476" type="curve"/>
			<point x="927" y="409" type="line"/>
			<point x="1203" y="459"/>
			<point x="1466" y="624"/>
			<point x="1466" y="950" type="curve" smooth="yes"/>
			<point x="1466" y="1326"/>
			<point x="1213" y="1520"/>
			<point x="776" y="1520" type="curve" smooth="yes"/>
			<point x="339" y="1520"/>
			<point x="87" y="1326"/>
			<point x="87" y="950" type="curve" smooth="yes"/>
			<point x="87" y="624"/>
			<point x="350" y="450"/>
		</contour>
		<contour>
			<point x="137" y="0" type="line"/>
			<point x="626" y="0" type="line"/>
			<point x="626" y="440" type="line"/>
			<point x="556" y="440" type="line"/>
			<point x="556" y="363" type="line"/>
			<point x="400" y="363" type="line" smooth="yes"/>
			<point x="297" y="363"/>
			<point x="210" y="406"/>
			<point x="210" y="500" type="curve"/>
			<point x="137" y="500" type="line"/>
		</contour>
		<contour>
			<point x="927" y="0" type="line"/>
			<point x="1416" y="0" type="line"/>
			<point x="1416" y="500" type="line"/>
			<point x="1343" y="500" type="line"/>
			<point x="1343" y="406"/>
			<point x="1256" y="363"/>
			<point x="1153" y="363" type="curve" smooth="yes"/>
			<point x="997" y="363" type="line"/>
			<point x="997" y="449" type="line"/>
			<point x="927" y="449" type="line"/>
		</contour>
	</outline>
</glyph>
<glyph name="pi" format="2">
	<advance width="1360"/>
	<unicode hex="03C0"/>
	<outline>
		<contour>
			<point x="82" y="392" type="line"/>
			<point x="156" y="392" type="line"/>
			<point x="156" y="540" type="line"/>
			<point x="1252" y="540" type="line"/>
			<point x="1252" y="920" type="line"/>
			<point x="82" y="920" type="line"/>
		</contour>
		<contour>
			<point x="288" y="-20" type="curve" smooth="yes"/>
			<point x="484" y="-20"/>
			<point x="586" y="170"/>
			<point x="586" y="486" type="curve" smooth="yes"/>
			<point x="586" y="900" type="line"/>
			<point x="476" y="900" type="line"/>
			<point x="476" y="560" type="line" smooth="yes"/>
			<point x="476" y="266"/>
			<point x="70" y="392"/>
			<point x="70" y="156" type="curve" smooth="yes"/>
			<point x="70" y="48"/>
			<point x="166" y="-20"/>
		</contour>
		<contour>
			<point x="976" y="-20" type="curve" smooth="yes"/>
			<point x="1162" y="-20"/>
			<point x="1246" y="66"/>
			<point x="1292" y="206" type="curve"/>
			<point x="1232" y="236" type="line"/>
			<point x="1194" y="168"/>
			<point x="1182" y="144"/>
			<point x="1146" y="144" type="curve" smooth="yes"/>
			<point x="1098" y="144"/>
			<point x="1072" y="176"/>
			<point x="1072" y="216" type="curve" smooth="yes"/>
			<point x="1072" y="840" type="line"/>
			<point x="692" y="840" type="line"/>
			<point x="692" y="186" type="line" smooth="yes"/>
			<point x="692" y="46"/>
			<point x="802" y="-20"/>
		</contour>
	</outline>
</glyph>
<glyph name="dagger" format="2">
  <advance width="1288"/>
  <unicode hex="2020"/>
  <outline>
    <contour>
      <point x="608" y="-500" type="line"/>
      <point x="608" y="100"/>
      <point x="538" y="350"/>
      <point x="438" y="500" type="curve"/>
      <point x="850" y="500" type="line"/>
      <point x="750" y="350"/>
      <point x="680" y="100"/>
      <point x="680" y="-500" type="curve"/>
    </contour>
    <contour>
      <point x="438" y="500" type="line"/>
      <point x="508" y="600"/>
      <point x="608" y="707"/>
      <point x="608" y="977" type="curve"/>
      <point x="680" y="977" type="line"/>
      <point x="680" y="707"/>
      <point x="780" y="600"/>
      <point x="850" y="500" type="curve"/>
    </contour>
    <contour>
      <point x="950" y="751" type="curve" smooth="yes"/>
      <point x="830" y="766"/>
      <point x="784" y="933"/>
      <point x="644" y="933" type="curve"/>
      <point x="644" y="1005" type="line"/>
      <point x="784" y="1005"/>
      <point x="830" y="1172"/>
      <point x="950" y="1187" type="curve" smooth="yes"/>
      <point x="964.033" y="1188.75"/>
      <point x="974" y="1189"/>
      <point x="986" y="1189" type="curve" smooth="yes"/>
      <point x="1104" y="1189"/>
      <point x="1188" y="1087"/>
      <point x="1188" y="969" type="curve" smooth="yes"/>
      <point x="1188" y="851"/>
      <point x="1104" y="749"/>
      <point x="986" y="749" type="curve" smooth="yes"/>
      <point x="974" y="749"/>
      <point x="964.033" y="749.246"/>
    </contour>
    <contour>
      <point x="862" y="1282" type="curve" smooth="yes"/>
      <point x="847" y="1162"/>
      <point x="680" y="1116"/>
      <point x="680" y="976" type="curve"/>
      <point x="608" y="976" type="line"/>
      <point x="608" y="1116"/>
      <point x="441" y="1162"/>
      <point x="426" y="1282" type="curve" smooth="yes"/>
      <point x="424.246" y="1296.03"/>
      <point x="424" y="1306"/>
      <point x="424" y="1318" type="curve" smooth="yes"/>
      <point x="424" y="1436"/>
      <point x="526" y="1520"/>
      <point x="644" y="1520" type="curve" smooth="yes"/>
      <point x="762" y="1520"/>
      <point x="864" y="1436"/>
      <point x="864" y="1318" type="curve" smooth="yes"/>
      <point x="864" y="1306"/>
      <point x="863.754" y="1296.03"/>
    </contour>
    <contour>
      <point x="338" y="1187" type="curve" smooth="yes"/>
      <point x="458" y="1172"/>
      <point x="504" y="1005"/>
      <point x="644" y="1005" type="curve"/>
      <point x="644" y="933" type="line"/>
      <point x="504" y="933"/>
      <point x="458" y="766"/>
      <point x="338" y="751" type="curve" smooth="yes"/>
      <point x="323.967" y="749.246"/>
      <point x="314" y="749"/>
      <point x="302" y="749" type="curve" smooth="yes"/>
      <point x="184" y="749"/>
      <point x="100" y="851"/>
      <point x="100" y="969" type="curve" smooth="yes"/>
      <point x="100" y="1087"/>
      <point x="184" y="1189"/>
      <point x="302" y="1189" type="curve" smooth="yes"/>
      <point x="314" y="1189"/>
      <point x="323.967" y="1188.75"/>
    </contour>
  </outline>
</glyph>
<glyph name="uni2031" format="2">
	<advance width="4118"/>
	<unicode hex="2031"/>
	<outline>
		<contour>
			<point x="510" y="0" type="line"/>
			<point x="560" y="0" type="line"/>
			<point x="1570" y="1500" type="line"/>
			<point x="1520" y="1500" type="line"/>
		</contour>
		<contour>
			<point x="550" y="640" type="curve" smooth="yes"/>
			<point x="736" y="640"/>
			<point x="1028" y="794"/>
			<point x="1028" y="1080" type="curve" smooth="yes"/>
			<point x="1028" y="1366"/>
			<point x="778" y="1520"/>
			<point x="550" y="1520" type="curve" smooth="yes"/>
			<point x="322" y="1520"/>
			<point x="70" y="1366"/>
			<point x="70" y="1080" type="curve" smooth="yes"/>
			<point x="70" y="794"/>
			<point x="322" y="640"/>
		</contour>
		<contour>
			<point x="550" y="680" type="curve" smooth="yes"/>
			<point x="502" y="680"/>
			<point x="472" y="776"/>
			<point x="472" y="1080" type="curve" smooth="yes"/>
			<point x="472" y="1384"/>
			<point x="502" y="1480"/>
			<point x="550" y="1480" type="curve" smooth="yes"/>
			<point x="598" y="1480"/>
			<point x="630" y="1384"/>
			<point x="630" y="1080" type="curve" smooth="yes"/>
			<point x="630" y="776"/>
			<point x="598" y="680"/>
		</contour>
		<contour>
			<point x="1528" y="-20" type="curve" smooth="yes"/>
			<point x="1714" y="-20"/>
			<point x="2010" y="134"/>
			<point x="2010" y="420" type="curve" smooth="yes"/>
			<point x="2010" y="706"/>
			<point x="1756" y="860"/>
			<point x="1528" y="860" type="curve" smooth="yes"/>
			<point x="1300" y="860"/>
			<point x="1050" y="706"/>
			<point x="1050" y="420" type="curve" smooth="yes"/>
			<point x="1050" y="134"/>
			<point x="1300" y="-20"/>
		</contour>
		<contour>
			<point x="1528" y="20" type="curve" smooth="yes"/>
			<point x="1480" y="20"/>
			<point x="1450" y="116"/>
			<point x="1450" y="420" type="curve" smooth="yes"/>
			<point x="1450" y="724"/>
			<point x="1480" y="820"/>
			<point x="1528" y="820" type="curve" smooth="yes"/>
			<point x="1576" y="820"/>
			<point x="1608" y="724"/>
			<point x="1608" y="420" type="curve" smooth="yes"/>
			<point x="1608" y="116"/>
			<point x="1576" y="20"/>
		</contour>
		<contour>
			<point x="2550" y="-20" type="curve" smooth="yes"/>
			<point x="2736" y="-20"/>
			<point x="3028" y="134"/>
			<point x="3028" y="420" type="curve" smooth="yes"/>
			<point x="3028" y="706"/>
			<point x="2778" y="860"/>
			<point x="2550" y="860" type="curve" smooth="yes"/>
			<point x="2322" y="860"/>
			<point x="2070" y="706"/>
			<point x="2070" y="420" type="curve" smooth="yes"/>
			<point x="2070" y="134"/>
			<point x="2322" y="-20"/>
		</contour>
		<contour>
			<point x="2550" y="20" type="curve" smooth="yes"/>
			<point x="2502" y="20"/>
			<point x="2472" y="116"/>
			<point x="2472" y="420" type="curve" smooth="yes"/>
			<point x="2472" y="724"/>
			<point x="2502" y="820"/>
			<point x="2550" y="820" type="curve" smooth="yes"/>
			<point x="2598" y="820"/>
			<point x="2630" y="724"/>
			<point x="2630" y="420" type="curve" smooth="yes"/>
			<point x="2630" y="116"/>
			<point x="2598" y="20"/>
		</contour>
		<contour>
			<point x="3570" y="-20" type="curve" smooth="yes"/>
			<point x="3756" y="-20"/>
			<point x="4050" y="134"/>
			<point x="4050" y="420" type="curve" smooth="yes"/>
			<point x="4050" y="706"/>
			<point x="3798" y="860"/>
			<point x="3570" y="860" type="curve" smooth="yes"/>
			<point x="3342" y="860"/>
			<point x="3090" y="706"/>
			<point x="3090" y="420" type="curve" smooth="yes"/>
			<point x="3090" y="134"/>
			<point x="3342" y="-20"/>
		</contour>
		<contour>
			<point x="3570" y="20" type="curve" smooth="yes"/>
			<point x="3522" y="20"/>
			<point x="3490" y="116"/>
			<point x="3490" y="420" type="curve" smooth="yes"/>
			<point x="3490" y="724"/>
			<point x="3522" y="820"/>
			<point x="3570" y="820" type="curve" smooth="yes"/>
			<point x="3618" y="820"/>
			<point x="3650" y="724"/>
			<point x="3650" y="420" type="curve" smooth="yes"/>
			<point x="3650" y="116"/>
			<point x="3618" y="20"/>
		</contour>
	</outline>
</glyph>
<glyph name="guilsinglleft" format="2">
  <advance width="950"/>
  <unicode hex="2039"/>
  <outline>
    <contour>
      <point x="502" y="776" type="line"/>
      <point x="868" y="326" type="line"/>
      <point x="830" y="290" type="line"/>
      <point x="50" y="750" type="line"/>
      <point x="50" y="800" type="line"/>
      <point x="830" y="1260" type="line"/>
      <point x="868" y="1224" type="line"/>
    </contour>
  </outline>
</glyph>
<glyph name="guilsinglleft" format="2">
	<advance width="950"/>
	<unicode hex="2039"/>
	<outline>
		<contour>
			<point x="830" y="290" type="line"/>
			<point x="868" y="326" type="line"/>
			<point x="502" y="776" type="line"/>
			<point x="868" y="1224" type="line"/>
			<point x="830" y="1260" type="line"/>
			<point x="50" y="800" type="line"/>
			<point x="50" y="750" type="line"/>
		</contour>
	</outline>
</glyph>
<glyph name="guilsinglright" format="2">
	<advance width="950"/>
	<unicode hex="203A"/>
	<outline>
		<contour>
			<point x="116" y="290" type="line"/>
			<point x="900" y="750" type="line"/>
			<point x="900" y="800" type="line"/>
			<point x="116" y="1260" type="line"/>
			<point x="80" y="1224" type="line"/>
			<point x="406" y="774" type="line"/>
			<point x="80" y="326" type="line"/>
		</contour>
	</outline>
</glyph>
<glyph name="Euro" format="2">
  <advance width="1412"/>
  <unicode hex="20AC"/>
  <outline>
    <contour>
      <point x="1327" y="1192" type="line"/>
      <point x="1327" y="1347"/>
      <point x="1137" y="1445"/>
      <point x="959" y="1445" type="curve" smooth="yes"/>
      <point x="721" y="1445"/>
      <point x="671" y="1098"/>
      <point x="671" y="750" type="curve" smooth="yes"/>
      <point x="671" y="361"/>
      <point x="684" y="79"/>
      <point x="942" y="79" type="curve" smooth="yes"/>
      <point x="1092" y="79"/>
      <point x="1230" y="189"/>
      <point x="1280" y="355" type="curve"/>
      <point x="1358" y="355" type="line"/>
      <point x="1306" y="162"/>
      <point x="1119" y="-20"/>
      <point x="857" y="-20" type="curve" smooth="yes"/>
      <point x="465" y="-20"/>
      <point x="181" y="290"/>
      <point x="181" y="750" type="curve" smooth="yes"/>
      <point x="181" y="1170"/>
      <point x="457" y="1520"/>
      <point x="909" y="1520" type="curve" smooth="yes"/>
      <point x="1153" y="1520"/>
      <point x="1402" y="1386"/>
      <point x="1402" y="1192" type="curve" smooth="yes"/>
      <point x="1402" y="1050"/>
      <point x="1287" y="967"/>
      <point x="1186" y="967" type="curve" smooth="yes"/>
      <point x="1076" y="967"/>
      <point x="973" y="1061"/>
      <point x="973" y="1181" type="curve" smooth="yes"/>
      <point x="973" y="1291"/>
      <point x="1067" y="1390"/>
      <point x="1186" y="1390" type="curve" smooth="yes"/>
      <point x="1278" y="1390"/>
      <point x="1400" y="1262"/>
      <point x="1400" y="1192" type="curve"/>
    </contour>
    <component base="equal" xOffset="-70" yOffset="-141"/>
  </outline>
</glyph>
<glyph name="partialdiff" format="2">
	<advance width="1319"/>
	<unicode hex="2202"/>
	<outline>
		<contour>
			<point x="631" y="-20" type="curve" smooth="yes"/>
			<point x="1013" y="-20"/>
			<point x="1219" y="280"/>
			<point x="1219" y="750" type="curve" smooth="yes"/>
			<point x="1219" y="1256"/>
			<point x="814" y="1520"/>
			<point x="489" y="1520" type="curve"/>
			<point x="469" y="1453" type="line"/>
			<point x="727" y="1453"/>
			<point x="748" y="1084"/>
			<point x="748" y="900" type="curve"/>
			<point x="759" y="561" type="line"/>
			<point x="759" y="293"/>
			<point x="743" y="53"/>
			<point x="625" y="53" type="curve" smooth="yes"/>
			<point x="527" y="53"/>
			<point x="520" y="271"/>
			<point x="520" y="500" type="curve" smooth="yes"/>
			<point x="520" y="768"/>
			<point x="543" y="889"/>
			<point x="641" y="889" type="curve" smooth="yes"/>
			<point x="727" y="889"/>
			<point x="759" y="782"/>
			<point x="759" y="561" type="curve"/>
			<point x="821" y="561" type="line"/>
			<point x="821" y="795"/>
			<point x="809" y="980"/>
			<point x="547" y="980" type="curve" smooth="yes"/>
			<point x="345" y="980"/>
			<point x="58" y="840"/>
			<point x="58" y="500" type="curve" smooth="yes"/>
			<point x="58" y="200"/>
			<point x="329" y="-20"/>
		</contour>
		<contour>
			<point x="332" y="1086" type="curve" smooth="yes"/>
			<point x="417" y="1086"/>
			<point x="506" y="1150"/>
			<point x="506" y="1260" type="curve" smooth="yes"/>
			<point x="506" y="1358"/>
			<point x="419" y="1426"/>
			<point x="332" y="1426" type="curve" smooth="yes"/>
			<point x="249" y="1426"/>
			<point x="165" y="1354"/>
			<point x="165" y="1256" type="curve"/>
			<point x="255" y="1256" type="line"/>
			<point x="255" y="1393"/>
			<point x="375" y="1453"/>
			<point x="469" y="1453" type="curve"/>
			<point x="489" y="1520" type="line"/>
			<point x="316" y="1521"/>
			<point x="163" y="1410"/>
			<point x="163" y="1256" type="curve" smooth="yes"/>
			<point x="163" y="1154"/>
			<point x="241" y="1086"/>
		</contour>
	</outline>
</glyph>
<glyph name="product" format="2">
	<advance width="1696"/>
	<unicode hex="220F"/>
	<outline>
		<contour>
			<point x="1059" y="0" type="line"/>
			<point x="1489" y="0" type="line"/>
			<point x="1489" y="1500" type="line"/>
			<point x="1059" y="1500" type="line"/>
		</contour>
		<contour>
			<point x="28" y="0" type="line"/>
			<point x="798" y="0" type="line"/>
			<point x="798" y="73" type="line"/>
			<point x="28" y="73" type="line"/>
		</contour>
		<contour>
			<point x="209" y="0" type="line"/>
			<point x="639" y="0" type="line"/>
			<point x="639" y="1500" type="line"/>
			<point x="209" y="1500" type="line"/>
		</contour>
		<contour>
			<point x="899" y="0" type="line"/>
			<point x="1668" y="0" type="line"/>
			<point x="1668" y="73" type="line"/>
			<point x="899" y="73" type="line"/>
		</contour>
		<contour>
			<point x="28" y="1427" type="line"/>
			<point x="1668" y="1427" type="line"/>
			<point x="1668" y="1500" type="line"/>
			<point x="28" y="1500" type="line"/>
		</contour>
	</outline>
</glyph>
<glyph name="summation" format="2">
	<advance width="1395"/>
	<unicode hex="2211"/>
	<outline>
		<contour>
			<point x="56" y="0" type="line"/>
			<point x="1279" y="0" type="line"/>
			<point x="1279" y="450" type="line"/>
			<point x="1206" y="450" type="line"/>
			<point x="1156" y="196"/>
			<point x="979" y="73"/>
			<point x="706" y="73" type="curve" smooth="yes"/>
			<point x="232" y="73" type="line"/>
			<point x="987" y="813" type="line"/>
			<point x="576" y="1427" type="line"/>
			<point x="737" y="1427" type="line" smooth="yes"/>
			<point x="971" y="1427"/>
			<point x="1136" y="1304"/>
			<point x="1186" y="1090" type="curve"/>
			<point x="1260" y="1090" type="line"/>
			<point x="1260" y="1500" type="line"/>
			<point x="86" y="1500" type="line"/>
			<point x="86" y="1427" type="line"/>
			<point x="638" y="600" type="line"/>
		</contour>
	</outline>
</glyph>
<glyph name="radical" format="2">
	<advance width="1190"/>
	<unicode hex="221A"/>
	<outline>
		<contour>
			<point x="539" y="-20" type="line"/>
			<point x="677" y="-20" type="line"/>
			<point x="1026" y="1428" type="line"/>
			<point x="1190" y="1428" type="line"/>
			<point x="1190" y="1500" type="line"/>
			<point x="969" y="1500" type="line"/>
			<point x="691" y="358" type="line"/>
			<point x="507" y="676" type="line"/>
			<point x="111" y="450" type="line"/>
			<point x="141" y="383" type="line"/>
			<point x="253" y="441" type="line"/>
		</contour>
	</outline>
</glyph>
<glyph name="infinity" format="2">
	<advance width="2023"/>
	<unicode hex="221E"/>
	<outline>
		<contour>
			<point x="1504" y="181" type="curve" smooth="yes"/>
			<point x="1242" y="181"/>
			<point x="1091" y="380"/>
			<point x="957" y="560" type="curve" smooth="yes"/>
			<point x="854" y="698"/>
			<point x="742" y="837"/>
			<point x="619" y="837" type="curve" smooth="yes"/>
			<point x="496" y="837"/>
			<point x="471" y="678"/>
			<point x="471" y="560" type="curve"/>
			<point x="70" y="560" type="line"/>
			<point x="70" y="800"/>
			<point x="237" y="939"/>
			<point x="509" y="939" type="curve" smooth="yes"/>
			<point x="771" y="939"/>
			<point x="920" y="742"/>
			<point x="1056" y="560" type="curve" smooth="yes"/>
			<point x="1158" y="423"/>
			<point x="1271" y="283"/>
			<point x="1394" y="283" type="curve" smooth="yes"/>
			<point x="1507" y="283"/>
			<point x="1542" y="442"/>
			<point x="1542" y="560" type="curve"/>
			<point x="1953" y="560" type="line"/>
			<point x="1953" y="320"/>
			<point x="1776" y="181"/>
		</contour>
		<contour>
			<point x="509" y="181" type="curve" smooth="yes"/>
			<point x="237" y="181"/>
			<point x="70" y="320"/>
			<point x="70" y="560" type="curve"/>
			<point x="471" y="560" type="line"/>
			<point x="471" y="442"/>
			<point x="496" y="283"/>
			<point x="619" y="283" type="curve" smooth="yes"/>
			<point x="742" y="283"/>
			<point x="855" y="423"/>
			<point x="957" y="560" type="curve" smooth="yes"/>
			<point x="1093" y="742"/>
			<point x="1242" y="939"/>
			<point x="1504" y="939" type="curve" smooth="yes"/>
			<point x="1776" y="939"/>
			<point x="1953" y="800"/>
			<point x="1953" y="560" type="curve"/>
			<point x="1542" y="560" type="line"/>
			<point x="1542" y="678"/>
			<point x="1507" y="837"/>
			<point x="1394" y="837" type="curve" smooth="yes"/>
			<point x="1271" y="837"/>
			<point x="1159" y="698"/>
			<point x="1056" y="560" type="curve" smooth="yes"/>
			<point x="922" y="380"/>
			<point x="771" y="181"/>
		</contour>
	</outline>
</glyph>
<glyph name="integral" format="2">
	<advance width="891"/>
	<unicode hex="222B"/>
	<outline>
		<contour>
			<point x="-34" y="-520" type="curve" smooth="yes"/>
			<point x="326" y="-520"/>
			<point x="547.795" y="-324.319"/>
			<point x="562" y="-23" type="curve" smooth="yes"/>
			<point x="614" y="1080" type="line" smooth="yes"/>
			<point x="625.585" y="1325.73"/>
			<point x="704" y="1447"/>
			<point x="875" y="1447" type="curve" smooth="yes"/>
			<point x="940" y="1447"/>
			<point x="1147" y="1392"/>
			<point x="1147" y="1272" type="curve"/>
			<point x="1220" y="1272" type="line"/>
			<point x="1220" y="1342"/>
			<point x="1087" y="1418"/>
			<point x="1000" y="1418" type="curve" smooth="yes"/>
			<point x="901" y="1418"/>
			<point x="794" y="1377"/>
			<point x="794" y="1257" type="curve" smooth="yes"/>
			<point x="794" y="1127"/>
			<point x="909" y="1048"/>
			<point x="1009" y="1048" type="curve" smooth="yes"/>
			<point x="1120" y="1048"/>
			<point x="1222" y="1140"/>
			<point x="1222" y="1272" type="curve" smooth="yes"/>
			<point x="1222" y="1406"/>
			<point x="1067" y="1520"/>
			<point x="865" y="1520" type="curve" smooth="yes"/>
			<point x="505" y="1520"/>
			<point x="231.822" y="1326.24"/>
			<point x="220" y="1023" type="curve" smooth="yes"/>
			<point x="177" y="-80" type="line" smooth="yes"/>
			<point x="167.425" y="-325.601"/>
			<point x="87" y="-447"/>
			<point x="-24" y="-447" type="curve" smooth="yes"/>
			<point x="-139" y="-447"/>
			<point x="-355" y="-402"/>
			<point x="-355" y="-272" type="curve"/>
			<point x="-428" y="-272" type="line"/>
			<point x="-428" y="-342"/>
			<point x="-306" y="-418"/>
			<point x="-212" y="-418" type="curve" smooth="yes"/>
			<point x="-113" y="-418"/>
			<point x="-4" y="-377"/>
			<point x="-4" y="-257" type="curve" smooth="yes"/>
			<point x="-4" y="-127"/>
			<point x="-116" y="-48"/>
			<point x="-216" y="-48" type="curve" smooth="yes"/>
			<point x="-327" y="-48"/>
			<point x="-430" y="-140"/>
			<point x="-430" y="-272" type="curve" smooth="yes"/>
			<point x="-430" y="-406"/>
			<point x="-236" y="-520"/>
		</contour>
	</outline>
</glyph>
<glyph name="lozenge" format="2">
	<advance width="1200"/>
	<unicode hex="25CA"/>
	<outline>
		<contour>
			<point x="612" y="30" type="line"/>
			<point x="1000" y="712" type="line"/>
			<point x="612" y="1392" type="line"/>
			<point x="200" y="712" type="line"/>
		</contour>
		<contour>
			<point x="612" y="200" type="line"/>
			<point x="300" y="712" type="line"/>
			<point x="612" y="1222" type="line"/>
			<point x="908" y="712" type="line"/>
		</contour>
	</outline>
</glyph>
<glyph name="uniFB00" format="2">
	<advance width="1540"/>
	<unicode hex="FB00"/>
	<outline>
		<contour>
			<point x="882" y="0" type="line"/>
			<point x="1242" y="0" type="line"/>
			<point x="1242" y="1080" type="line" smooth="yes"/>
			<point x="1242" y="1334"/>
			<point x="1326" y="1447"/>
			<point x="1456" y="1447" type="curve" smooth="yes"/>
			<point x="1556" y="1447"/>
			<point x="1687" y="1334"/>
			<point x="1687" y="1272" type="curve"/>
			<point x="1760" y="1272" type="line"/>
			<point x="1760" y="1382"/>
			<point x="1661" y="1458"/>
			<point x="1557" y="1458" type="curve" smooth="yes"/>
			<point x="1457" y="1458"/>
			<point x="1356" y="1377"/>
			<point x="1356" y="1257" type="curve" smooth="yes"/>
			<point x="1356" y="1127"/>
			<point x="1457" y="1058"/>
			<point x="1557" y="1058" type="curve" smooth="yes"/>
			<point x="1668" y="1058"/>
			<point x="1762" y="1140"/>
			<point x="1762" y="1272" type="curve" smooth="yes"/>
			<point x="1762" y="1366"/>
			<point x="1658" y="1520"/>
			<point x="1456" y="1520" type="curve" smooth="yes"/>
			<point x="1126" y="1520"/>
			<point x="882" y="1325"/>
			<point x="882" y="1023" type="curve" smooth="yes"/>
		</contour>
		<contour>
			<point x="22" y="0" type="line"/>
			<point x="1482" y="0" type="line"/>
			<point x="1482" y="73" type="line"/>
			<point x="22" y="73" type="line"/>
		</contour>
		<contour>
			<point x="202" y="0" type="line"/>
			<point x="562" y="0" type="line"/>
			<point x="562" y="980" type="line" smooth="yes"/>
			<point x="562" y="1234"/>
			<point x="641" y="1347"/>
			<point x="791" y="1347" type="curve" smooth="yes"/>
			<point x="911" y="1347"/>
			<point x="1047" y="1294"/>
			<point x="1047" y="1172" type="curve"/>
			<point x="1120" y="1172" type="line"/>
			<point x="1120" y="1262"/>
			<point x="1021" y="1348"/>
			<point x="917" y="1348" type="curve" smooth="yes"/>
			<point x="817" y="1348"/>
			<point x="716" y="1257"/>
			<point x="716" y="1157" type="curve" smooth="yes"/>
			<point x="716" y="1027"/>
			<point x="817" y="958"/>
			<point x="917" y="958" type="curve" smooth="yes"/>
			<point x="1028" y="958"/>
			<point x="1122" y="1040"/>
			<point x="1122" y="1172" type="curve" smooth="yes"/>
			<point x="1122" y="1306"/>
			<point x="953" y="1420"/>
			<point x="771" y="1420" type="curve" smooth="yes"/>
			<point x="451" y="1420"/>
			<point x="202" y="1215"/>
			<point x="202" y="923" type="curve" smooth="yes"/>
		</contour>
		<contour>
			<point x="22" y="847" type="line"/>
			<point x="1522" y="847" type="line"/>
			<point x="1522" y="920" type="line"/>
			<point x="22" y="920" type="line"/>
		</contour>
	</outline>
</glyph>
<glyph name="uniFB02" format="2">
	<advance width="1556"/>
	<unicode hex="FB02"/>
	<outline>
		<contour>
			<point x="202" y="0" type="line"/>
			<point x="562" y="0" type="line"/>
			<point x="562" y="1080" type="line" smooth="yes"/>
			<point x="562" y="1334"/>
			<point x="646" y="1447"/>
			<point x="766" y="1447" type="curve" smooth="yes"/>
			<point x="876" y="1447"/>
			<point x="1007" y="1374"/>
			<point x="1007" y="1272" type="curve"/>
			<point x="1080" y="1272" type="line"/>
			<point x="1080" y="1382"/>
			<point x="981" y="1448"/>
			<point x="877" y="1448" type="curve" smooth="yes"/>
			<point x="777" y="1448"/>
			<point x="676" y="1377"/>
			<point x="676" y="1257" type="curve" smooth="yes"/>
			<point x="676" y="1127"/>
			<point x="777" y="1058"/>
			<point x="877" y="1058" type="curve" smooth="yes"/>
			<point x="988" y="1058"/>
			<point x="1082" y="1140"/>
			<point x="1082" y="1272" type="curve" smooth="yes"/>
			<point x="1082" y="1396"/>
			<point x="958" y="1520"/>
			<point x="766" y="1520" type="curve" smooth="yes"/>
			<point x="456" y="1520"/>
			<point x="202" y="1335"/>
			<point x="202" y="1023" type="curve" smooth="yes"/>
		</contour>
		<contour>
			<point x="22" y="0" type="line"/>
			<point x="1528" y="0" type="line"/>
			<point x="1528" y="73" type="line"/>
			<point x="22" y="73" type="line"/>
		</contour>
		<contour>
			<point x="22" y="847" type="line"/>
			<point x="842" y="847" type="line"/>
			<point x="842" y="920" type="line"/>
			<point x="22" y="920" type="line"/>
		</contour>
		<contour>
			<point x="972" y="0" type="line"/>
			<point x="1352" y="0" type="line"/>
			<point x="1352" y="1540" type="line"/>
			<point x="972" y="1460" type="line"/>
		</contour>
	</outline>
</glyph>
<glyph name="uniFB04" format="2">
	<advance width="2229"/>
	<unicode hex="FB04"/>
	<outline>
		<contour>
			<point x="882" y="0" type="line"/>
			<point x="1242" y="0" type="line"/>
			<point x="1242" y="1080" type="line" smooth="yes"/>
			<point x="1242" y="1334"/>
			<point x="1316" y="1447"/>
			<point x="1466" y="1447" type="curve" smooth="yes"/>
			<point x="1566" y="1447"/>
			<point x="1687" y="1344"/>
			<point x="1687" y="1282" type="curve"/>
			<point x="1760" y="1282" type="line"/>
			<point x="1760" y="1362"/>
			<point x="1661" y="1458"/>
			<point x="1557" y="1458" type="curve" smooth="yes"/>
			<point x="1457" y="1458"/>
			<point x="1356" y="1387"/>
			<point x="1356" y="1267" type="curve" smooth="yes"/>
			<point x="1356" y="1137"/>
			<point x="1457" y="1068"/>
			<point x="1557" y="1068" type="curve" smooth="yes"/>
			<point x="1668" y="1068"/>
			<point x="1762" y="1150"/>
			<point x="1762" y="1282" type="curve" smooth="yes"/>
			<point x="1762" y="1406"/>
			<point x="1648" y="1520"/>
			<point x="1436" y="1520" type="curve" smooth="yes"/>
			<point x="1146" y="1520"/>
			<point x="882" y="1345"/>
			<point x="882" y="1023" type="curve" smooth="yes"/>
		</contour>
		<contour>
			<point x="22" y="0" type="line"/>
			<point x="2201" y="0" type="line"/>
			<point x="2201" y="73" type="line"/>
			<point x="22" y="73" type="line"/>
		</contour>
		<contour>
			<point x="202" y="0" type="line"/>
			<point x="562" y="0" type="line"/>
			<point x="562" y="980" type="line" smooth="yes"/>
			<point x="562" y="1234"/>
			<point x="661" y="1347"/>
			<point x="801" y="1347" type="curve" smooth="yes"/>
			<point x="941" y="1347"/>
			<point x="1047" y="1264"/>
			<point x="1047" y="1172" type="curve"/>
			<point x="1120" y="1172" type="line"/>
			<point x="1120" y="1282"/>
			<point x="1021" y="1348"/>
			<point x="917" y="1348" type="curve" smooth="yes"/>
			<point x="817" y="1348"/>
			<point x="716" y="1277"/>
			<point x="716" y="1157" type="curve" smooth="yes"/>
			<point x="716" y="1027"/>
			<point x="817" y="958"/>
			<point x="917" y="958" type="curve" smooth="yes"/>
			<point x="1028" y="958"/>
			<point x="1122" y="1040"/>
			<point x="1122" y="1172" type="curve" smooth="yes"/>
			<point x="1122" y="1296"/>
			<point x="983" y="1420"/>
			<point x="751" y="1420" type="curve" smooth="yes"/>
			<point x="451" y="1420"/>
			<point x="202" y="1215"/>
			<point x="202" y="923" type="curve" smooth="yes"/>
		</contour>
		<contour>
			<point x="22" y="847" type="line"/>
			<point x="1522" y="847" type="line"/>
			<point x="1522" y="920" type="line"/>
			<point x="22" y="920" type="line"/>
		</contour>
		<contour>
			<point x="1652" y="0" type="line"/>
			<point x="2032" y="0" type="line"/>
			<point x="2032" y="1540" type="line"/>
			<point x="1652" y="1460" type="line"/>
		</contour>
	</outline>
</glyph>
<glyph name="uniFB05" format="2">
	<advance width="1481"/>
	<unicode hex="FB05"/>
	<outline>
		<contour>
			<point x="1117" y="-14" type="curve" smooth="yes"/>
			<point x="1309" y="-14"/>
			<point x="1438" y="75"/>
			<point x="1486" y="204" type="curve"/>
			<point x="1419" y="232" type="line"/>
			<point x="1388" y="158"/>
			<point x="1342" y="117"/>
			<point x="1291" y="117" type="curve" smooth="yes"/>
			<point x="1242" y="117"/>
			<point x="1210" y="142"/>
			<point x="1210" y="242" type="curve" smooth="yes"/>
			<point x="1211" y="1023" type="line" smooth="yes"/>
			<point x="1211" y="1285"/>
			<point x="1036" y="1520"/>
			<point x="696" y="1520" type="curve" smooth="yes"/>
			<point x="356" y="1520"/>
			<point x="202" y="1285"/>
			<point x="202" y="1023" type="curve" smooth="yes"/>
			<point x="202" y="0" type="line"/>
			<point x="562" y="0" type="line"/>
			<point x="562" y="1080" type="line" smooth="yes"/>
			<point x="562" y="1334"/>
			<point x="593" y="1447"/>
			<point x="693" y="1447" type="curve" smooth="yes"/>
			<point x="793" y="1447"/>
			<point x="830" y="1334"/>
			<point x="830" y="1080" type="curve" smooth="yes"/>
			<point x="830" y="223" type="line" smooth="yes"/>
			<point x="830" y="64"/>
			<point x="903" y="-14"/>
		</contour>
		<contour>
			<point x="22" y="0" type="line"/>
			<point x="752" y="0" type="line"/>
			<point x="752" y="73" type="line"/>
			<point x="22" y="73" type="line"/>
		</contour>
		<contour>
			<point x="708" y="847" type="line"/>
			<point x="1424" y="847" type="line"/>
			<point x="1424" y="920" type="line"/>
			<point x="708" y="920" type="line"/>
		</contour>
	</outline>
</glyph>
<glyph name="J.alt" format="2">
	<advance width="1440"/>
	<outline>
		<contour>
			<point x="538" y="-20" type="curve" smooth="yes"/>
			<point x="810" y="-20"/>
			<point x="1078" y="61"/>
			<point x="1208" y="381" type="curve"/>
			<point x="1208" y="1500" type="line"/>
			<point x="778" y="1500" type="line"/>
			<point x="778" y="500" type="line" smooth="yes"/>
			<point x="778" y="221"/>
			<point x="690" y="53"/>
			<point x="468" y="53" type="curve" smooth="yes"/>
			<point x="284" y="53"/>
			<point x="91" y="220"/>
			<point x="91" y="410" type="curve"/>
			<point x="18" y="410" type="line"/>
			<point x="18" y="290"/>
			<point x="184" y="227"/>
			<point x="289" y="227" type="curve" smooth="yes"/>
			<point x="407" y="227"/>
			<point x="522" y="312"/>
			<point x="522" y="452" type="curve" smooth="yes"/>
			<point x="522" y="604"/>
			<point x="399" y="700"/>
			<point x="279" y="700" type="curve" smooth="yes"/>
			<point x="149" y="700"/>
			<point x="16" y="584"/>
			<point x="16" y="410" type="curve" smooth="yes"/>
			<point x="16" y="199"/>
			<point x="214" y="-20"/>
		</contour>
		<contour>
			<point x="538" y="1427" type="line"/>
			<point x="1408" y="1427" type="line"/>
			<point x="1408" y="1500" type="line"/>
			<point x="538" y="1500" type="line"/>
		</contour>
	</outline>
</glyph>
<glyph name="R.alt" format="2">
	<advance width="1558"/>
	<anchor x="684" y="1500" name="top"/>
	<anchor x="826" y="0" name="bottom"/>
	<anchor x="414" y="0" name="cedilla"/>
	<outline>
		<contour>
			<point x="392" y="764" type="line"/>
			<point x="770" y="764" type="line" smooth="yes"/>
			<point x="1152" y="764"/>
			<point x="1392" y="870"/>
			<point x="1392" y="1130" type="curve" smooth="yes"/>
			<point x="1392" y="1390"/>
			<point x="1130" y="1500"/>
			<point x="770" y="1500" type="curve" smooth="yes"/>
			<point x="28" y="1500" type="line"/>
			<point x="28" y="1428" type="line"/>
			<point x="670" y="1428" type="line" smooth="yes"/>
			<point x="862" y="1428"/>
			<point x="950" y="1388"/>
			<point x="950" y="1130" type="curve" smooth="yes"/>
			<point x="950" y="872"/>
			<point x="862" y="808"/>
			<point x="670" y="808" type="curve" smooth="yes"/>
			<point x="392" y="808" type="line"/>
		</contour>
		<contour>
			<point x="28" y="0" type="line"/>
			<point x="820" y="0" type="line"/>
			<point x="820" y="72" type="line"/>
			<point x="28" y="72" type="line"/>
		</contour>
		<contour>
			<point x="210" y="0" type="line"/>
			<point x="640" y="0" type="line"/>
			<point x="640" y="1500" type="line"/>
			<point x="210" y="1500" type="line"/>
		</contour>
		<contour>
			<point x="1240" y="0" type="curve" smooth="yes"/>
			<point x="1312" y="0"/>
			<point x="1508" y="0"/>
			<point x="1540" y="0" type="curve"/>
			<point x="1540" y="72" type="line"/>
			<point x="1512" y="72"/>
			<point x="1514" y="72"/>
			<point x="1472" y="72" type="curve" smooth="yes"/>
			<point x="1186" y="72"/>
			<point x="1606" y="770"/>
			<point x="940" y="770" type="curve" smooth="yes"/>
			<point x="392" y="770" type="line"/>
			<point x="392" y="732" type="line"/>
			<point x="660" y="732" type="line" smooth="yes"/>
			<point x="1172" y="732"/>
			<point x="654" y="0"/>
		</contour>
	</outline>
</glyph>
<glyph name="a.smcp" format="2">
  <advance width="1312"/>
  <anchor x="988" y="0" name="cedilla"/>
  <anchor x="528" y="0" name="bottom"/>
  <anchor x="654" y="1012" name="top"/>
  <outline>
    <contour>
      <point x="0" y="72" type="line"/>
      <point x="344" y="72" type="line"/>
      <point x="344" y="0" type="line"/>
      <point x="0" y="0" type="line"/>
    </contour>
    <contour>
      <point x="548" y="72" type="line"/>
      <point x="1312" y="72" type="line"/>
      <point x="1312" y="0" type="line"/>
      <point x="548" y="0" type="line"/>
    </contour>
    <contour>
      <point x="272" y="342" type="line"/>
      <point x="880" y="342" type="line"/>
      <point x="880" y="270" type="line"/>
      <point x="272" y="270" type="line"/>
    </contour>
    <contour>
      <point x="447" y="628" type="line"/>
      <point x="174" y="0" type="line"/>
      <point x="90" y="0" type="line"/>
      <point x="542" y="1040" type="line"/>
      <point x="782" y="1040" type="line"/>
      <point x="1222" y="0" type="line"/>
      <point x="722" y="0" type="line"/>
    </contour>
  </outline>
</glyph>
<glyph name="ae.smcp" format="2">
	<advance width="1858"/>
	<outline>
		<contour>
			<point x="69" y="0" type="line"/>
			<point x="162" y="0" type="line"/>
			<point x="905" y="1020" type="line"/>
			<point x="811" y="1020" type="line"/>
		</contour>
		<contour>
			<point x="0" y="0" type="line"/>
			<point x="360" y="0" type="line"/>
			<point x="360" y="73" type="line"/>
			<point x="0" y="73" type="line"/>
		</contour>
		<contour>
			<point x="325" y="293" type="line"/>
			<point x="985" y="293" type="line"/>
			<point x="985" y="366" type="line"/>
			<point x="365" y="366" type="line"/>
		</contour>
		<contour>
			<point x="725" y="0" type="line"/>
			<point x="1748" y="0" type="line"/>
			<point x="1748" y="350" type="line"/>
			<point x="1675" y="350" type="line"/>
			<point x="1625" y="146"/>
			<point x="1558" y="73"/>
			<point x="1385" y="73" type="curve" smooth="yes"/>
			<point x="725" y="73" type="line"/>
		</contour>
		<contour>
			<point x="856" y="0" type="line"/>
			<point x="1286" y="0" type="line"/>
			<point x="1286" y="1020" type="line"/>
			<point x="856" y="1020" type="line"/>
		</contour>
		<contour>
			<point x="1455" y="377" type="curve"/>
			<point x="1529" y="377" type="line"/>
			<point x="1529" y="706" type="line"/>
			<point x="1455" y="706" type="line"/>
			<point x="1425" y="602"/>
			<point x="1358" y="582"/>
			<point x="1305" y="582" type="curve" smooth="yes"/>
			<point x="1195" y="582" type="line"/>
			<point x="1195" y="509" type="line"/>
			<point x="1305" y="509" type="line" smooth="yes"/>
			<point x="1358" y="509"/>
			<point x="1425" y="481"/>
		</contour>
		<contour>
			<point x="1665" y="710" type="curve"/>
			<point x="1739" y="710" type="line"/>
			<point x="1739" y="1020" type="line"/>
			<point x="935" y="1020" type="line"/>
			<point x="935" y="947" type="line"/>
			<point x="1416" y="947" type="line" smooth="yes"/>
			<point x="1550" y="947"/>
			<point x="1615" y="874"/>
		</contour>
	</outline>
</glyph>
<glyph name="b.smcp" format="2">
	<advance width="1447"/>
	<anchor x="791" y="1040" name="top"/>
	<anchor x="733" y="0" name="bottom"/>
	<outline>
		<contour>
			<point x="85" y="0" type="line"/>
			<point x="857" y="0" type="line" smooth="yes"/>
			<point x="1189" y="0"/>
			<point x="1357" y="53"/>
			<point x="1357" y="273" type="curve" smooth="yes"/>
			<point x="1357" y="513"/>
			<point x="1149" y="550"/>
			<point x="857" y="550" type="curve" smooth="yes"/>
			<point x="557" y="550" type="line"/>
			<point x="557" y="502" type="line"/>
			<point x="737" y="502" type="line" smooth="yes"/>
			<point x="849" y="502"/>
			<point x="897" y="441"/>
			<point x="897" y="293" type="curve" smooth="yes"/>
			<point x="897" y="145"/>
			<point x="849" y="72"/>
			<point x="737" y="72" type="curve" smooth="yes"/>
			<point x="85" y="72" type="line"/>
		</contour>
		<contour>
			<point x="217" y="0" type="line"/>
			<point x="647" y="0" type="line"/>
			<point x="647" y="1040" type="line"/>
			<point x="217" y="1040" type="line"/>
		</contour>
		<contour>
			<point x="557" y="530" type="line"/>
			<point x="819" y="530" type="line" smooth="yes"/>
			<point x="1151" y="530"/>
			<point x="1299" y="616"/>
			<point x="1299" y="805" type="curve" smooth="yes"/>
			<point x="1299" y="985"/>
			<point x="1129" y="1040"/>
			<point x="819" y="1040" type="curve" smooth="yes"/>
			<point x="85" y="1040" type="line"/>
			<point x="85" y="968" type="line"/>
			<point x="717" y="968" type="line" smooth="yes"/>
			<point x="809" y="968"/>
			<point x="857" y="931"/>
			<point x="857" y="783" type="curve" smooth="yes"/>
			<point x="857" y="635"/>
			<point x="809" y="578"/>
			<point x="717" y="578" type="curve" smooth="yes"/>
			<point x="557" y="578" type="line"/>
		</contour>
	</outline>
</glyph>
<glyph name="c.smcp" format="2">
  <advance width="1188"/>
  <anchor x="659" y="1020" name="top"/>
  <anchor x="619" y="0" name="bottom"/>
  <anchor x="619" y="0" name="_top"/>
  <anchor x="619" y="0" name="cedilla"/>
  <outline>
    <contour>
      <point x="989" y="1020" type="line"/>
      <point x="1053" y="1020" type="line"/>
      <point x="1053" y="660" type="line"/>
      <point x="996" y="762"/>
      <point x="934" y="878"/>
      <point x="869" y="930" type="curve"/>
    </contour>
    <contour>
      <point x="1053" y="660" type="curve"/>
      <point x="979" y="660" type="line"/>
      <point x="909" y="805"/>
      <point x="826" y="948"/>
      <point x="718" y="948" type="curve" smooth="yes"/>
      <point x="560" y="948"/>
      <point x="529" y="823"/>
      <point x="529" y="510" type="curve" smooth="yes"/>
      <point x="529" y="197"/>
      <point x="561" y="72"/>
      <point x="719" y="72" type="curve" smooth="yes"/>
      <point x="837" y="72"/>
      <point x="920" y="236"/>
      <point x="990" y="360" type="curve"/>
      <point x="1063" y="360" type="line"/>
      <point x="1063" y="194"/>
      <point x="865" y="-20"/>
      <point x="649" y="-20" type="curve" smooth="yes"/>
      <point x="363" y="-20"/>
      <point x="100" y="115"/>
      <point x="100" y="510" type="curve" smooth="yes"/>
      <point x="100" y="905"/>
      <point x="373" y="1040"/>
      <point x="639" y="1040" type="curve" smooth="yes"/>
      <point x="885" y="1040"/>
      <point x="1053" y="806"/>
    </contour>
    <contour>
      <point x="1063" y="360" type="curve"/>
      <point x="1063" y="0" type="line"/>
      <point x="999" y="0" type="line"/>
      <point x="879" y="101" type="line"/>
      <point x="963" y="185"/>
      <point x="1003" y="237"/>
    </contour>
  </outline>
</glyph>
<glyph name="c.smcp" format="2">
	<advance width="1188"/>
	<anchor x="619" y="0" name="cedilla"/>
	<anchor x="659" y="1020" name="top"/>
	<anchor x="619" y="0" name="_top"/>
	<anchor x="619" y="0" name="bottom"/>
	<outline>
		<contour>
			<point x="649" y="-20" type="curve" smooth="yes"/>
			<point x="865" y="-20"/>
			<point x="1063" y="194"/>
			<point x="1063" y="360" type="curve"/>
			<point x="990" y="360" type="line"/>
			<point x="920" y="236"/>
			<point x="837" y="72"/>
			<point x="719" y="72" type="curve" smooth="yes"/>
			<point x="561" y="72"/>
			<point x="529" y="197"/>
			<point x="529" y="510" type="curve" smooth="yes"/>
			<point x="529" y="823"/>
			<point x="560" y="948"/>
			<point x="718" y="948" type="curve" smooth="yes"/>
			<point x="826" y="948"/>
			<point x="909" y="805"/>
			<point x="979" y="660" type="curve"/>
			<point x="1053" y="660" type="line"/>
			<point x="1053" y="806"/>
			<point x="885" y="1040"/>
			<point x="639" y="1040" type="curve" smooth="yes"/>
			<point x="373" y="1040"/>
			<point x="100" y="905"/>
			<point x="100" y="510" type="curve" smooth="yes"/>
			<point x="100" y="115"/>
			<point x="363" y="-20"/>
		</contour>
		<contour>
			<point x="999" y="0" type="line"/>
			<point x="1063" y="0" type="line"/>
			<point x="1063" y="360" type="line"/>
			<point x="1003" y="237"/>
			<point x="963" y="185"/>
			<point x="879" y="101" type="curve"/>
		</contour>
		<contour>
			<point x="1053" y="660" type="curve"/>
			<point x="1053" y="1020" type="line"/>
			<point x="989" y="1020" type="line"/>
			<point x="869" y="930" type="line"/>
			<point x="934" y="878"/>
			<point x="996" y="762"/>
		</contour>
	</outline>
</glyph>
<glyph name="d.smcp" format="2">
  <advance width="1467"/>
  <anchor x="683" y="0" name="cedilla"/>
  <anchor x="683" y="0" name="bottom"/>
  <anchor x="701" y="1020" name="top"/>
  <outline>
    <contour>
      <point x="217" y="1020" type="line"/>
      <point x="647" y="1020" type="line"/>
      <point x="647" y="0" type="line"/>
      <point x="217" y="0" type="line"/>
    </contour>
    <contour>
      <point x="707" y="0" type="curve" smooth="yes"/>
      <point x="85" y="0" type="line"/>
      <point x="85" y="72" type="line"/>
      <point x="707" y="72" type="line" smooth="yes"/>
      <point x="855" y="72"/>
      <point x="907" y="186"/>
      <point x="907" y="510" type="curve" smooth="yes"/>
      <point x="907" y="834"/>
      <point x="835" y="948"/>
      <point x="707" y="948" type="curve" smooth="yes"/>
      <point x="85" y="948" type="line"/>
      <point x="85" y="1020" type="line"/>
      <point x="707" y="1020" type="line" smooth="yes"/>
      <point x="1163" y="1020"/>
      <point x="1357" y="876"/>
      <point x="1357" y="510" type="curve" smooth="yes"/>
      <point x="1357" y="144"/>
      <point x="1143" y="-5.33946e-14"/>
    </contour>
  </outline>
</glyph>
<glyph name="d.smcp" format="2">
	<advance width="1467"/>
	<anchor x="683" y="0" name="cedilla"/>
	<anchor x="683" y="0" name="bottom"/>
	<anchor x="701" y="1020" name="top"/>
	<outline>
		<contour>
			<point x="85" y="0" type="line"/>
			<point x="707" y="0" type="line" smooth="yes"/>
			<point x="1143" y="0"/>
			<point x="1357" y="144"/>
			<point x="1357" y="510" type="curve" smooth="yes"/>
			<point x="1357" y="876"/>
			<point x="1163" y="1020"/>
			<point x="707" y="1020" type="curve" smooth="yes"/>
			<point x="85" y="1020" type="line"/>
			<point x="85" y="948" type="line"/>
			<point x="707" y="948" type="line" smooth="yes"/>
			<point x="835" y="948"/>
			<point x="907" y="834"/>
			<point x="907" y="510" type="curve" smooth="yes"/>
			<point x="907" y="186"/>
			<point x="855" y="72"/>
			<point x="707" y="72" type="curve" smooth="yes"/>
			<point x="85" y="72" type="line"/>
		</contour>
		<contour>
			<point x="217" y="0" type="line"/>
			<point x="647" y="0" type="line"/>
			<point x="647" y="1020" type="line"/>
			<point x="217" y="1020" type="line"/>
		</contour>
	</outline>
</glyph>
<glyph name="e.smcp" format="2">
  <advance width="1218"/>
  <anchor x="663" y="1020" name="top"/>
  <anchor x="735" y="0" name="bottom"/>
  <anchor x="985" y="0" name="cedilla"/>
  <outline>
    <contour>
      <point x="1035" y="350" type="curve"/>
      <point x="1108" y="350" type="line"/>
      <point x="1108" y="0" type="line"/>
      <point x="85" y="0" type="line"/>
      <point x="85" y="73" type="line"/>
      <point x="745" y="73" type="line" smooth="yes"/>
      <point x="918" y="73"/>
      <point x="985" y="146"/>
    </contour>
    <contour>
      <point x="216" y="1020" type="line"/>
      <point x="646" y="1020" type="line"/>
      <point x="646" y="0" type="line"/>
      <point x="216" y="0" type="line"/>
    </contour>
    <contour>
      <point x="85" y="1020" type="line"/>
      <point x="1099" y="1020" type="line"/>
      <point x="1099" y="710" type="line"/>
      <point x="1025" y="710" type="line"/>
      <point x="975" y="874"/>
      <point x="910" y="947"/>
      <point x="776" y="947" type="curve" smooth="yes"/>
      <point x="85" y="947" type="line"/>
    </contour>
    <contour>
      <point x="815" y="377" type="line"/>
      <point x="775" y="481"/>
      <point x="718" y="509"/>
      <point x="665" y="509" type="curve" smooth="yes"/>
      <point x="555" y="509" type="line"/>
      <point x="555" y="582" type="line"/>
      <point x="665" y="582" type="line" smooth="yes"/>
      <point x="718" y="582"/>
      <point x="775" y="602"/>
      <point x="815" y="706" type="curve"/>
      <point x="889" y="706" type="line"/>
      <point x="889" y="377" type="line"/>
    </contour>
  </outline>
</glyph>
<glyph name="e.smcp" format="2">
	<advance width="1218"/>
	<anchor x="663" y="1020" name="top"/>
	<anchor x="735" y="0" name="bottom"/>
	<anchor x="985" y="0" name="cedilla"/>
	<outline>
		<contour>
			<point x="216" y="0" type="line"/>
			<point x="646" y="0" type="line"/>
			<point x="646" y="1020" type="line"/>
			<point x="216" y="1020" type="line"/>
		</contour>
		<contour>
			<point x="85" y="0" type="line"/>
			<point x="1108" y="0" type="line"/>
			<point x="1108" y="350" type="line"/>
			<point x="1035" y="350" type="line"/>
			<point x="985" y="146"/>
			<point x="918" y="73"/>
			<point x="745" y="73" type="curve" smooth="yes"/>
			<point x="85" y="73" type="line"/>
		</contour>
		<contour>
			<point x="815" y="377" type="curve"/>
			<point x="889" y="377" type="line"/>
			<point x="889" y="706" type="line"/>
			<point x="815" y="706" type="line"/>
			<point x="775" y="602"/>
			<point x="718" y="582"/>
			<point x="665" y="582" type="curve" smooth="yes"/>
			<point x="555" y="582" type="line"/>
			<point x="555" y="509" type="line"/>
			<point x="665" y="509" type="line" smooth="yes"/>
			<point x="718" y="509"/>
			<point x="775" y="481"/>
		</contour>
		<contour>
			<point x="1025" y="710" type="curve"/>
			<point x="1099" y="710" type="line"/>
			<point x="1099" y="1020" type="line"/>
			<point x="85" y="1020" type="line"/>
			<point x="85" y="947" type="line"/>
			<point x="776" y="947" type="line" smooth="yes"/>
			<point x="910" y="947"/>
			<point x="975" y="874"/>
		</contour>
	</outline>
</glyph>
<glyph name="eng.smcp" format="2">
	<advance width="1387"/>
	<outline>
		<contour>
			<point x="698" y="-520" type="curve" smooth="yes"/>
			<point x="958" y="-520"/>
			<point x="1261" y="-283"/>
			<point x="1261" y="-23" type="curve" smooth="yes"/>
			<point x="1262" y="739" type="line"/>
			<point x="882" y="702" type="line"/>
			<point x="882" y="40" type="line" smooth="yes"/>
			<point x="882" y="-214"/>
			<point x="877" y="-451"/>
			<point x="677" y="-451" type="curve" smooth="yes"/>
			<point x="578" y="-451"/>
			<point x="417" y="-372"/>
			<point x="417" y="-262" type="curve"/>
			<point x="344" y="-262" type="line"/>
			<point x="344" y="-342"/>
			<point x="442" y="-445"/>
			<point x="560" y="-445" type="curve" smooth="yes"/>
			<point x="687" y="-445"/>
			<point x="767" y="-367"/>
			<point x="767" y="-256" type="curve" smooth="yes"/>
			<point x="767" y="-146"/>
			<point x="666" y="-58"/>
			<point x="556" y="-58" type="curve" smooth="yes"/>
			<point x="435" y="-58"/>
			<point x="342" y="-150"/>
			<point x="342" y="-262" type="curve" smooth="yes"/>
			<point x="342" y="-415"/>
			<point x="506" y="-520"/>
		</contour>
		<contour>
			<point x="32" y="0" type="line"/>
			<point x="691" y="0" type="line"/>
			<point x="691" y="73" type="line"/>
			<point x="32" y="73" type="line"/>
		</contour>
		<contour>
			<point x="172" y="0" type="line"/>
			<point x="553" y="0" type="line"/>
			<point x="553" y="1020" type="line"/>
			<point x="32" y="1020" type="line"/>
			<point x="32" y="947" type="line"/>
			<point x="172" y="947" type="line"/>
		</contour>
		<contour>
			<point x="498" y="551" type="curve"/>
			<point x="553" y="551" type="line"/>
			<point x="553" y="718"/>
			<point x="648" y="882"/>
			<point x="769" y="882" type="curve" smooth="yes"/>
			<point x="826" y="882"/>
			<point x="882" y="860"/>
			<point x="882" y="702" type="curve"/>
			<point x="1262" y="739" type="line"/>
			<point x="1262" y="913"/>
			<point x="1161" y="1039"/>
			<point x="902" y="1039" type="curve" smooth="yes"/>
			<point x="584" y="1039"/>
			<point x="498" y="716"/>
		</contour>
	</outline>
</glyph>
<glyph name="f.smcp" format="2">
	<advance width="1138"/>
	<anchor x="753" y="1020" name="top"/>
	<anchor x="445" y="0" name="bottom"/>
	<outline>
		<contour>
			<point x="216" y="0" type="line"/>
			<point x="646" y="0" type="line"/>
			<point x="646" y="1020" type="line"/>
			<point x="216" y="1020" type="line"/>
		</contour>
		<contour>
			<point x="85" y="0" type="line"/>
			<point x="795" y="0" type="line"/>
			<point x="795" y="73" type="line"/>
			<point x="85" y="73" type="line"/>
		</contour>
		<contour>
			<point x="835" y="346" type="curve"/>
			<point x="909" y="346" type="line"/>
			<point x="909" y="655" type="line"/>
			<point x="835" y="655" type="line"/>
			<point x="785" y="571"/>
			<point x="750" y="542"/>
			<point x="676" y="542" type="curve" smooth="yes"/>
			<point x="565" y="542" type="line"/>
			<point x="565" y="470" type="line"/>
			<point x="676" y="470" type="line" smooth="yes"/>
			<point x="750" y="470"/>
			<point x="785" y="430"/>
		</contour>
		<contour>
			<point x="1005" y="710" type="curve"/>
			<point x="1078" y="710" type="line"/>
			<point x="1078" y="1020" type="line"/>
			<point x="85" y="1020" type="line"/>
			<point x="85" y="947" type="line"/>
			<point x="765" y="947" type="line" smooth="yes"/>
			<point x="879" y="947"/>
			<point x="955" y="894"/>
		</contour>
	</outline>
</glyph>
<glyph name="four.oldstyle" format="2">
  <advance width="1368"/>
  <outline>
    <contour>
      <point x="1130" y="-500" type="line"/>
      <point x="700" y="-500" type="line"/>
      <point x="700" y="628" type="line"/>
      <point x="230" y="73" type="line"/>
      <point x="1350" y="73" type="line"/>
      <point x="1350" y="-1" type="line"/>
      <point x="70" y="-1" type="line"/>
      <point x="830" y="920" type="line"/>
      <point x="1130" y="920" type="line"/>
    </contour>
  </outline>
</glyph>
<glyph name="g.smcp" format="2">
	<advance width="1265"/>
	<anchor x="619" y="1020" name="top"/>
	<anchor x="630" y="0" name="bottom"/>
	<anchor x="629" y="0" name="cedilla"/>
	<outline>
		<contour>
			<point x="630" y="-20" type="curve" smooth="yes"/>
			<point x="866" y="-20"/>
			<point x="1018" y="134"/>
			<point x="1099" y="260" type="curve"/>
			<point x="1099" y="421" type="line"/>
			<point x="740" y="421" type="line"/>
			<point x="740" y="180" type="line"/>
			<point x="730" y="136"/>
			<point x="678" y="58"/>
			<point x="640" y="58" type="curve" smooth="yes"/>
			<point x="573" y="58"/>
			<point x="539" y="197"/>
			<point x="539" y="510" type="curve" smooth="yes"/>
			<point x="539" y="823"/>
			<point x="561" y="957"/>
			<point x="679" y="957" type="curve" smooth="yes"/>
			<point x="787" y="957"/>
			<point x="919" y="835"/>
			<point x="989" y="690" type="curve"/>
			<point x="1063" y="690" type="line"/>
			<point x="1013" y="836"/>
			<point x="835" y="1040"/>
			<point x="619" y="1040" type="curve" smooth="yes"/>
			<point x="403" y="1040"/>
			<point x="110" y="905"/>
			<point x="110" y="510" type="curve" smooth="yes"/>
			<point x="110" y="115"/>
			<point x="394" y="-20"/>
		</contour>
		<contour>
			<point x="649" y="389" type="line"/>
			<point x="1200" y="389" type="line"/>
			<point x="1200" y="471" type="line"/>
			<point x="649" y="471" type="line"/>
		</contour>
		<contour>
			<point x="1063" y="690" type="curve"/>
			<point x="1063" y="1020" type="line"/>
			<point x="999" y="1020" type="line"/>
			<point x="849" y="950" type="line"/>
			<point x="954" y="871"/>
			<point x="1007" y="778"/>
		</contour>
	</outline>
</glyph>
<glyph name="germandbls.smcp" format="2">
  <advance width="1657"/>
  <outline>
    <contour>
      <point x="85" y="73" type="line"/>
      <point x="726" y="73" type="line"/>
      <point x="726" y="0" type="line"/>
      <point x="85" y="0" type="line"/>
    </contour>
    <contour>
      <point x="1282" y="560" type="line"/>
      <point x="1181" y="591"/>
      <point x="989" y="618"/>
      <point x="852" y="628" type="curve"/>
      <point x="1085" y="928" type="line"/>
      <point x="1035" y="953"/>
      <point x="980" y="967"/>
      <point x="902" y="967" type="curve" smooth="yes"/>
      <point x="694" y="967"/>
      <point x="646" y="785"/>
      <point x="646" y="551" type="curve" smooth="yes"/>
      <point x="646" y="0" type="line"/>
      <point x="216" y="0" type="line"/>
      <point x="216" y="572" type="line" smooth="yes"/>
      <point x="216" y="898"/>
      <point x="556" y="1040"/>
      <point x="882" y="1040" type="curve" smooth="yes"/>
      <point x="1129" y="1040"/>
      <point x="1457" y="868"/>
      <point x="1498" y="822" type="curve"/>
    </contour>
    <contour>
      <point x="810" y="211" type="line"/>
      <point x="810" y="91"/>
      <point x="892" y="57"/>
      <point x="1008" y="57" type="curve" smooth="yes"/>
      <point x="1106" y="57"/>
      <point x="1177" y="151"/>
      <point x="1177" y="299" type="curve" smooth="yes"/>
      <point x="1177" y="467"/>
      <point x="1020" y="555"/>
      <point x="852" y="555" type="curve"/>
      <point x="852" y="628" type="line"/>
      <point x="1164" y="628"/>
      <point x="1597" y="550"/>
      <point x="1597" y="289" type="curve" smooth="yes"/>
      <point x="1597" y="89"/>
      <point x="1289" y="-20"/>
      <point x="1077" y="-20" type="curve" smooth="yes"/>
      <point x="843" y="-20"/>
      <point x="735" y="56"/>
      <point x="735" y="211" type="curve" smooth="yes"/>
      <point x="735" y="333"/>
      <point x="826" y="422"/>
      <point x="936" y="422" type="curve" smooth="yes"/>
      <point x="1037" y="422"/>
      <point x="1124" y="342"/>
      <point x="1124" y="230" type="curve" smooth="yes"/>
      <point x="1124" y="126"/>
      <point x="1030" y="70"/>
      <point x="931" y="70" type="curve" smooth="yes"/>
      <point x="830" y="70"/>
      <point x="737" y="161"/>
      <point x="737" y="211" type="curve"/>
    </contour>
  </outline>
</glyph>
<glyph name="j.smcp" format="2">
	<advance width="1147"/>
	<outline>
		<contour>
			<point x="382" y="-20" type="curve" smooth="yes"/>
			<point x="654" y="-20"/>
			<point x="882" y="180"/>
			<point x="932" y="311" type="curve"/>
			<point x="932" y="1020" type="line"/>
			<point x="502" y="1020" type="line"/>
			<point x="502" y="500" type="line" smooth="yes"/>
			<point x="502" y="221"/>
			<point x="444" y="61"/>
			<point x="322" y="61" type="curve" smooth="yes"/>
			<point x="198" y="61"/>
			<point x="75" y="170"/>
			<point x="75" y="290" type="curve"/>
			<point x="2" y="290" type="line"/>
			<point x="2" y="250"/>
			<point x="128" y="127"/>
			<point x="223" y="127" type="curve" smooth="yes"/>
			<point x="331" y="127"/>
			<point x="426" y="212"/>
			<point x="426" y="322" type="curve" smooth="yes"/>
			<point x="426" y="454"/>
			<point x="328" y="520"/>
			<point x="218" y="520" type="curve" smooth="yes"/>
			<point x="98" y="520"/>
			<point x="0" y="424"/>
			<point x="0" y="290" type="curve" smooth="yes"/>
			<point x="0" y="129"/>
			<point x="158" y="-20"/>
		</contour>
		<contour>
			<point x="262" y="947" type="line"/>
			<point x="1082" y="947" type="line"/>
			<point x="1082" y="1020" type="line"/>
			<point x="262" y="1020" type="line"/>
		</contour>
	</outline>
</glyph>
<glyph name="k.smcp" format="2">
	<advance width="1485"/>
	<anchor x="855" y="1020" name="top"/>
	<anchor x="787" y="0" name="bottom"/>
	<anchor x="437" y="0" name="cedilla"/>
	<outline>
		<contour>
			<point x="369" y="244" type="line"/>
			<point x="479" y="244" type="line"/>
			<point x="1307" y="1016" type="line"/>
			<point x="1197" y="1016" type="line"/>
		</contour>
		<contour>
			<point x="85" y="0" type="line"/>
			<point x="715" y="0" type="line"/>
			<point x="715" y="73" type="line"/>
			<point x="85" y="73" type="line"/>
		</contour>
		<contour>
			<point x="216" y="0" type="line"/>
			<point x="646" y="0" type="line"/>
			<point x="646" y="1020" type="line"/>
			<point x="216" y="1020" type="line"/>
		</contour>
		<contour>
			<point x="795" y="0" type="line"/>
			<point x="1465" y="0" type="line"/>
			<point x="1465" y="73" type="line"/>
			<point x="795" y="73" type="line"/>
		</contour>
		<contour>
			<point x="899" y="0" type="line"/>
			<point x="1379" y="0" type="line"/>
			<point x="931" y="766" type="line"/>
			<point x="633" y="469" type="line"/>
		</contour>
		<contour>
			<point x="85" y="947" type="line"/>
			<point x="795" y="947" type="line"/>
			<point x="795" y="1020" type="line"/>
			<point x="85" y="1020" type="line"/>
		</contour>
		<contour>
			<point x="985" y="947" type="line"/>
			<point x="1366" y="947" type="line"/>
			<point x="1366" y="1020" type="line"/>
			<point x="985" y="1020" type="line"/>
		</contour>
	</outline>
</glyph>
<glyph name="l.smcp" format="2">
	<advance width="1139"/>
	<anchor x="413" y="1020" name="top"/>
	<anchor x="705" y="0" name="bottom"/>
	<anchor x="705" y="0" name="cedilla"/>
	<outline>
		<contour>
			<point x="216" y="0" type="line"/>
			<point x="646" y="0" type="line"/>
			<point x="646" y="1020" type="line"/>
			<point x="216" y="1020" type="line"/>
		</contour>
		<contour>
			<point x="85" y="0" type="line"/>
			<point x="1119" y="0" type="line"/>
			<point x="1119" y="350" type="line"/>
			<point x="1045" y="350" type="line"/>
			<point x="945" y="156"/>
			<point x="870" y="73"/>
			<point x="656" y="73" type="curve" smooth="yes"/>
			<point x="85" y="73" type="line"/>
		</contour>
		<contour>
			<point x="85" y="947" type="line"/>
			<point x="776" y="947" type="line"/>
			<point x="776" y="1020" type="line"/>
			<point x="85" y="1020" type="line"/>
		</contour>
	</outline>
</glyph>
<glyph name="lslash.smcp" format="2">
	<advance width="1139"/>
	<outline>
		<contour>
			<point x="85" y="366" type="line"/>
			<point x="856" y="656" type="line"/>
			<point x="856" y="740" type="line"/>
			<point x="85" y="451" type="line"/>
		</contour>
		<component base="l.smcp"/>
	</outline>
</glyph>
<glyph name="m.smcp" format="2">
  <advance width="1711"/>
  <anchor x="765" y="1020" name="top"/>
  <anchor x="715" y="0" name="bottom"/>
  <outline>
    <contour>
      <point x="1626" y="1020" type="line"/>
      <point x="1626" y="947" type="line"/>
      <point x="1536" y="947" type="line"/>
      <point x="1536" y="0" type="line"/>
      <point x="1106" y="0" type="line"/>
      <point x="1106" y="1020" type="line"/>
    </contour>
    <contour>
      <point x="95" y="73" type="line"/>
      <point x="352" y="73" type="line"/>
      <point x="352" y="0" type="line"/>
      <point x="95" y="0" type="line"/>
    </contour>
    <contour>
      <point x="996" y="73" type="line"/>
      <point x="1626" y="73" type="line"/>
      <point x="1626" y="0" type="line"/>
      <point x="996" y="0" type="line"/>
    </contour>
    <contour>
      <point x="876" y="466" type="line"/>
      <point x="1058" y="1020" type="line"/>
      <point x="1137" y="1020" type="line"/>
      <point x="812" y="-20" type="line"/>
      <point x="621" y="-20" type="line"/>
      <point x="224" y="1020" type="line"/>
      <point x="657" y="1020" type="line"/>
    </contour>
    <contour>
      <point x="185" y="947" type="line"/>
      <point x="85" y="947" type="line"/>
      <point x="85" y="1020" type="line"/>
      <point x="262" y="1020" type="line"/>
      <point x="262" y="0" type="line"/>
      <point x="185" y="0" type="line"/>
    </contour>
  </outline>
</glyph>
<glyph name="n.smcp" format="2">
	<advance width="1412"/>
	<anchor x="725" y="1020" name="top"/>
	<anchor x="625" y="0" name="bottom"/>
	<outline>
		<contour>
			<point x="1008" y="-20" type="line"/>
			<point x="1181" y="-20" type="line"/>
			<point x="1181" y="1020" type="line"/>
			<point x="1105" y="1020" type="line"/>
			<point x="1105" y="514" type="line"/>
			<point x="769" y="1020" type="line"/>
			<point x="269" y="1020" type="line"/>
		</contour>
		<contour>
			<point x="85" y="0" type="line"/>
			<point x="453" y="0" type="line"/>
			<point x="453" y="73" type="line"/>
			<point x="85" y="73" type="line"/>
		</contour>
		<contour>
			<point x="246" y="0" type="line"/>
			<point x="322" y="0" type="line"/>
			<point x="322" y="1020" type="line"/>
			<point x="85" y="1020" type="line"/>
			<point x="85" y="947" type="line"/>
			<point x="246" y="947" type="line"/>
		</contour>
		<contour>
			<point x="934" y="947" type="line"/>
			<point x="1342" y="947" type="line"/>
			<point x="1342" y="1020" type="line"/>
			<point x="934" y="1020" type="line"/>
		</contour>
	</outline>
</glyph>
